SplineFontDB: 3.2
FontName: IBMCourier
FullName: IBM Courier
FamilyName: IBM Courier
Weight: Book
Copyright: Copyright (c) IBM Corporation 1990,1991.
Version: 001.003
ItalicAngle: 0
UnderlinePosition: -100
UnderlineWidth: 50
Ascent: 800
Descent: 200
InvalidEm: 0
LayerCount: 2
Layer: 0 0 "Back" 1
Layer: 1 0 "Fore" 0
UniqueID: 263786
OS2Version: 0
OS2_WeightWidthSlopeOnly: 0
OS2_UseTypoMetrics: 0
CreationTime: 1634085839
ModificationTime: 1634085839
OS2TypoAscent: 0
OS2TypoAOffset: 1
OS2TypoDescent: 0
OS2TypoDOffset: 1
OS2TypoLinegap: 0
OS2WinAscent: 0
OS2WinAOffset: 1
OS2WinDescent: 0
OS2WinDOffset: 1
HheadAscent: 0
HheadAOffset: 1
HheadDescent: 0
HheadDOffset: 1
OS2Vendor: 'PfEd'
Lookup: 4 0 1 "'liga' Standard Ligatures in Latin lookup 0" { "'liga' Standard Ligatures in Latin lookup 0 subtable"  } ['liga' ('latn' <'dflt' > ) ]
DEI: 91125
LangName: 1033 "" "" "Regular"
Encoding: AdobeStandard
UnicodeInterp: none
NameList: AGL For New Fonts
DisplaySize: -48
AntiAlias: 1
FitToEm: 0
BeginPrivate: 6
BlueValues 33 [ -25 0 563 588 430 455 606 631 ]
OtherBlues 27 [ 234 243 330 330 128 153 ]
StdHW 6 [ 47 ]
StdVW 6 [ 50 ]
ForceBold 5 false
Erode 145 {
6.5 dup 3 -1 roll 0.1 mul exch 0.5 sub mul cvi sub dup mul
50 0 dtransform dup mul exch dup mul add
le{pop pop 1.0 1.0}{pop pop 0.0 1.5}ifelse}
EndPrivate
BeginChars: 586 479

StartChar: exclam
Encoding: 33 33 1
Width: 600
Flags: W
HStem: -17 123<281 319> 193 378<277 323 277 277> 551 20G<259 342 342 342>
VStem: 231 138<27.5 61 27 62> 259 83<571 571> 268 64.5
LayerCount: 2
Fore
SplineSet
342 571 m 1xec
 323 193 l 1
 277 193 l 1
 259 571 l 1
 342 571 l 1xec
300 106 m 0x90
 340 106 369 78 369 44 c 0
 369 10 338 -17 300 -17 c 0
 262 -17 231 10 231 45 c 0
 231 79 262 106 300 106 c 0x90
EndSplineSet
EndChar

StartChar: quotedbl
Encoding: 34 34 2
Width: 600
Flags: W
HStem: 282 281<168 242 168 168 358 358 358 432> 543 20G<157 252 252 252 348 443 443 443>
VStem: 157 95<563 563> 162.5 84.5 348 95<563 563> 353 84.5
LayerCount: 2
Fore
SplineSet
157 563 m 1xf4
 252 563 l 1
 242 282 l 1
 168 282 l 1
 157 563 l 1xf4
348 563 m 1x88
 443 563 l 1
 432 282 l 1
 358 282 l 1
 348 563 l 1x88
EndSplineSet
EndChar

StartChar: numbersign
Encoding: 35 35 3
Width: 600
Flags: W
HStem: 157 65<78 172 78 176 223 365 78 219 415 522> 389 65<78 186 78 189 78 233 236 378 428 522>
VStem: 166.5 47 181 47 195 47 359 47 373 47 387 47
LayerCount: 2
Fore
SplineSet
201 659 m 1xec
 248 659 l 1
 236 454 l 1
 381 454 l 1
 393 659 l 1
 440 659 l 1
 428 454 l 1
 522 454 l 1
 522 389 l 1xc9
 425 389 l 1
 415 222 l 1
 522 222 l 1
 522 157 l 1xe2
 412 157 l 1
 400 -57 l 1
 353 -57 l 1
 365 157 l 1
 219 157 l 1
 208 -57 l 1
 161 -57 l 1
 172 157 l 1
 78 157 l 1
 78 222 l 1xe4
 176 222 l 1
 186 389 l 1
 78 389 l 1
 78 454 l 1xd4
 189 454 l 1
 201 659 l 1xec
378 389 m 1xd2
 233 389 l 1
 223 222 l 1
 368 222 l 1
 378 389 l 1xd2
EndSplineSet
EndChar

StartChar: dollar
Encoding: 36 36 4
Width: 600
Flags: W
HStem: 9 194<108 145 98 155 108 108> 14 48<274 274> 350.5 196.5 504 48<274 274>
VStem: 108 47<9 9> 115 52<377.5 447.5 377.5 449> 274 48<-136 14 -136 14 62 249 313 503 552 656> 429 45<467 547> 439 52<118.5 185>
LayerCount: 2
Fore
SplineSet
429 547 m 1x7780
 476 547 l 1
 475 534 474 519 474 499 c 0
 474 435 481 386 485 353 c 1
 439 348 l 1x67
 420 481 360 494 322 503 c 1
 322 299 l 1
 405 276 491 252 491 155 c 0
 491 71 416 21 322 14 c 1
 322 -136 l 1
 274 -136 l 1
 274 14 l 1
 254 15 241 17 191 33 c 0
 176 38 172 38 169 38 c 0x5a80
 156 38 156 31 155 9 c 1
 108 9 l 1
 112 83 107 136 98 203 c 1
 145 203 l 1x9a80
 153 157 169 75 274 62 c 1
 274 261 l 1
 207 279 115 304 115 407 c 0
 115 491 180 544 274 552 c 1x5680
 274 656 l 1
 322 656 l 1
 322 552 l 1
 346 549 369 541 391 531 c 0
 408 523 410 522 415 522 c 0
 425 522 426 527 429 547 c 1x7780
274 313 m 1
 274 504 l 1
 243 499 167 486 167 409 c 0x5680
 167 346 221 329 274 313 c 1
322 249 m 1
 322 62 l 1
 364 66 439 83 439 154 c 0
 439 216 379 233 322 249 c 1
EndSplineSet
EndChar

StartChar: percent
Encoding: 37 37 5
Width: 600
Flags: W
HStem: -14 47<374 429.5 374 446.5> 206 47<373.5 430> 240 21G<87 87> 347 47<159 214 159 231> 567 47<158 215>
VStem: 45 54<458.5 501 458.5 511> 260 54<97.5 141.5 97.5 149> 274 54<457.5 502> 489 54<98.5 140.5>
LayerCount: 2
Fore
SplineSet
401 253 m 0xdf80
 494 253 543 181 543 119 c 0
 543 56 492 -14 401 -14 c 0
 309 -14 260 58 260 119 c 0
 260 179 308 253 401 253 c 0xdf80
401 206 m 0xde80
 346 206 314 163 314 120 c 0
 314 75 347 33 401 33 c 0
 458 33 489 77 489 120 c 0
 489 161 459 206 401 206 c 0xde80
186 614 m 0xdd80
 278 614 328 543 328 480 c 0
 328 415 276 347 186 347 c 0
 97 347 45 416 45 480 c 0
 45 542 95 614 186 614 c 0xdd80
187 567 m 0xdd80
 129 567 99 522 99 480 c 0
 99 437 131 394 187 394 c 0
 241 394 274 435 274 480 c 0
 274 524 243 567 187 567 c 0xdd80
493 420 m 1xbd80
 513 373 l 1
 107 193 l 1
 87 240 l 1
 493 420 l 1xbd80
EndSplineSet
EndChar

StartChar: ampersand
Encoding: 38 38 6
Width: 600
Flags: W
HStem: -8 52<223 280> 0 47<461 536 461 536 422 536> 233 47<469 529 469 469> 492 48<260.5 302.5 249 313>
VStem: 98 66<125.5 172> 159 59<418 442.5 418 458.5>
LayerCount: 2
Fore
SplineSet
434 280 m 1x78
 529 280 l 1
 529 233 l 1
 469 233 l 1
 445 163 427 130 417 111 c 1
 461 47 l 1
 536 47 l 1
 536 0 l 1
 422 0 l 1x78
 381 60 l 1
 357 34 317 -8 243 -8 c 0
 150 -8 98 66 98 138 c 0xb8
 98 206 143 272 217 300 c 0
 217 301 215 305 213 307 c 0
 169 373 159 388 159 426 c 0
 159 491 210 540 288 540 c 0
 317 540 342 534 367 523 c 0
 395 512 400 512 408 512 c 0
 424 512 437 517 445 520 c 1
 399 448 l 1
 374 466 338 492 288 492 c 0
 233 492 218 455 218 430 c 0
 218 406 232 386 257 349 c 2x74
 387 156 l 1
 410 206 412 212 434 280 c 1x78
354 100 m 1xb8
 244 264 l 1
 207 249 164 212 164 150 c 0
 164 101 191 44 255 44 c 0
 307 44 338 81 354 100 c 1xb8
EndSplineSet
EndChar

StartChar: quoteright
Encoding: 39 8217 7
Width: 600
Flags: W
HStem: 320 243<177 357 177 357> 543 20G<253 357 357 357>
VStem: 177 180
LayerCount: 2
Fore
SplineSet
253 563 m 1xe0
 357 563 l 1
 248 320 l 1
 177 320 l 1
 253 563 l 1xe0
EndSplineSet
EndChar

StartChar: parenleft
Encoding: 40 40 8
Width: 600
Flags: MW
HStem: -96 745<412 463 412 463>
VStem: 287 60<221 330>
LayerCount: 2
Fore
SplineSet
412 649 m 1
 463 649 l 1
 420 567 347 429 347 276 c 0
 347 124 421 -16 463 -96 c 1
 412 -96 l 1
 337 16 287 166 287 276 c 0
 287 384 335 534 412 649 c 1
EndSplineSet
EndChar

StartChar: parenright
Encoding: 41 41 9
Width: 600
Flags: MW
HStem: -96 745<137 189 137 189>
VStem: 254 60<222 327 222 353>
LayerCount: 2
Fore
SplineSet
189 -96 m 1
 137 -96 l 1
 177 -23 254 122 254 276 c 0
 254 430 178 572 137 649 c 1
 189 649 l 1
 272 522 314 378 314 276 c 0
 314 168 267 22 189 -96 c 1
EndSplineSet
EndChar

StartChar: asterisk
Encoding: 42 42 10
Width: 600
Flags: W
HStem: 206 357<217 334 266 383> 331 21G<300 300> 543 20G<266 334 334 334>
VStem: 111 378<403 403> 269 62
LayerCount: 2
Fore
SplineSet
266 563 m 1xf8
 334 563 l 1
 328 416 l 1
 468 467 l 1
 489 403 l 1
 345 363 l 1
 438 247 l 1
 383 206 l 1
 300 331 l 1
 217 206 l 1
 162 247 l 1
 255 363 l 1
 111 403 l 1
 132 467 l 1
 272 416 l 1
 266 563 l 1xf8
EndSplineSet
EndChar

StartChar: plus
Encoding: 43 43 11
Width: 600
Flags: MW
HStem: 278 50<66 275 66 275 325 534>
VStem: 275 50<73 278 73 278 328 533>
LayerCount: 2
Fore
SplineSet
275 533 m 1
 325 533 l 1
 325 328 l 1
 534 328 l 1
 534 278 l 1
 325 278 l 1
 325 73 l 1
 275 73 l 1
 275 278 l 1
 66 278 l 1
 66 328 l 1
 275 328 l 1
 275 533 l 1
EndSplineSet
EndChar

StartChar: comma
Encoding: 44 44 12
Width: 600
Flags: MW
HStem: -109 242<177 357 177 357>
VStem: 177 180
LayerCount: 2
Fore
SplineSet
253 133 m 1
 357 133 l 1
 248 -109 l 1
 177 -109 l 1
 253 133 l 1
EndSplineSet
EndChar

StartChar: hyphen
Encoding: 45 45 13
Width: 600
Flags: MW
HStem: 262 55<194 406 194 406>
VStem: 194 212<262 317 262 317>
LayerCount: 2
Fore
SplineSet
194 317 m 1
 406 317 l 1
 406 262 l 1
 194 262 l 1
 194 317 l 1
EndSplineSet
EndChar

StartChar: period
Encoding: 46 46 14
Width: 600
Flags: MW
HStem: -17 136<282.5 318.5>
VStem: 223 154<30 71.5 30 72>
LayerCount: 2
Fore
SplineSet
300 119 m 0
 338 119 377 92 377 51 c 0
 377 9 337 -17 300 -17 c 0
 265 -17 223 7 223 51 c 0
 223 93 263 119 300 119 c 0
EndSplineSet
EndChar

StartChar: slash
Encoding: 47 47 15
Width: 600
Flags: MW
HStem: -133 835<134 466>
VStem: 91 418
LayerCount: 2
Fore
SplineSet
466 702 m 1
 509 684 l 1
 134 -133 l 1
 91 -113 l 1
 466 702 l 1
EndSplineSet
EndChar

StartChar: zero
Encoding: 48 48 16
Width: 600
Flags: MW
HStem: -14 45<240 359 240 381.5> 576 45<240 359.5>
VStem: 110 53<251 356 251 368> 437 53<251.5 357>
LayerCount: 2
Fore
SplineSet
300 621 m 0
 463 621 490 433 490 303 c 0
 490 172 463 -14 300 -14 c 0
 137 -14 110 174 110 303 c 0
 110 433 137 621 300 621 c 0
300 576 m 0
 180 576 163 408 163 304 c 0
 163 198 181 31 299 31 c 0
 419 31 437 199 437 304 c 0
 437 410 419 576 300 576 c 0
EndSplineSet
EndChar

StartChar: one
Encoding: 49 49 17
Width: 600
Flags: MW
HStem: 0 47<110 284 334 505 110 284> 601 20G<302 334 334 334>
VStem: 284 50<47 563 563 563>
LayerCount: 2
Fore
SplineSet
104 533 m 1
 302 621 l 1
 334 621 l 1
 334 47 l 1
 505 47 l 1
 505 0 l 1
 110 0 l 1
 110 47 l 1
 284 47 l 1
 284 563 l 1
 124 489 l 1
 104 533 l 1
EndSplineSet
EndChar

StartChar: two
Encoding: 50 50 18
Width: 600
Flags: W
HStem: 0 47<149 425 149 472> 571 50<275 306.5>
VStem: 82 67<47 49 47 53 47 53> 102 52<467 532> 419 54<415 485.5> 425 47<47 146 0 146>
LayerCount: 2
Fore
SplineSet
425 146 m 1xec
 472 146 l 1
 472 0 l 1
 82 0 l 1
 82 53 l 1xe4
 125 90 279 226 360 308 c 0
 408 356 419 392 419 438 c 0
 419 533 332 571 281 571 c 0
 243 571 148 549 154 467 c 1
 102 467 l 1
 102 532 l 1
 176 621 267 621 283 621 c 0
 377 621 473 549 473 436 c 0
 473 393 463 363 439 325 c 0xd8
 407 274 283 156 149 49 c 1
 149 47 l 1
 425 47 l 1
 425 146 l 1xec
EndSplineSet
EndChar

StartChar: three
Encoding: 51 51 19
Width: 600
Flags: W
HStem: -14 47<241 305.5 241 322> 299 47<236 250.5> 330 21G 574 47<239 298.5>
VStem: 384 52<445.5 498> 416 51<124.5 216>
LayerCount: 2
Fore
SplineSet
84 35 m 1xd4
 103 79 l 1
 153 55 213 33 269 33 c 0
 342 33 416 80 416 169 c 0
 416 263 341 288 333 290 c 0xd4
 298 302 268 301 236 299 c 1
 236 346 l 1
 265 346 302 347 332 367 c 0xd8
 365 389 384 426 384 465 c 0
 384 531 332 574 265 574 c 0
 213 574 170 546 139 527 c 2
 121 516 l 1
 96 555 l 1
 151 591 202 621 266 621 c 0
 351 621 436 564 436 466 c 0xb8
 436 377 377 341 359 330 c 1xb4
 401 313 467 264 467 171 c 0
 467 58 378 -14 266 -14 c 0
 205 -14 166 2 84 35 c 1xd4
EndSplineSet
EndChar

StartChar: four
Encoding: 52 52 20
Width: 600
Flags: MW
HStem: 0 47<207 342 390 480 207 342> 146 48<123 342 123 342 390 480> 563 58<340 342 340 340>
VStem: 74 49<194 194 194 204 194 204> 342 48<47 146 47 146 194 563 563 563>
LayerCount: 2
Fore
SplineSet
390 621 m 1
 390 194 l 1
 480 194 l 1
 480 146 l 1
 390 146 l 1
 390 47 l 1
 480 47 l 1
 480 0 l 1
 207 0 l 1
 207 47 l 1
 342 47 l 1
 342 146 l 1
 74 146 l 1
 74 204 l 1
 322 621 l 1
 390 621 l 1
123 194 m 1
 342 194 l 1
 342 563 l 1
 340 563 l 1
 123 194 l 1
EndSplineSet
EndChar

StartChar: five
Encoding: 53 53 21
Width: 600
Flags: MW
HStem: -14 50<243.5 329.5 240 359.5> 337 47<265.5 332> 558 48<171 460 171 171>
VStem: 126 45<356 558 356 606> 435 54<148 226.5>
LayerCount: 2
Fore
SplineSet
126 606 m 1
 460 606 l 1
 460 558 l 1
 171 558 l 1
 171 356 l 1
 202 369 239 384 292 384 c 0
 413 384 489 296 489 188 c 0
 489 108 440 -14 279 -14 c 0
 208 -14 159 4 91 31 c 1
 109 76 l 1
 140 62 205 36 275 36 c 0
 384 36 435 102 435 186 c 0
 435 267 380 337 284 337 c 0
 233 337 192 320 151 289 c 1
 126 303 l 1
 126 606 l 1
EndSplineSet
EndChar

StartChar: six
Encoding: 54 54 22
Width: 600
Flags: MW
HStem: -14 50<277.5 335 277.5 354.5> 320 50<295 341> 571 50<486 486>
VStem: 102 56<154 297> 426 54<131.5 214>
LayerCount: 2
Fore
SplineSet
486 621 m 1
 486 571 l 1
 336 578 188 573 158 297 c 1
 160 295 l 1
 175 315 221 370 305 370 c 0
 410 370 480 277 480 176 c 0
 480 75 406 -14 303 -14 c 0
 222 -14 102 48 102 260 c 0
 102 323 115 538 291 602 c 0
 320 612 369 627 486 621 c 1
158 212 m 1
 166 74 252 36 303 36 c 0
 367 36 426 87 426 176 c 0
 426 252 377 320 305 320 c 0
 285 320 200 316 158 212 c 1
EndSplineSet
EndChar

StartChar: seven
Encoding: 55 55 23
Width: 600
Flags: MW
HStem: 0 21G<236 294 236 236> 559 47<144 438 144 144 95 488>
VStem: 95 49<467 559 467 606 467 606> 438 50<559 606>
LayerCount: 2
Fore
SplineSet
95 606 m 1
 488 606 l 1
 488 559 l 1
 294 0 l 1
 236 0 l 1
 438 559 l 1
 144 559 l 1
 144 467 l 1
 95 467 l 1
 95 606 l 1
EndSplineSet
EndChar

StartChar: eight
Encoding: 56 56 24
Width: 600
Flags: W
HStem: -14 47<260.5 339.5 260.5 365.5> 285 47<261 332.5 261 345.5> 574 47<253.5 330.5>
VStem: 107 54<124.5 187.5 124.5 189.5> 118 54<425.5 480 425.5 502> 428 54<430.5 495.5> 439 54<124.5 183 120.5 188>
LayerCount: 2
Fore
SplineSet
208 309 m 1xec
 181 323 118 372 118 457 c 0
 118 547 197 621 300 621 c 0
 403 621 482 547 482 457 c 0xec
 482 404 454 343 392 309 c 1
 464 277 493 208 493 158 c 0
 493 83 431 -14 300 -14 c 0
 169 -14 107 83 107 158 c 0xf2
 107 221 148 282 208 309 c 1xec
300 574 m 0
 207 574 172 504 172 456 c 0
 172 395 222 332 300 332 c 0
 365 332 428 380 428 456 c 0
 428 535 361 574 300 574 c 0
300 285 m 0xf2
 207 285 161 217 161 158 c 0
 161 91 221 33 300 33 c 0
 379 33 439 91 439 158 c 0
 439 218 391 285 300 285 c 0xf2
EndSplineSet
EndChar

StartChar: nine
Encoding: 57 57 25
Width: 600
Flags: MW
HStem: -14 50<81 81> 237 50<226 272 226 304> 571 50<232 289.5>
VStem: 87 54<393 475.5 393 481.5> 409 56<310 453>
LayerCount: 2
Fore
SplineSet
81 -14 m 1
 81 36 l 1
 231 29 379 34 409 310 c 1
 407 312 l 1
 392 292 346 237 262 237 c 0
 157 237 87 330 87 431 c 0
 87 532 161 621 264 621 c 0
 345 621 465 559 465 347 c 0
 465 284 452 69 276 5 c 0
 247 -5 198 -20 81 -14 c 1
409 395 m 1
 401 533 315 571 264 571 c 0
 200 571 141 520 141 431 c 0
 141 355 190 287 262 287 c 0
 282 287 367 291 409 395 c 1
EndSplineSet
EndChar

StartChar: colon
Encoding: 58 58 26
Width: 600
Flags: W
HStem: -17 136<282.5 318> 254 136<282.5 318>
VStem: 223 154<29.5 72 29.5 72 300.5 343>
LayerCount: 2
Fore
SplineSet
300 390 m 0
 337 390 377 364 377 322 c 0
 377 279 336 254 300 254 c 0
 265 254 223 278 223 322 c 0
 223 364 264 390 300 390 c 0
300 119 m 0xa0
 337 119 377 93 377 51 c 0
 377 8 336 -17 300 -17 c 0
 265 -17 223 7 223 51 c 0
 223 93 264 119 300 119 c 0xa0
EndSplineSet
EndChar

StartChar: semicolon
Encoding: 59 59 27
Width: 600
Flags: MW
HStem: 254 136<282.5 318>
VStem: 223 154<300.5 343 300.5 343>
LayerCount: 2
Fore
SplineSet
258 134 m 1
 361 134 l 1
 252 -108 l 1
 181 -108 l 1
 258 134 l 1
300 390 m 0
 337 390 377 364 377 322 c 0
 377 279 336 254 300 254 c 0
 265 254 223 278 223 322 c 0
 223 364 264 390 300 390 c 0
EndSplineSet
EndChar

StartChar: less
Encoding: 60 60 28
Width: 600
Flags: MW
HStem: 133 21G<546 546>
VStem: 54 492<133 308>
LayerCount: 2
Fore
SplineSet
526 89 m 1
 54 308 l 1
 526 532 l 1
 546 487 l 1
 165 308 l 1
 546 133 l 1
 526 89 l 1
EndSplineSet
EndChar

StartChar: equal
Encoding: 61 61 29
Width: 600
Flags: MW
HStem: 188 50<64 536 64 536> 369 50<64 536 64 536>
VStem: 64 472<188 238 188 238 369 419 188 419>
LayerCount: 2
Fore
SplineSet
64 419 m 1
 536 419 l 1
 536 369 l 1
 64 369 l 1
 64 419 l 1
64 238 m 1
 536 238 l 1
 536 188 l 1
 64 188 l 1
 64 238 l 1
EndSplineSet
EndChar

StartChar: greater
Encoding: 62 62 30
Width: 600
Flags: MW
HStem: 129 21G<54 54>
VStem: 54 492<129 308 308 483>
LayerCount: 2
Fore
SplineSet
74 527 m 1
 546 308 l 1
 74 84 l 1
 54 129 l 1
 435 308 l 1
 54 483 l 1
 74 527 l 1
EndSplineSet
EndChar

StartChar: question
Encoding: 63 63 31
Width: 600
Flags: W
HStem: -17 123<247.5 284.5> 238 21G<293 293> 523 49<258.5 339>
VStem: 120 50<435 499 435 537 435 537> 197 138<27 62> 244 49<178 238 178 275 178 275> 422 52<365 431.5>
LayerCount: 2
Fore
SplineSet
120 435 m 1xf6
 120 537 l 1
 190 561 225 572 282 572 c 0
 409 572 474 492 474 408 c 0
 474 291 360 256 293 238 c 1
 293 178 l 1
 244 178 l 1
 244 275 l 2
 247 276 257 279 264 280 c 0
 331 297 422 319 422 411 c 0
 422 452 395 523 283 523 c 0
 234 523 203 512 170 499 c 1
 170 435 l 1
 120 435 l 1xf6
266 106 m 0x88
 305 106 335 79 335 45 c 0
 335 9 303 -17 266 -17 c 0
 229 -17 197 9 197 45 c 0
 197 79 228 106 266 106 c 0x88
EndSplineSet
EndChar

StartChar: at
Encoding: 64 64 32
Width: 600
Flags: MW
HStem: -14 47<214.5 331> 106 47<413 453> 354 50<288 320> 499 47<227.5 365.5>
VStem: 32 52<206 318.5 206 339.5> 170 51<192 231 192 249.5> 343 39<154 200.5> 519 48<262 368.5>
LayerCount: 2
Fore
SplineSet
512 99 m 2
 533 57 l 1
 532 57 528 54 527 54 c 0
 461 15 374 -14 288 -14 c 0
 113 -14 32 118 32 260 c 0
 32 419 132 546 309 546 c 0
 455 546 567 455 567 297 c 0
 567 184 507 106 422 106 c 0
 395 106 391 110 354 137 c 0
 343 145 343 151 343 157 c 1
 327 139 297 104 248 104 c 0
 223 104 170 124 170 205 c 0
 170 294 235 404 317 404 c 0
 350 404 365 379 374 364 c 1
 383 399 l 1
 435 399 l 1
 392 243 l 2
 391 239 382 208 382 193 c 0
 382 178 398 153 428 153 c 0
 478 153 519 221 519 303 c 0
 519 434 424 499 307 499 c 0
 148 499 84 378 84 259 c 0
 84 153 138 33 291 33 c 0
 375 33 443 63 490 88 c 2
 505 96 l 2
 506 96 511 99 512 99 c 2
253 153 m 0
 303 153 347 245 347 304 c 0
 347 335 329 354 311 354 c 0
 265 354 221 261 221 201 c 0
 221 183 229 153 253 153 c 0
EndSplineSet
EndChar

StartChar: A
Encoding: 65 65 33
Width: 600
Flags: W
HStem: 0 47<10 63 113 215 10 63 385 487 539 590> 186 44<187 413 187 430 169 413> 516 47<113 256 113 328>
VStem: 10 205<0 47 0 47> 10 580<0 47 0 47> 385 205<0 47 0 47>
LayerCount: 2
Fore
SplineSet
113 563 m 1xe8
 328 563 l 1
 539 47 l 1
 590 47 l 1
 590 0 l 1
 385 0 l 1
 385 47 l 1
 487 47 l 1
 430 186 l 1
 169 186 l 1
 113 47 l 1
 215 47 l 1
 215 0 l 1
 10 0 l 1
 10 47 l 1
 63 47 l 1xf4
 256 516 l 1
 113 516 l 1
 113 563 l 1xe8
413 230 m 1
 300 504 l 1
 187 230 l 1
 413 230 l 1
EndSplineSet
EndChar

StartChar: B
Encoding: 66 66 34
Width: 600
Flags: W
HStem: 0 47<45 128 178 307 307 309 45 128> 269 47<178 303 178 311> 516 47<45 128 45 318 178 178 178 316>
VStem: 128 50<47 269 316 516> 457 52<404.5 439.5 381.5 468> 492 52<126.5 190 126.5 195.5>
LayerCount: 2
Fore
SplineSet
45 563 m 1xf4
 318 563 l 2
 396 563 434 546 462 521 c 0
 490 496 509 461 509 418 c 0xf8
 509 345 457 308 430 294 c 1
 500 273 544 226 544 154 c 0
 544 99 515 50 473 28 c 0
 430 5 399 0 309 0 c 2
 45 0 l 1
 45 47 l 1
 128 47 l 1
 128 516 l 1
 45 516 l 1
 45 563 l 1xf4
316 516 m 2
 178 516 l 1
 178 316 l 1
 311 316 l 2
 443 316 457 389 457 420 c 0
 457 516 338 516 316 516 c 2
303 269 m 2
 178 269 l 1
 178 47 l 1
 307 47 l 2
 378 47 492 47 492 154 c 0xf4
 492 237 411 269 303 269 c 2
EndSplineSet
EndChar

StartChar: C
Encoding: 67 67 35
Width: 600
Flags: W
HStem: -17 50<248.5 354.5> 530 50<264.5 366.5> 554 20G<492 529 529 529>
VStem: 64 54<239 355 239 375> 492 37<574 574>
LayerCount: 2
Fore
SplineSet
561 135 m 1xd8
 594 99 l 1
 482 -8 375 -17 334 -17 c 0
 158 -17 64 125 64 288 c 0
 64 462 180 580 332 580 c 0
 412 580 452 544 460 537 c 0
 473 526 475 526 477 526 c 0xd8
 486 526 490 556 492 574 c 1
 529 574 l 1xb8
 526 492 532 436 539 383 c 1
 492 375 l 1
 488 398 482 437 459 471 c 0
 440 499 403 530 330 530 c 0
 199 530 118 421 118 289 c 0
 118 189 163 33 334 33 c 0
 425 33 496 78 561 135 c 1xd8
EndSplineSet
EndChar

StartChar: D
Encoding: 68 68 36
Width: 600
Flags: MW
HStem: 0 47<34 113 163 280 34 113> 516 47<34 113 34 284 163 163 163 284 284 285>
VStem: 113 50<47 516 47 516> 497 54<243 309.5 233 330>
LayerCount: 2
Fore
SplineSet
34 563 m 1
 284 563 l 2
 371 563 434 556 489 488 c 0
 548 415 551 327 551 292 c 0
 551 174 511 99 468 58 c 0
 407 0 318 0 280 0 c 2
 34 0 l 1
 34 47 l 1
 113 47 l 1
 113 516 l 1
 34 516 l 1
 34 563 l 1
285 516 m 2
 163 516 l 1
 163 47 l 1
 280 47 l 2
 314 47 382 47 430 94 c 0
 466 130 497 197 497 289 c 0
 497 371 471 422 450 451 c 0
 408 509 361 516 285 516 c 2
EndSplineSet
EndChar

StartChar: E
Encoding: 69 69 37
Width: 600
Flags: W
HStem: 0 47<57 142 192 490 57 142> 274 47<192 354 192 354> 516 47<57 142 57 532 192 480 192 192>
VStem: 142 50<47 274 321 516> 354 46<202 274 274 274 321 394 202 394> 485 49 492.5 48.5
LayerCount: 2
Fore
SplineSet
57 563 m 1xfa
 532 563 l 1
 536 379 l 1
 490 379 l 1
 480 516 l 1xfc
 192 516 l 1
 192 321 l 1
 354 321 l 1
 354 394 l 1
 400 394 l 1
 400 202 l 1
 354 202 l 1
 354 274 l 1
 192 274 l 1
 192 47 l 1
 490 47 l 1
 495 184 l 1
 541 184 l 1
 541 0 l 1
 57 0 l 1
 57 47 l 1
 142 47 l 1
 142 516 l 1
 57 516 l 1
 57 563 l 1xfa
EndSplineSet
EndChar

StartChar: F
Encoding: 70 70 38
Width: 600
Flags: MW
HStem: 0 47<72 153 203 333 72 153> 274 47<203 365 203 365> 516 47<72 153 72 541 203 489 203 203>
VStem: 153 50<47 274 321 516> 365 46<202 274 274 274 321 394 202 394> 495 48.5
LayerCount: 2
Fore
SplineSet
72 563 m 1
 541 563 l 1
 546 383 l 1
 501 383 l 1
 489 516 l 1
 203 516 l 1
 203 321 l 1
 365 321 l 1
 365 394 l 1
 411 394 l 1
 411 202 l 1
 365 202 l 1
 365 274 l 1
 203 274 l 1
 203 47 l 1
 333 47 l 1
 333 0 l 1
 72 0 l 1
 72 47 l 1
 153 47 l 1
 153 516 l 1
 72 516 l 1
 72 563 l 1
EndSplineSet
EndChar

StartChar: G
Encoding: 71 71 39
Width: 600
Flags: W
HStem: -17 50<250 342.5 250 354.5> 200 47<331 479 331 578 530 530 530 578> 530 50<253.5 338 228.5 382.5> 554 20G<474 522 522 522>
VStem: 48 54<213 354 211.5 356> 474 46<555 574> 479 37 479 51<65 200 32 200>
LayerCount: 2
Fore
SplineSet
474 574 m 1xfd
 522 574 l 1
 521 570 520 558 520 555 c 0
 519 544 516 500 516 474 c 0
 516 441 519 407 522 383 c 1xdc
 479 375 l 1xea
 472 420 453 530 312 530 c 0
 195 530 102 428 102 280 c 0
 102 143 174 33 326 33 c 0
 359 33 401 38 479 65 c 1
 479 200 l 1
 331 200 l 1
 331 247 l 1
 578 247 l 1
 578 200 l 1
 530 200 l 1
 530 32 l 1xe9
 452 -1 384 -17 325 -17 c 0
 120 -17 48 147 48 279 c 0
 48 433 143 580 314 580 c 0
 362 580 401 568 439 537 c 0
 450 527 454 525 459 525 c 0xec
 469 525 469 530 474 574 c 1xfd
EndSplineSet
EndChar

StartChar: H
Encoding: 72 72 40
Width: 600
Flags: MW
HStem: 0 47<39 114 164 239 39 114 361 436 486 562> 267 47<164 436 164 436> 516 47<39 114 39 239 164 239 164 164 361 436 486 486 486 562>
VStem: 114 50<47 267 314 516> 436 50<47 267 267 267 314 516 47 516>
LayerCount: 2
Fore
SplineSet
39 563 m 1
 239 563 l 1
 239 516 l 1
 164 516 l 1
 164 314 l 1
 436 314 l 1
 436 516 l 1
 361 516 l 1
 361 563 l 1
 562 563 l 1
 562 516 l 1
 486 516 l 1
 486 47 l 1
 562 47 l 1
 562 0 l 1
 361 0 l 1
 361 47 l 1
 436 47 l 1
 436 267 l 1
 164 267 l 1
 164 47 l 1
 239 47 l 1
 239 0 l 1
 39 0 l 1
 39 47 l 1
 114 47 l 1
 114 516 l 1
 39 516 l 1
 39 563 l 1
EndSplineSet
EndChar

StartChar: I
Encoding: 73 73 41
Width: 600
Flags: MW
HStem: 0 47<100 275 325 500 100 275> 516 47<100 275 100 500 325 500 325 325>
VStem: 275 50<47 516 47 516>
LayerCount: 2
Fore
SplineSet
100 563 m 1
 500 563 l 1
 500 516 l 1
 325 516 l 1
 325 47 l 1
 500 47 l 1
 500 0 l 1
 100 0 l 1
 100 47 l 1
 275 47 l 1
 275 516 l 1
 100 516 l 1
 100 563 l 1
EndSplineSet
EndChar

StartChar: J
Encoding: 74 74 42
Width: 600
Flags: MW
HStem: -17 50<260 309.5> 516 47<205 402 205 579 452 579 452 452>
VStem: 63.5 46.5 402 50<204 516>
LayerCount: 2
Fore
SplineSet
205 563 m 1
 579 563 l 1
 579 516 l 1
 452 516 l 1
 452 204 l 2
 452 149 450 88 423 47 c 0
 391 1 331 -17 288 -17 c 0
 209 -17 141 14 87 39 c 2
 68 47 l 1
 59 263 l 1
 108 263 l 1
 112 166 l 2
 114 115 119 88 159 64 c 0
 197 40 243 33 277 33 c 0
 401 33 402 123 402 204 c 2
 402 516 l 1
 205 516 l 1
 205 563 l 1
EndSplineSet
EndChar

StartChar: K
Encoding: 75 75 43
Width: 600
Flags: MW
HStem: 0 47<60 144 194 279 60 144 496 588> 516 47<60 144 60 279 194 279 194 194 364 446 514 514 514 559>
VStem: 144 50<47 205 271 516> 364 195<516 563 516 563>
LayerCount: 2
Fore
SplineSet
60 563 m 1
 279 563 l 1
 279 516 l 1
 194 516 l 1
 194 271 l 1
 446 516 l 1
 364 516 l 1
 364 563 l 1
 559 563 l 1
 559 516 l 1
 514 516 l 1
 297 305 l 1
 349 279 417 228 496 47 c 1
 588 47 l 1
 588 0 l 1
 460 0 l 1
 440 55 408 111 395 135 c 0
 356 201 321 242 263 271 c 1
 194 205 l 1
 194 47 l 1
 279 47 l 1
 279 0 l 1
 60 0 l 1
 60 47 l 1
 144 47 l 1
 144 516 l 1
 60 516 l 1
 60 563 l 1
EndSplineSet
EndChar

StartChar: L
Encoding: 76 76 44
Width: 600
Flags: MW
HStem: 0 47<59 159 209 492 59 159> 516 47<59 159 59 332 209 332 209 209>
VStem: 159 50<47 516 47 516> 499 48.5
LayerCount: 2
Fore
SplineSet
59 563 m 1
 332 563 l 1
 332 516 l 1
 209 516 l 1
 209 47 l 1
 492 47 l 1
 506 249 l 1
 553 249 l 1
 542 0 l 1
 59 0 l 1
 59 47 l 1
 159 47 l 1
 159 516 l 1
 59 516 l 1
 59 563 l 1
EndSplineSet
EndChar

StartChar: M
Encoding: 77 77 45
Width: 600
Flags: MW
HStem: 0 47<1 62 106 213 1 62 387 494 538 599> 144 80<289 307 289 321 269 307> 516 47<8 79 8 175 121 139 121 121 461 479 461 461 521 592 521 521>
VStem: 70.5 43 486.5 43
LayerCount: 2
Fore
SplineSet
8 563 m 1
 175 563 l 1
 289 224 l 1
 307 224 l 1
 431 563 l 1
 592 563 l 1
 592 516 l 1
 521 516 l 1
 538 47 l 1
 599 47 l 1
 599 0 l 1
 387 0 l 1
 387 47 l 1
 494 47 l 1
 479 516 l 1
 461 516 l 1
 321 144 l 1
 269 144 l 1
 139 516 l 1
 121 516 l 1
 106 47 l 1
 213 47 l 1
 213 0 l 1
 1 0 l 1
 1 47 l 1
 62 47 l 1
 79 516 l 1
 8 516 l 1
 8 563 l 1
EndSplineSet
EndChar

StartChar: N
Encoding: 78 78 46
Width: 600
Flags: W
HStem: -13 55<462 480 462 526 437 480> 0 47<28 106 152 265 28 106> 516 47<28 106 28 199 152 169 152 152 368 480 526 526 526 591>
VStem: 106 46<47 516 47 516> 480 46<42 516 -13 516>
LayerCount: 2
Fore
SplineSet
28 563 m 1x78
 199 563 l 1
 462 42 l 1
 480 42 l 1
 480 516 l 1
 368 516 l 1
 368 563 l 1
 591 563 l 1
 591 516 l 1
 526 516 l 1
 526 -13 l 1
 437 -13 l 1xb8
 169 516 l 1
 152 516 l 1
 152 47 l 1
 265 47 l 1
 265 0 l 1
 28 0 l 1
 28 47 l 1
 106 47 l 1
 106 516 l 1
 28 516 l 1
 28 563 l 1x78
EndSplineSet
EndChar

StartChar: O
Encoding: 79 79 47
Width: 600
Flags: MW
HStem: -17 50<233 366 233 379.5> 530 50<231 365>
VStem: 43 54<222.5 340 222.5 363.5> 503 54<220 345>
LayerCount: 2
Fore
SplineSet
43 281 m 0
 43 446 143 580 300 580 c 0
 460 580 557 443 557 281 c 0
 557 120 459 -17 300 -17 c 0
 143 -17 43 117 43 281 c 0
97 282 m 0
 97 163 166 33 300 33 c 0
 432 33 503 158 503 282 c 0
 503 408 430 530 300 530 c 0
 162 530 97 398 97 282 c 0
EndSplineSet
EndChar

StartChar: P
Encoding: 80 80 48
Width: 600
Flags: MW
HStem: 0 47<71 152 202 349 71 152> 221 47<202 258 202 259> 516 47<71 152 71 300 202 202 202 300>
VStem: 152 50<47 221 47 268 268 516> 480 54<366 418>
LayerCount: 2
Fore
SplineSet
71 563 m 1
 300 563 l 2
 371 563 412 557 448 537 c 0
 499 509 534 449 534 388 c 0
 534 333 504 275 461 251 c 0
 412 223 378 221 258 221 c 2
 202 221 l 1
 202 47 l 1
 349 47 l 1
 349 0 l 1
 71 0 l 1
 71 47 l 1
 152 47 l 1
 152 516 l 1
 71 516 l 1
 71 563 l 1
300 516 m 2
 202 516 l 1
 202 268 l 1
 259 268 l 2
 340 268 403 267 438 295 c 0
 456 309 480 342 480 390 c 0
 480 446 447 482 420 496 c 0
 396 509 371 516 300 516 c 2
EndSplineSet
EndChar

StartChar: Q
Encoding: 81 81 49
Width: 600
Flags: W
HStem: -128 50<433.5 458.5 433.5 469> -84 47<279.5 295.5> -17 50 -7 21G 530 50<232 365>
VStem: 43 54<222.5 340 222.5 376> 503 54<220 345>
LayerCount: 2
Fore
SplineSet
516 -52 m 1xae
 547 -88 l 1
 524 -104 492 -128 446 -128 c 0xae
 415 -128 395 -119 361 -104 c 0
 327 -89 308 -84 283 -84 c 0
 239 -84 212 -99 165 -125 c 1
 142 -88 l 1x6e
 190 -57 223 -13 227 -7 c 1x9e
 114 28 43 143 43 281 c 0
 43 471 165 580 299 580 c 0
 443 580 557 461 557 277 c 0
 557 142 490 -20 283 -17 c 1xae
 278 -24 277 -23 267 -34 c 0
 266 -36 264 -38 265 -36 c 1
 263 -36 l 1
 263 -38 l 1
 269 -38 274 -37 285 -37 c 0x6e
 309 -37 339 -43 373 -57 c 0
 420 -76 425 -78 442 -78 c 0
 475 -78 498 -64 516 -52 c 1xae
97 282 m 0
 97 163 166 33 300 33 c 0
 432 33 503 158 503 282 c 0
 503 408 430 530 300 530 c 0
 162 530 97 398 97 282 c 0
EndSplineSet
EndChar

StartChar: R
Encoding: 82 82 50
Width: 600
Flags: MW
HStem: 0 47<45 127 177 266 45 127 489 577> 258 47<177 249 177 270> 516 47<45 127 45 302 177 177 177 300>
VStem: 127 50<47 258 47 305 305 516> 445 54<382.5 431.5>
LayerCount: 2
Fore
SplineSet
45 563 m 1
 302 563 l 2
 366 563 403 560 438 536 c 0
 473 512 499 461 499 412 c 0
 499 353 462 271 346 259 c 1
 382 225 450 112 489 47 c 1
 577 47 l 1
 577 0 l 1
 452 0 l 1
 421 67 370 149 356 171 c 0
 317 232 301 258 249 258 c 2
 177 258 l 1
 177 47 l 1
 266 47 l 1
 266 0 l 1
 45 0 l 1
 45 47 l 1
 127 47 l 1
 127 516 l 1
 45 516 l 1
 45 563 l 1
300 516 m 2
 177 516 l 1
 177 305 l 1
 270 305 l 2
 323 305 445 303 445 415 c 0
 445 448 429 481 403 499 c 0
 388 509 372 516 300 516 c 2
EndSplineSet
EndChar

StartChar: S
Encoding: 83 83 51
Width: 600
Flags: W
HStem: -20 21G<99 144 99 99> -17 50<268 357> 530 50<251.5 334 241 343.5> 554 20G<462 507 507 507>
VStem: 99 54<366.5 437 366.5 453.5> 459 54<124 181.5 95 192.5> 462 36
LayerCount: 2
Fore
SplineSet
462 574 m 1x7e
 507 574 l 1
 500 544 498 527 498 502 c 0x5a
 498 480 500 440 507 383 c 1
 462 375 l 1
 459 396 453 435 431 469 c 0x6a
 416 492 383 530 304 530 c 0
 199 530 153 462 153 412 c 0
 153 321 256 310 305 305 c 0
 380 297 416 292 451 269 c 0
 485 246 513 210 513 153 c 0
 513 37 406 -17 308 -17 c 0
 228 -17 189 14 171 29 c 0
 170 30 166 33 163 33 c 0
 159 33 155 28 153 25 c 0x6c
 150 16 149 13 144 -20 c 1
 99 -20 l 1
 108 23 108 65 108 69 c 0xac
 108 90 102 147 99 175 c 1
 144 175 l 1
 149 150 156 115 178 86 c 0
 197 61 228 33 301 33 c 0
 423 33 459 99 459 149 c 0x6c
 459 236 372 247 320 252 c 0
 242 260 99 275 99 408 c 0
 99 499 184 580 298 580 c 0
 370 580 408 550 422 539 c 0
 438 527 441 525 445 525 c 0
 454 525 454 529 460 561 c 0x6a
 461 565 462 572 462 574 c 1x7e
EndSplineSet
EndChar

StartChar: T
Encoding: 84 84 52
Width: 600
Flags: MW
HStem: 0 47<154 275 325 446 154 275> 516 47<105 275 105 105 325 495 325 325>
VStem: 51.5 46.5 275 50<47 516 47 516> 502 46.5
LayerCount: 2
Fore
SplineSet
60 563 m 1
 540 563 l 1
 557 327 l 1
 509 321 l 1
 495 516 l 1
 325 516 l 1
 325 47 l 1
 446 47 l 1
 446 0 l 1
 154 0 l 1
 154 47 l 1
 275 47 l 1
 275 516 l 1
 105 516 l 1
 91 321 l 1
 43 327 l 1
 60 563 l 1
EndSplineSet
EndChar

StartChar: U
Encoding: 85 85 53
Width: 600
Flags: MW
HStem: -17 50<276.5 338 260.5 344.5> 516 47<24 96 24 248 146 248 146 146 353 455 505 505 505 577>
VStem: 96 50<234 516> 455 50<224 516>
LayerCount: 2
Fore
SplineSet
24 563 m 1
 248 563 l 1
 248 516 l 1
 146 516 l 1
 146 234 l 2
 146 193 146 143 165 104 c 0
 184 64 222 33 299 33 c 0
 377 33 416 59 435 96 c 0
 455 132 455 179 455 224 c 2
 455 516 l 1
 353 516 l 1
 353 563 l 1
 577 563 l 1
 577 516 l 1
 505 516 l 1
 505 224 l 2
 505 124 490 85 469 56 c 0
 447 25 389 -17 300 -17 c 0
 253 -17 175 -3 130 61 c 0
 96 110 96 188 96 234 c 2
 96 516 l 1
 24 516 l 1
 24 563 l 1
EndSplineSet
EndChar

StartChar: V
Encoding: 86 86 54
Width: 600
Flags: W
HStem: 0 21G<271 333 271 271> 0 56<303 303 303 333 271 303> 516 47<6 75 6 220 126 220 126 126 381 483 531 531 531 594>
VStem: 6 214<516 563 516 563> 6 588<516 563 516 563> 381 213<516 563 516 563>
LayerCount: 2
Fore
SplineSet
6 563 m 1xbc
 220 563 l 1
 220 516 l 1
 126 516 l 1
 303 56 l 1x70
 483 516 l 1
 381 516 l 1
 381 563 l 1
 594 563 l 1
 594 516 l 1
 531 516 l 1
 333 0 l 1
 271 0 l 1
 75 516 l 1
 6 516 l 1
 6 563 l 1xbc
EndSplineSet
EndChar

StartChar: W
Encoding: 87 87 55
Width: 600
Flags: W
HStem: 0 21G<119 169 119 119 427 477 427 427> 0 96<154 156 154 169 119 156 445 447> 516 47<2 49 2 199 98 199 98 98 403 505 552 552 552 598>
VStem: 2 197<516 563 516 563> 403 195<516 563 516 563>
LayerCount: 2
Fore
SplineSet
2 563 m 1xb8
 199 563 l 1
 199 516 l 1
 98 516 l 1
 154 96 l 1
 156 96 l 1
 285 460 l 1
 319 460 l 1
 445 96 l 1
 447 96 l 1x78
 505 516 l 1
 403 516 l 1
 403 563 l 1
 598 563 l 1
 598 516 l 1
 552 516 l 1
 477 0 l 1
 427 0 l 1
 300 364 l 1
 298 364 l 1
 169 0 l 1
 119 0 l 1
 49 516 l 1
 2 516 l 1
 2 563 l 1xb8
EndSplineSet
EndChar

StartChar: X
Encoding: 88 88 56
Width: 600
Flags: W
HStem: 0 47<33 84 140 246 33 84 365 455 515 567> 516 47<52 105 52 246 164 246 164 164 365 441 497 497 497 548>
VStem: 33 213<0 47 0 47> 52 194<516 563> 365 183<516 563 516 563> 365 202<0 47 0 47>
LayerCount: 2
Fore
SplineSet
52 563 m 1xd8
 246 563 l 1
 246 516 l 1
 164 516 l 1
 301 333 l 1
 441 516 l 1
 365 516 l 1
 365 563 l 1
 548 563 l 1
 548 516 l 1
 497 516 l 1xd8
 329 296 l 1
 515 47 l 1
 567 47 l 1
 567 0 l 1
 365 0 l 1
 365 47 l 1
 455 47 l 1
 301 259 l 1
 140 47 l 1
 246 47 l 1
 246 0 l 1
 33 0 l 1
 33 47 l 1
 84 47 l 1xe4
 273 296 l 1
 105 516 l 1
 52 516 l 1
 52 563 l 1xd8
EndSplineSet
EndChar

StartChar: Y
Encoding: 89 89 57
Width: 600
Flags: MW
HStem: 0 47<157 276 326 444 157 276> 516 47<32 95 32 228 152 228 152 152 374 452 505 505 505 568>
VStem: 32 196<516 563 516 563> 276 50<47 218 47 218> 374 194<516 563 516 563>
LayerCount: 2
Fore
SplineSet
32 563 m 1
 228 563 l 1
 228 516 l 1
 152 516 l 1
 303 268 l 1
 452 516 l 1
 374 516 l 1
 374 563 l 1
 568 563 l 1
 568 516 l 1
 505 516 l 1
 326 218 l 1
 326 47 l 1
 444 47 l 1
 444 0 l 1
 157 0 l 1
 157 47 l 1
 276 47 l 1
 276 218 l 1
 95 516 l 1
 32 516 l 1
 32 563 l 1
EndSplineSet
EndChar

StartChar: Z
Encoding: 90 90 58
Width: 600
Flags: MW
HStem: 0 47<144 469 84 84> 516 47<138 429 138 138>
VStem: 91 47<370 516 370 563> 469 47<47 209 0 209>
LayerCount: 2
Fore
SplineSet
91 563 m 1
 493 563 l 1
 493 522 l 1
 144 47 l 1
 469 47 l 1
 469 209 l 1
 516 209 l 1
 516 0 l 1
 84 0 l 1
 84 47 l 1
 429 516 l 1
 138 516 l 1
 138 370 l 1
 91 370 l 1
 91 563 l 1
EndSplineSet
EndChar

StartChar: bracketleft
Encoding: 91 91 59
Width: 600
Flags: MW
HStem: -94 50<359 485 359 485> 604 50<359 485 359 359>
VStem: 309 50<-44 604 -44 654>
LayerCount: 2
Fore
SplineSet
309 654 m 1
 485 654 l 1
 485 604 l 1
 359 604 l 1
 359 -44 l 1
 485 -44 l 1
 485 -94 l 1
 309 -94 l 1
 309 654 l 1
EndSplineSet
EndChar

StartChar: backslash
Encoding: 92 92 60
Width: 600
Flags: MW
HStem: -139 844<136 468>
VStem: 93 418
LayerCount: 2
Fore
SplineSet
136 705 m 1
 511 -119 l 1
 468 -139 l 1
 93 686 l 1
 136 705 l 1
EndSplineSet
EndChar

StartChar: bracketright
Encoding: 93 93 61
Width: 600
Flags: MW
HStem: -94 50<115 241 115 291 115 241> 604 50<115 241 115 291>
VStem: 241 50<-44 604 604 604>
LayerCount: 2
Fore
SplineSet
291 -94 m 1
 115 -94 l 1
 115 -44 l 1
 241 -44 l 1
 241 604 l 1
 115 604 l 1
 115 654 l 1
 291 654 l 1
 291 -94 l 1
EndSplineSet
EndChar

StartChar: asciicircum
Encoding: 94 94 62
Width: 600
Flags: W
HStem: 154 21G<73 137 73 73 463 463 463 527> 503 60<300 300> 543 20G<263 337 337 337>
VStem: 73 454<154 154>
LayerCount: 2
Fore
SplineSet
300 503 m 1xf0
 137 154 l 1
 73 154 l 1
 263 563 l 1
 337 563 l 1
 527 154 l 1
 463 154 l 1
 300 503 l 1xf0
EndSplineSet
EndChar

StartChar: underscore
Encoding: 95 95 63
Width: 600
Flags: MW
HStem: -125 50<-48 648 -48 648>
VStem: -48 696<-125 -75 -125 -75>
LayerCount: 2
Fore
SplineSet
-48 -75 m 1
 648 -75 l 1
 648 -125 l 1
 -48 -125 l 1
 -48 -75 l 1
EndSplineSet
EndChar

StartChar: quoteleft
Encoding: 96 8216 64
Width: 600
Flags: W
HStem: 320 243<176 355 176 355> 543 20G<284 355 355 355>
VStem: 176 179
LayerCount: 2
Fore
SplineSet
279 320 m 1xe0
 176 320 l 1
 284 563 l 1
 355 563 l 1
 279 320 l 1xe0
EndSplineSet
EndChar

StartChar: a
Encoding: 97 97 65
Width: 600
Flags: W
HStem: -14 48<191 235.5 191 261> 0 47<461 550 461 550> 230 48<198.5 275.5 188 308.5> 402 48<272 350.5>
VStem: 59 54<101 132 101 154> 411 50<47 72 72 72 139 219 219 219 265 296 47 312>
LayerCount: 2
Fore
SplineSet
461 296 m 2x7c
 461 47 l 1
 550 47 l 1
 550 0 l 1
 411 0 l 1x7c
 411 72 l 1
 370 34 302 -14 220 -14 c 0xbc
 121 -14 59 58 59 127 c 0
 59 181 105 278 271 278 c 0
 280 278 350 277 411 265 c 1
 411 296 l 2
 411 328 411 402 290 402 c 0
 254 402 199 395 119 360 c 1
 100 405 l 1
 143 423 212 450 291 450 c 0
 461 450 461 335 461 296 c 2x7c
411 139 m 1
 411 219 l 1
 388 223 336 230 281 230 c 0
 116 230 113 138 113 126 c 0
 113 76 163 34 219 34 c 0xbc
 252 34 325 43 411 139 c 1
EndSplineSet
EndChar

StartChar: b
Encoding: 98 98 66
Width: 600
Flags: W
HStem: -10 50<273 372.5 273 389> 0 47<17 97 17 147 17 97> 384 50<283.5 370.5> 575.5 53.5 600 20G<5 5>
VStem: 97 50<47 77 346 578 578 578> 490 54<166.5 258>
LayerCount: 2
Fore
SplineSet
5 620 m 1x7e
 147 629 l 1
 147 346 l 1
 149 346 l 1
 190 400 247 434 320 434 c 0
 443 434 544 335 544 211 c 0
 544 100 454 -10 324 -10 c 0
 218 -10 170 50 147 77 c 1xb6
 147 0 l 1
 17 0 l 1
 17 47 l 1
 97 47 l 1
 97 578 l 1
 5 573 l 1x76
 5 620 l 1x7e
148 213 m 0
 148 120 223 40 323 40 c 0
 422 40 490 121 490 212 c 0
 490 304 419 384 322 384 c 0
 224 384 148 304 148 213 c 0
EndSplineSet
EndChar

StartChar: c
Encoding: 99 99 67
Width: 600
Flags: W
HStem: -14 50<245.5 346 245.5 361.5> 395 50<250.5 329 228.5 379.5> 418 20G<523 523>
VStem: 71 54<175.5 260 175.5 269.5> 469 45
LayerCount: 2
Fore
SplineSet
477 443 m 1xd8
 523 438 l 1
 520 418 514 381 514 346 c 0xb8
 514 327 515 306 517 280 c 1
 471 273 l 1
 467 290 l 2
 460 319 444 395 315 395 c 0
 186 395 125 303 125 217 c 0
 125 134 180 36 311 36 c 0
 381 36 450 70 523 121 c 1
 549 83 l 1
 506 51 417 -14 306 -14 c 0
 166 -14 71 89 71 216 c 0
 71 323 147 445 310 445 c 0
 348 445 399 440 457 392 c 0
 458 391 460 389 461 389 c 0
 466 389 470 405 471 411 c 0
 472 419 474 430 477 443 c 1xd8
EndSplineSet
EndChar

StartChar: d
Encoding: 100 100 68
Width: 600
Flags: W
HStem: -10 50<230 284.5> 0 47<496 581 496 581> 384 50<231 303.5 219 330.5> 607 20G<496 496>
VStem: 53 54<162 264.5 162 279.5> 446 50<47 74 74 74 348 573 573 573>
LayerCount: 2
Fore
SplineSet
282 608 m 1x7c
 496 627 l 1
 496 47 l 1
 581 47 l 1
 581 0 l 1
 446 0 l 1x7c
 446 74 l 1
 444 74 l 1
 382 -10 294 -10 275 -10 c 0xbc
 150 -10 53 92 53 212 c 0
 53 347 165 434 273 434 c 0
 334 434 407 403 444 348 c 1
 446 348 l 1
 446 573 l 1
 285 563 l 1
 282 608 l 1x7c
444 210 m 0
 444 289 386 384 275 384 c 0
 187 384 107 316 107 213 c 0
 107 111 185 40 275 40 c 0xbc
 366 40 444 112 444 210 c 0
EndSplineSet
EndChar

StartChar: e
Encoding: 101 101 69
Width: 600
Flags: MW
HStem: -14 48<241 360 241 363.5> 201 47<128 484 128 536 128 484> 397 48<245 371>
VStem: 74 54<201 201 201 248 201 276> 484 54<248 248>
LayerCount: 2
Fore
SplineSet
536 101 m 1
 559 57 l 1
 507 28 410 -14 317 -14 c 0
 154 -14 74 96 74 214 c 0
 74 338 164 445 311 445 c 0
 462 445 538 338 538 246 c 0
 538 230 536 208 536 201 c 1
 128 201 l 1
 131 149 164 34 318 34 c 0
 402 34 494 80 536 101 c 1
128 248 m 1
 484 248 l 1
 483 313 431 397 311 397 c 0
 179 397 135 293 128 248 c 1
EndSplineSet
EndChar

StartChar: f
Encoding: 102 102 70
Width: 600
Flags: W
HStem: 0 47<97 201 251 464 97 201> 371 47<97 201 97 201 251 464> 575 50<298 366.5> 589 20G<506 506>
VStem: 201 50<47 371 47 371 418 471>
LayerCount: 2
Fore
SplineSet
97 418 m 1xe8
 201 418 l 1
 201 474 l 2
 201 556 214 625 358 625 c 0xe8
 412 625 463 617 506 609 c 1xd8
 485 559 l 1
 441 570 388 575 345 575 c 0
 251 575 251 525 251 471 c 2
 251 418 l 1
 464 418 l 1
 464 371 l 1
 251 371 l 1
 251 47 l 1
 464 47 l 1
 464 0 l 1
 97 0 l 1
 97 47 l 1
 201 47 l 1
 201 371 l 1
 97 371 l 1
 97 418 l 1xe8
EndSplineSet
EndChar

StartChar: g
Encoding: 103 103 71
Width: 600
Flags: W
HStem: -157 47<180 243 180 263.5> 10 50<218.5 305.5> 383 47<472 553 472 472> 384 50<221.5 266.5 205.5 305>
VStem: 47 54<177.5 270.5 177.5 283.5> 422 50<30 88 88 88 178.5 269.5 357 383>
LayerCount: 2
Fore
SplineSet
422 430 m 1xec
 553 430 l 1
 553 383 l 1
 472 383 l 1xec
 472 30 l 2
 472 -92 422 -157 243 -157 c 2
 180 -157 l 1
 180 -110 l 1
 347 -110 422 -107 422 30 c 2
 422 88 l 1
 420 88 l 1
 407 67 350 10 261 10 c 0
 139 10 47 109 47 222 c 0
 47 345 150 434 261 434 c 0
 272 434 364 434 420 357 c 1
 422 357 l 1xdc
 422 430 l 1xec
422 220 m 0xdc
 422 319 347 384 263 384 c 0
 180 384 101 318 101 223 c 0
 101 132 174 60 263 60 c 0
 357 60 422 137 422 220 c 0xdc
EndSplineSet
EndChar

StartChar: h
Encoding: 104 104 72
Width: 600
Flags: MW
HStem: 0 47<38 122 172 251 38 122 356 441 491 575> 395 50<313.5 374.5> 574 55
VStem: 122 50<47 315 374 578 578 578> 441 50<47 276 276 280 47 312>
LayerCount: 2
Fore
SplineSet
25 617 m 1
 172 629 l 1
 172 374 l 1
 216 406 271 445 343 445 c 0
 434 445 491 377 491 280 c 2
 491 47 l 1
 575 47 l 1
 575 0 l 1
 356 0 l 1
 356 47 l 1
 441 47 l 1
 441 276 l 2
 441 348 404 395 345 395 c 0
 282 395 220 354 172 315 c 1
 172 47 l 1
 251 47 l 1
 251 0 l 1
 38 0 l 1
 38 47 l 1
 122 47 l 1
 122 578 l 1
 29 570 l 1
 25 617 l 1
EndSplineSet
EndChar

StartChar: i
Encoding: 105 105 73
Width: 600
Flags: W
HStem: 0 47<101 277 327 500 101 277> 383 47<130 277 130 327> 537 119<255 327 255 327>
VStem: 255 72<537 656> 277 50<47 383 383 383>
LayerCount: 2
Fore
SplineSet
130 430 m 1xe8
 327 430 l 1
 327 47 l 1
 500 47 l 1
 500 0 l 1
 101 0 l 1
 101 47 l 1
 277 47 l 1
 277 383 l 1
 130 383 l 1
 130 430 l 1xe8
255 537 m 1x30
 255 656 l 1
 327 656 l 1
 327 537 l 1
 255 537 l 1x30
EndSplineSet
EndChar

StartChar: j
Encoding: 106 106 74
Width: 600
Flags: W
HStem: -151 50<180.5 273 180.5 296.5> 383 47<85 340 85 390> 537 119<298 370 298 370>
VStem: 298 72<537 656 537 656> 340 50<47 383 383 383>
LayerCount: 2
Fore
SplineSet
85 430 m 1xe8
 390 430 l 1
 390 40 l 2
 390 -13 390 -151 203 -151 c 0
 150 -151 106 -142 68 -134 c 1
 79 -86 l 1
 105 -92 155 -101 206 -101 c 0
 340 -101 340 -9 340 47 c 2
 340 383 l 1
 85 383 l 1
 85 430 l 1xe8
298 537 m 1x30
 298 656 l 1
 370 656 l 1
 370 537 l 1
 298 537 l 1x30
EndSplineSet
EndChar

StartChar: k
Encoding: 107 107 75
Width: 600
Flags: W
HStem: 0 47<52 135 52 185 52 135 355 419 479 563> 383 47<316 372 316 525 447 447 447 525> 573 56
VStem: 135 50<47 183 239 577 577 577> 316 209<383 430 383 430> 355 208<0 47 0 47>
LayerCount: 2
Fore
SplineSet
36 616 m 1xf4
 185 629 l 1
 185 239 l 1
 372 381 l 1
 372 383 l 1
 316 383 l 1
 316 430 l 1
 525 430 l 1
 525 383 l 1
 447 383 l 1xf8
 279 254 l 1
 360 181 443 93 479 47 c 1
 563 47 l 1
 563 0 l 1
 355 0 l 1
 355 47 l 1
 419 47 l 1
 378 96 338 136 241 226 c 1
 185 183 l 1
 185 0 l 1
 52 0 l 1
 52 47 l 1
 135 47 l 1
 135 577 l 1
 40 569 l 1
 36 616 l 1xf4
EndSplineSet
EndChar

StartChar: l
Encoding: 108 108 76
Width: 600
Flags: MW
HStem: 0 47<101 275 325 499 101 275> 557 54
VStem: 275 50<47 563 563 563>
LayerCount: 2
Fore
SplineSet
107 597 m 1
 325 611 l 1
 325 47 l 1
 499 47 l 1
 499 0 l 1
 101 0 l 1
 101 47 l 1
 275 47 l 1
 275 563 l 1
 112 551 l 1
 107 597 l 1
EndSplineSet
EndChar

StartChar: m
Encoding: 109 109 77
Width: 600
Flags: W
HStem: 0 47<0 68 118 186 0 68 330 392 542 599> 383 47<0 68 0 114> 391 50<189.5 234 189 247.5 414 444>
VStem: 68 50<47 335 47 383 47 383> 280 50<47 276 276 298> 492 50<47 272 47 272 47 300>
LayerCount: 2
Fore
SplineSet
0 430 m 1xdc
 114 430 l 1
 114 395 l 1xdc
 127 406 l 2
 130 409 165 441 213 441 c 0
 255 441 294 418 313 378 c 1
 342 412 380 441 427 441 c 0
 461 441 499 424 516 398 c 0
 535 370 542 348 542 272 c 2
 542 47 l 1
 599 47 l 1
 599 0 l 1
 492 0 l 1
 492 272 l 2
 492 328 493 391 428 391 c 0
 400 391 367 377 330 325 c 1
 330 47 l 1
 392 47 l 1
 392 0 l 1
 280 0 l 1
 280 276 l 2
 280 320 281 391 214 391 c 0
 165 391 135 356 118 335 c 1xbc
 118 47 l 1
 186 47 l 1
 186 0 l 1
 0 0 l 1
 0 47 l 1
 68 47 l 1
 68 383 l 1
 0 383 l 1
 0 430 l 1xdc
EndSplineSet
EndChar

StartChar: n
Encoding: 110 110 78
Width: 600
Flags: W
HStem: 0 47<34 116 166 250 34 116 351 437 487 567> 383 47<34 116 34 166> 395 50<322.5 368.5>
VStem: 116 50<47 315 374 383 383 383> 437 50<47 276 276 280 47 312.5>
LayerCount: 2
Fore
SplineSet
34 430 m 1xd8
 166 430 l 1xd8
 166 374 l 1
 210 405 265 445 338 445 c 0
 429 445 487 377 487 280 c 2
 487 47 l 1
 567 47 l 1
 567 0 l 1
 351 0 l 1
 351 47 l 1
 437 47 l 1
 437 276 l 2
 437 349 398 395 339 395 c 0
 306 395 256 386 166 315 c 1xb8
 166 47 l 1
 250 47 l 1
 250 0 l 1
 34 0 l 1
 34 47 l 1
 116 47 l 1
 116 383 l 1
 34 383 l 1
 34 430 l 1xd8
EndSplineSet
EndChar

StartChar: o
Encoding: 111 111 79
Width: 600
Flags: MW
HStem: -14 50<237 364 237 383.5> 400 50<237.5 364>
VStem: 52 54<171 265.5 171 278> 494 54<172 264.5>
LayerCount: 2
Fore
SplineSet
52 218 m 0
 52 338 137 450 300 450 c 0
 467 450 548 333 548 218 c 0
 548 103 467 -14 300 -14 c 0
 137 -14 52 99 52 218 c 0
106 218 m 0
 106 124 174 36 300 36 c 0
 428 36 494 126 494 218 c 0
 494 311 428 400 300 400 c 0
 175 400 106 313 106 218 c 0
EndSplineSet
EndChar

StartChar: p
Encoding: 112 112 80
Width: 600
Flags: W
HStem: -157 47<19 101 151 300 19 101> -7 50<319 370 286 381> 383 47<19 101 19 151> 393 50<274 382>
VStem: 101 50<-110 79 359 383 383 383> 494 54<169 261.5>
LayerCount: 2
Fore
SplineSet
19 430 m 1xec
 151 430 l 1xec
 151 359 l 1
 153 359 l 1
 170 382 218 443 325 443 c 0xdc
 461 443 548 333 548 219 c 0
 548 85 435 -7 327 -7 c 0
 311 -7 222 -7 153 79 c 1
 151 79 l 1
 151 -110 l 1
 300 -110 l 1
 300 -157 l 1
 19 -157 l 1
 19 -110 l 1
 101 -110 l 1
 101 383 l 1
 19 383 l 1
 19 430 l 1xec
147 222 m 0
 147 104 247 43 325 43 c 0
 415 43 494 118 494 220 c 0
 494 303 438 393 326 393 c 0xdc
 222 393 147 314 147 222 c 0
EndSplineSet
EndChar

StartChar: q
Encoding: 113 113 81
Width: 600
Flags: W
HStem: -157 47<300 449 499 581 300 449> -7 50<230 281> 383 47<499 581 499 499> 393 50<218 326>
VStem: 52 54<169 261.5 169 276> 449 50<-110 79 79 79 359 383 -110 430 -110 430>
LayerCount: 2
Fore
SplineSet
581 430 m 1xec
 581 383 l 1
 499 383 l 1xec
 499 -110 l 1
 581 -110 l 1
 581 -157 l 1
 300 -157 l 1
 300 -110 l 1
 449 -110 l 1
 449 79 l 1
 447 79 l 1
 378 -7 289 -7 273 -7 c 0
 165 -7 52 85 52 219 c 0
 52 333 139 443 275 443 c 0
 382 443 430 382 447 359 c 1
 449 359 l 1xdc
 449 430 l 1
 581 430 l 1xec
453 222 m 0xdc
 453 314 378 393 274 393 c 0
 162 393 106 303 106 220 c 0
 106 118 185 43 275 43 c 0
 353 43 453 104 453 222 c 0xdc
EndSplineSet
EndChar

StartChar: r
Encoding: 114 114 82
Width: 600
Flags: W
HStem: 0 47<75 199 249 439 75 199> 383 47<83 199 83 249> 394 50<408.5 468>
VStem: 199 50<47 266 330 383 383 383>
LayerCount: 2
Fore
SplineSet
83 430 m 1xd0
 249 430 l 1xd0
 249 330 l 1
 294 375 361 444 456 444 c 0
 519 444 546 415 568 389 c 1
 515 350 l 2
 514 351 511 355 511 357 c 0
 501 372 488 394 448 394 c 0xb0
 362 394 283 304 249 266 c 1
 249 47 l 1
 439 47 l 1
 439 0 l 1
 75 0 l 1
 75 47 l 1
 199 47 l 1
 199 383 l 1
 83 383 l 1
 83 430 l 1xd0
EndSplineSet
EndChar

StartChar: s
Encoding: 115 115 83
Width: 600
Flags: W
HStem: -15 50<277 322 232.5 356.5> 149 21G<97 97> 393 50<237.5 305 223.5 346> 430 20G<437 437> 443 7
VStem: 99 54<282.5 339.5 282.5 353> 103 38 450 54<83.5 152>
LayerCount: 2
Fore
SplineSet
437 450 m 1xf5
 482 443 l 1
 478 422 473 396 473 357 c 0xcd
 473 329 476 311 478 294 c 1
 434 289 l 1
 427 328 415 393 277 393 c 0
 198 393 153 360 153 319 c 0xe5
 153 246 242 242 359 236 c 0
 382 235 504 229 504 124 c 0
 504 27 400 -15 313 -15 c 0
 241 -15 189 14 166 27 c 2
 166 27 163 29 161 29 c 0
 152 29 147 10 141 -13 c 1
 97 -13 l 1
 100 4 103 17 103 50 c 0
 103 93 99 126 97 149 c 1
 141 154 l 1xe3
 147 120 163 35 302 35 c 0
 342 35 450 45 450 122 c 0
 450 182 390 185 307 188 c 0
 254 190 99 196 99 317 c 0
 99 389 171 443 276 443 c 0
 334 443 373 425 391 414 c 0
 393 412 405 405 413 405 c 0
 424 405 429 423 431 429 c 0xe5
 434 442 435 443 437 450 c 1xf5
EndSplineSet
EndChar

StartChar: t
Encoding: 116 116 84
Width: 600
Flags: W
HStem: -14 50<301 343.5 274.5 364.5> 369 47<105 173 105 173 223 465> 369 194<105 223 105 223 173 465 173 223>
VStem: 173 50<180 369 416 563>
LayerCount: 2
Fore
SplineSet
173 563 m 1xf0
 223 563 l 1xb0
 223 416 l 1
 465 416 l 1
 465 369 l 1
 223 369 l 1
 223 180 l 2
 223 106 222 36 327 36 c 0
 360 36 403 39 520 88 c 1
 538 43 l 1
 474 14 397 -14 332 -14 c 0
 270 -14 229 10 208 31 c 0
 173 66 173 114 173 180 c 2
 173 369 l 1
 105 369 l 1
 105 416 l 1
 173 416 l 1xd0
 173 563 l 1xf0
EndSplineSet
EndChar

StartChar: u
Encoding: 117 117 85
Width: 600
Flags: W
HStem: -14 50<214 291.5 214 306.5> 0 47<475 556 475 556> 383 47<32 114 32 164 339 425>
VStem: 114 50<165 383 383 383> 425 50<47 55 55 55 123 383 383 383>
LayerCount: 2
Fore
SplineSet
32 430 m 1x78
 164 430 l 1
 164 165 l 2
 164 139 164 36 264 36 c 0
 319 36 371 63 425 123 c 1xb8
 425 383 l 1
 339 383 l 1
 339 430 l 1
 475 430 l 1
 475 47 l 1
 556 47 l 1
 556 0 l 1
 425 0 l 1x78
 425 55 l 1
 397 30 345 -14 268 -14 c 0xb8
 142 -14 114 86 114 165 c 2
 114 383 l 1
 32 383 l 1
 32 430 l 1x78
EndSplineSet
EndChar

StartChar: v
Encoding: 118 118 86
Width: 600
Flags: W
HStem: 0 21G<277 324 277 277> 0 58<303 303 303 324 277 303> 383 47<21 95 21 234 153 234 153 153 376 455 505 505 505 579>
VStem: 21 213<383 430 383 430> 21 558<383 430 383 430> 376 203<383 430 383 430>
LayerCount: 2
Fore
SplineSet
21 430 m 1xbc
 234 430 l 1
 234 383 l 1
 153 383 l 1
 303 58 l 1x70
 455 383 l 1
 376 383 l 1
 376 430 l 1
 579 430 l 1
 579 383 l 1
 505 383 l 1
 324 0 l 1
 277 0 l 1
 95 383 l 1
 21 383 l 1
 21 430 l 1xbc
EndSplineSet
EndChar

StartChar: w
Encoding: 119 119 87
Width: 600
Flags: W
HStem: 0 21G<158 207 158 158 395 447 395 395> 0 76<420 422 420 447 395 422> 0 80<186 188 186 207 158 188> 383 47<2 45 2 181 98 181 98 98 428 512 559 559 559 598>
VStem: 2 179<383 430 383 430> 428 170<383 430 383 430>
LayerCount: 2
Fore
SplineSet
2 430 m 1x9c
 181 430 l 1
 181 383 l 1
 98 383 l 1
 186 80 l 1
 188 80 l 1x3c
 286 352 l 1
 321 352 l 1
 420 76 l 1
 422 76 l 1x5c
 512 383 l 1
 428 383 l 1
 428 430 l 1
 598 430 l 1
 598 383 l 1
 559 383 l 1
 447 0 l 1
 395 0 l 1
 300 258 l 1
 207 0 l 1
 158 0 l 1
 45 383 l 1
 2 383 l 1
 2 430 l 1x9c
EndSplineSet
EndChar

StartChar: x
Encoding: 120 120 88
Width: 600
Flags: W
HStem: 0 47<26 88 153 223 26 88 371 442 511 574> 383 47<41 105 41 234 173 234 173 173 365 423 488 488 488 549>
VStem: 26 197<0 47 0 47> 41 193<383 430 383 430> 365 184<383 430 383 430> 371 203<0 47 0 47>
LayerCount: 2
Fore
SplineSet
41 430 m 1xd8
 234 430 l 1
 234 383 l 1
 173 383 l 1
 298 258 l 1
 423 383 l 1
 365 383 l 1
 365 430 l 1
 549 430 l 1
 549 383 l 1
 488 383 l 1xd8
 331 225 l 1
 511 47 l 1
 574 47 l 1
 574 0 l 1
 371 0 l 1
 371 47 l 1
 442 47 l 1
 298 193 l 1
 153 47 l 1
 223 47 l 1
 223 0 l 1
 26 0 l 1
 26 47 l 1
 88 47 l 1xe4
 264 225 l 1
 105 383 l 1
 41 383 l 1
 41 430 l 1xd8
EndSplineSet
EndChar

StartChar: y
Encoding: 121 121 89
Width: 600
Flags: MW
HStem: -153 47<40 194 251 340 40 194> 383 47<24 85 24 211 142 211 142 142 406 474 531 531 531 589>
VStem: 24 187<383 430 383 430> 406 183<383 430 383 430>
LayerCount: 2
Fore
SplineSet
24 430 m 1
 211 430 l 1
 211 383 l 1
 142 383 l 1
 300 79 l 1
 474 383 l 1
 406 383 l 1
 406 430 l 1
 589 430 l 1
 589 383 l 1
 531 383 l 1
 251 -106 l 1
 340 -106 l 1
 340 -153 l 1
 40 -153 l 1
 40 -106 l 1
 194 -106 l 1
 271 27 l 1
 85 383 l 1
 24 383 l 1
 24 430 l 1
EndSplineSet
EndChar

StartChar: z
Encoding: 122 122 90
Width: 600
Flags: MW
HStem: 0 47<172 449 104 104> 383 47<161 425 161 161>
VStem: 114 47<294 383 294 430> 449 47<47 139 0 139>
LayerCount: 2
Fore
SplineSet
114 430 m 1
 496 430 l 1
 496 387 l 1
 172 47 l 1
 449 47 l 1
 449 139 l 1
 496 139 l 1
 496 0 l 1
 104 0 l 1
 104 47 l 1
 425 383 l 1
 161 383 l 1
 161 294 l 1
 114 294 l 1
 114 430 l 1
EndSplineSet
EndChar

StartChar: braceleft
Encoding: 123 123 91
Width: 600
Flags: W
HStem: -95 48<448 461> 253 51<235 235> 604 48<448 461 448 461>
VStem: 296 52<2.5 33.5 518.5 565> 320 53<180 212 180 216.5 348.5 377>
LayerCount: 2
Fore
SplineSet
461 652 m 1xb0
 461 604 l 1
 412 604 348 601 348 529 c 0
 348 508 350 491 360 448 c 2xb0
 368 413 l 2
 369 406 373 385 373 369 c 0
 373 320 343 297 318 278 c 1
 342 260 373 236 373 188 c 0
 373 172 369 151 368 144 c 2xa8
 360 109 l 2
 350 66 348 49 348 27 c 0
 348 -46 419 -47 461 -47 c 1
 461 -95 l 1
 435 -95 410 -97 379 -87 c 0
 326 -70 296 -24 296 29 c 0
 296 38 297 56 302 79 c 0xb0
 303 85 309 114 311 120 c 0
 315 141 320 168 320 190 c 0
 320 243 255 251 235 253 c 1
 235 304 l 1
 286 309 320 328 320 369 c 0xe8
 320 392 313 427 311 437 c 0
 300 493 296 501 296 525 c 0
 296 659 435 652 461 652 c 1xb0
EndSplineSet
EndChar

StartChar: bar
Encoding: 124 124 92
Width: 600
Flags: MW
HStem: -185 858<274 327 274 327>
VStem: 274 53<-185 673 -185 673>
LayerCount: 2
Fore
SplineSet
327 673 m 1
 327 -185 l 1
 274 -185 l 1
 274 673 l 1
 327 673 l 1
EndSplineSet
EndChar

StartChar: braceright
Encoding: 125 125 93
Width: 600
Flags: W
HStem: -95 48<139 152> 253 51<365 365> 604 48<139 152 139 160>
VStem: 227 53<180 208.5 176.5 212.5 345 377> 252 52<-8 38.5 523.5 554.5>
LayerCount: 2
Fore
SplineSet
139 -95 m 1xa8
 139 -47 l 1
 188 -47 252 -44 252 28 c 0
 252 49 250 66 240 109 c 2xa8
 232 144 l 2
 231 151 227 172 227 188 c 0
 227 237 257 260 282 279 c 1
 258 297 227 321 227 369 c 0
 227 385 231 406 232 413 c 2xb0
 240 448 l 2
 250 491 252 508 252 530 c 0
 252 603 181 604 139 604 c 1
 139 652 l 1
 165 652 190 654 221 644 c 0
 274 627 304 581 304 528 c 0
 304 519 303 501 298 478 c 0xa8
 297 472 291 443 289 437 c 0
 285 416 280 389 280 367 c 0
 280 314 345 306 365 304 c 1
 365 253 l 1
 314 248 280 229 280 188 c 0xf0
 280 165 287 130 289 120 c 0
 300 64 304 56 304 32 c 0
 304 -102 165 -95 139 -95 c 1xa8
EndSplineSet
EndChar

StartChar: asciitilde
Encoding: 126 126 94
Width: 600
Flags: W
HStem: 229 158 312 57<188 218>
VStem: 86 429<268 349>
LayerCount: 2
Fore
SplineSet
481 387 m 1xe0
 515 349 l 1
 499 321 460 254 392 254 c 0
 380 254 368 254 298 282 c 0
 235 309 228 312 208 312 c 0
 168 312 147 277 119 229 c 1
 86 268 l 1
 112 313 145 369 208 369 c 0
 237 369 261 359 313 337 c 0
 366 315 378 311 391 311 c 0
 407 311 442 318 476 378 c 0
 476 380 480 386 481 387 c 1xe0
EndSplineSet
EndChar

StartChar: exclamdown
Encoding: 161 161 95
Width: 600
Flags: W
HStem: -138 378<258 323 277 323 277 341> 327 123<281 319 281 319>
VStem: 231 138<372 405.5 371 406> 258 83<-138 -138> 267.5 64.5
LayerCount: 2
Fore
SplineSet
258 -138 m 1xd8
 277 240 l 1
 323 240 l 1
 341 -138 l 1
 258 -138 l 1xd8
300 327 m 0x60
 260 327 231 355 231 389 c 0
 231 423 262 450 300 450 c 0
 338 450 369 423 369 388 c 0
 369 354 338 327 300 327 c 0x60
EndSplineSet
EndChar

StartChar: cent
Encoding: 162 162 96
Width: 600
Flags: W
HStem: 153 21G<503 503.5> 410 20G<332 340.5 440 444.5> 430 46<332 332> 592 20G<283 332 332 332>
VStem: 111 52<267.5 286.5 267.5 328> 283 49<-57 87 -57 87 137 427 427 427 476 612> 447 44
LayerCount: 2
Fore
SplineSet
332 430 m 1xfe
 332 136 l 1
 391 146 412 153 485 197 c 1
 509 156 l 1
 508 156 504 153 503 153 c 0
 438 111 412 101 332 87 c 1
 332 -57 l 1
 283 -57 l 1
 283 87 l 1
 209 103 178 120 146 166 c 0
 126 196 111 233 111 281 c 0
 111 375 172 458 283 476 c 1
 283 612 l 1
 332 612 l 1
 332 476 l 1xbe
 397 471 430 440 435 434 c 0
 437 433 439 430 441 430 c 0
 448 430 451 452 451 453 c 0
 452 457 453 463 453 465 c 1
 500 460 l 1
 496 436 491 406 491 379 c 0xde
 491 366 492 349 494 319 c 1
 447 313 l 1
 446 337 443 380 409 405 c 0
 383 424 349 430 332 430 c 1xfe
283 137 m 1
 283 427 l 1
 163 400 163 291 163 282 c 0
 163 253 173 216 197 185 c 0
 224 151 254 143 283 137 c 1
EndSplineSet
EndChar

StartChar: sterling
Encoding: 163 163 97
Width: 600
Flags: W
HStem: -20 21G<162 162> -14 47<408 430 406.5 445.5> 19 47<264.5 286> 292 47<96 187 96 201 96 187 251 480 251 251> 480.5 114.5 563 49<299 363> 565 20G<463.5 466.5>
VStem: 161 49<435.5 476 435.5 495> 213 47<200 228> 456 43
LayerCount: 2
Fore
SplineSet
96 339 m 1x5480
 187 339 l 1
 167 392 161 417 161 448 c 0
 161 542 245 612 340 612 c 0x55
 391 612 426 599 454 588 c 0
 457 587 462 585 465 585 c 0
 468 585 469 586 473 595 c 1
 518 595 l 1x52c0
 508 557 503 532 499 483 c 1
 454 478 l 1
 455 494 456 506 456 511 c 0x58c0
 456 519 453 532 443 539 c 0
 429 547 384 563 342 563 c 0
 256 563 210 503 210 449 c 0
 210 422 215 400 237 339 c 1x5540
 480 339 l 1
 480 292 l 1
 251 292 l 1
 257 265 260 247 260 219 c 0
 260 131 230 83 207 49 c 1
 209 47 l 1
 227 56 249 66 280 66 c 0x3480
 304 66 321 62 357 48 c 0
 386 37 399 33 414 33 c 0
 446 33 467 48 499 74 c 1
 528 38 l 1
 509 19 474 -14 417 -14 c 0x5480
 399 -14 379 -11 347 1 c 0
 309 15 297 19 275 19 c 0
 248 19 217 12 162 -20 c 1
 129 23 l 1xb480
 207 103 213 185 213 215 c 0
 213 241 209 267 201 292 c 1
 96 292 l 1
 96 339 l 1x5480
EndSplineSet
EndChar

StartChar: fraction
Encoding: 164 8260 98
Width: 600
Flags: MW
HStem: -8 21G<48 48> 589 20G<553 553>
VStem: 48 505
LayerCount: 2
Fore
SplineSet
513 637 m 1
 553 609 l 1
 86 -38 l 1
 48 -8 l 1
 513 637 l 1
EndSplineSet
EndChar

StartChar: yen
Encoding: 165 165 99
Width: 600
Flags: MW
HStem: 0 47<160 279 327 446 160 279> 139 47<132 279 132 279 327 471> 244 47<132 279 132 279 327 471> 546 47<32 93 32 229 153 153 153 229 374 450 508 508 508 568>
VStem: 32 197<546 593 546 593> 279 48<47 139 47 139 186 244 291 304> 374 194<546 593 546 593>
LayerCount: 2
Fore
SplineSet
327 139 m 1
 327 47 l 1
 446 47 l 1
 446 0 l 1
 160 0 l 1
 160 47 l 1
 279 47 l 1
 279 139 l 1
 132 139 l 1
 132 186 l 1
 279 186 l 1
 279 244 l 1
 132 244 l 1
 132 291 l 1
 279 291 l 1
 279 304 l 1
 93 546 l 1
 32 546 l 1
 32 593 l 1
 229 593 l 1
 229 546 l 1
 153 546 l 1
 303 351 l 1
 450 546 l 1
 374 546 l 1
 374 593 l 1
 568 593 l 1
 568 546 l 1
 508 546 l 1
 327 304 l 1
 327 291 l 1
 471 291 l 1
 471 244 l 1
 327 244 l 1
 327 186 l 1
 471 186 l 1
 471 139 l 1
 327 139 l 1
EndSplineSet
EndChar

StartChar: florin
Encoding: 166 402 100
Width: 600
Flags: MW
HStem: -99 48<84.5 102.5> 383 42<123 230 123 230 280 456> 617 47<356.5 448>
VStem: 230 50<58 383 425 480>
LayerCount: 2
Fore
SplineSet
509 660 m 1
 504 609 l 1
 487 613 464 617 432 617 c 0
 281 617 280 530 280 480 c 2
 280 425 l 1
 456 425 l 1
 456 383 l 1
 280 383 l 1
 280 51 l 2
 280 5 273 -28 236 -56 c 0
 192 -89 131 -99 74 -99 c 0
 57 -99 38 -97 24 -95 c 1
 28 -45 l 1
 48 -48 73 -51 96 -51 c 0
 140 -51 194 -39 215 -14 c 0
 230 4 230 31 230 58 c 2
 230 383 l 1
 123 383 l 1
 123 425 l 1
 230 425 l 1
 230 485 l 2
 230 544 243 664 445 664 c 0
 473 664 494 662 509 660 c 1
EndSplineSet
EndChar

StartChar: section
Encoding: 167 167 101
Width: 600
Flags: W
HStem: -91 47<178 289> 516 47<297 469 321 422>
VStem: 124 52<280 292 280 311> 131 47<-44 53 -44 53 -44 53> 181 52<453 478.5> 374 52<-5 26> 422 47<430 516 516 516> 438 52<166.5 187>
LayerCount: 2
Fore
SplineSet
469 563 m 1xd2
 469 430 l 1
 422 430 l 1
 422 516 l 1xd2
 307 516 l 2
 287 516 233 516 233 458 c 0
 233 432 250 412 269 398 c 2
 407 292 l 2
 456 254 490 227 490 175 c 0xc9
 490 142 472 91 407 78 c 1
 414 67 426 50 426 18 c 0
 426 -50 372 -91 289 -91 c 2
 131 -91 l 1
 131 53 l 1
 178 53 l 1
 178 -44 l 1xd4
 295 -44 l 2
 331 -44 374 -27 374 17 c 0
 374 35 369 51 333 78 c 2
 199 181 l 2
 156 214 124 241 124 288 c 0xe4
 124 334 161 381 205 390 c 1
 182 415 181 449 181 457 c 0
 181 500 206 529 227 543 c 0xca
 256 563 301 563 321 563 c 2
 469 563 l 1xd2
376 253 m 2xe1
 248 352 l 1
 176 344 176 295 176 289 c 0
 176 271 183 257 226 224 c 2
 362 119 l 1
 425 122 438 158 438 175 c 0
 438 199 426 214 376 253 c 2xe1
EndSplineSet
EndChar

StartChar: currency
Encoding: 168 164 102
Width: 600
Flags: MW
HStem: 104 47<292 310.5> 414 47<287 329 287 340.5>
VStem: 122 47<270 307> 432 47<257.5 297 257.5 316.5>
LayerCount: 2
Fore
SplineSet
443 175 m 1
 525 95 l 1
 490 61 l 1
 409 141 l 1
 368 108 321 104 300 104 c 0
 284 104 236 106 191 141 c 1
 110 61 l 1
 75 95 l 1
 157 175 l 1
 122 226 122 265 122 275 c 0
 122 339 143 370 157 390 c 1
 75 471 l 1
 110 504 l 1
 191 424 l 1
 232 456 274 461 300 461 c 0
 358 461 394 435 409 424 c 1
 490 504 l 1
 525 471 l 1
 443 390 l 1
 476 344 479 304 479 290 c 0
 479 225 456 193 443 175 c 1
432 283 m 0
 432 350 381 414 300 414 c 0
 218 414 169 348 169 283 c 0
 169 216 218 151 299 151 c 0
 380 151 432 216 432 283 c 0
EndSplineSet
EndChar

StartChar: quotesingle
Encoding: 169 39 103
Width: 600
Flags: W
HStem: 281 282<262 337 262 262> 543 20G<243 357 357 357>
VStem: 243 114<563 563> 252.5 94.5
LayerCount: 2
Fore
SplineSet
243 563 m 1xf0
 357 563 l 1
 337 281 l 1
 262 281 l 1
 243 563 l 1xf0
EndSplineSet
EndChar

StartChar: quotedblleft
Encoding: 170 8220 104
Width: 600
Flags: W
HStem: 320 243<157 337 157 337 330 337 266 433 330 330> 543 20G<266 337 337 337 438 509 509 509>
VStem: 157 180 157 352<320 563> 330 179
LayerCount: 2
Fore
SplineSet
433 320 m 1xd8
 330 320 l 1
 438 563 l 1
 509 563 l 1
 433 320 l 1xd8
260 320 m 1xa0
 157 320 l 1
 266 563 l 1
 337 563 l 1
 260 320 l 1xa0
EndSplineSet
EndChar

StartChar: guillemotleft
Encoding: 171 171 105
Width: 600
Flags: W
HStem: 26 404<313 313 313 488> 410 20G<313 313 488 488>
VStem: 79 267<227 394> 79 441<227 394> 253 267<227 394>
LayerCount: 2
Fore
SplineSet
313 430 m 1xf0
 346 394 l 1
 152 227 l 1
 342 62 l 1
 313 26 l 1
 79 227 l 1
 313 430 l 1xf0
488 430 m 1x88
 520 394 l 1
 326 227 l 1
 517 62 l 1
 488 26 l 1
 253 227 l 1
 488 430 l 1x88
EndSplineSet
EndChar

StartChar: guilsinglleft
Encoding: 172 8249 106
Width: 600
Flags: W
HStem: 26 404<400 400> 410 20G<400 400>
VStem: 166 267<227 394>
LayerCount: 2
Fore
SplineSet
400 430 m 1xe0
 433 394 l 1
 239 227 l 1
 430 61 l 1
 400 26 l 1
 166 227 l 1
 400 430 l 1xe0
EndSplineSet
EndChar

StartChar: guilsinglright
Encoding: 173 8250 107
Width: 600
Flags: W
HStem: 26 404<199 199> 410 20G<199 199>
VStem: 167 267<227 394>
LayerCount: 2
Fore
SplineSet
199 430 m 1xe0
 434 227 l 1
 199 26 l 1
 170 61 l 1
 361 227 l 1
 167 394 l 1
 199 430 l 1xe0
EndSplineSet
EndChar

StartChar: fi
Encoding: 174 64257 108
Width: 600
Flags: W
HStem: 0 47<1 139 189 411 461 600 1 139> 371 47<1 139 1 139 189 411> 537 119<388 461 388 461> 575 50<215.5 252> 591 20G<346 346>
VStem: 139 50<47 371 47 371 418 472> 411 50<47 371 371 371>
LayerCount: 2
Fore
SplineSet
461 418 m 1xd6
 461 47 l 1
 600 47 l 1
 600 0 l 1
 1 0 l 1
 1 47 l 1
 139 47 l 1
 139 371 l 1
 1 371 l 1
 1 418 l 1
 139 418 l 1
 139 474 l 2
 139 551 145 625 245 625 c 0xd6
 282 625 318 617 346 611 c 1xce
 326 561 l 1
 291 570 262 575 242 575 c 0
 189 575 189 530 189 472 c 2
 189 418 l 1
 461 418 l 1xd6
411 47 m 1
 411 371 l 1
 189 371 l 1
 189 47 l 1
 411 47 l 1
388 537 m 1xe6
 388 656 l 1
 461 656 l 1
 461 537 l 1
 388 537 l 1xe6
EndSplineSet
Ligature2: "'liga' Standard Ligatures in Latin lookup 0 subtable" f i
EndChar

StartChar: fl
Encoding: 175 64258 109
Width: 600
Flags: W
HStem: 0 47<1 139 189 411 461 600 1 139> 371 47<1 139 1 139 189 329> 575 50<240 302> 590 20G<461 461>
VStem: 139 50<47 371 47 371 418 470> 411 50<47 560 560 560>
LayerCount: 2
Fore
SplineSet
461 610 m 1xfc
 461 47 l 1
 600 47 l 1
 600 0 l 1
 1 0 l 1
 1 47 l 1
 139 47 l 1
 139 371 l 1
 1 371 l 1
 1 418 l 1
 139 418 l 1
 139 475 l 2
 139 541 144 625 290 625 c 0xec
 344 625 409 617 461 610 c 1xfc
411 47 m 1
 411 560 l 1
 353 571 316 575 288 575 c 0
 192 575 189 533 189 470 c 2
 189 418 l 1
 329 418 l 1
 329 371 l 1
 189 371 l 1
 189 47 l 1
 411 47 l 1
EndSplineSet
Ligature2: "'liga' Standard Ligatures in Latin lookup 0 subtable" f l
EndChar

StartChar: endash
Encoding: 177 8211 110
Width: 600
Flags: MW
HStem: 262 55<88 512 88 512>
VStem: 88 424<262 317 262 317>
LayerCount: 2
Fore
SplineSet
88 317 m 1
 512 317 l 1
 512 262 l 1
 88 262 l 1
 88 317 l 1
EndSplineSet
EndChar

StartChar: dagger
Encoding: 178 8224 111
Width: 600
Flags: W
HStem: 376 49<161 273 161 273 328 439> 376 187<161 328 161 328 273 439 273 328>
VStem: 273 55<-48 376 -48 376 425 563>
LayerCount: 2
Fore
SplineSet
273 563 m 1xe0
 328 563 l 1x60
 328 425 l 1
 439 425 l 1
 439 376 l 1
 328 376 l 1
 328 -48 l 1
 273 -48 l 1
 273 376 l 1
 161 376 l 1
 161 425 l 1
 273 425 l 1xa0
 273 563 l 1xe0
EndSplineSet
EndChar

StartChar: daggerdbl
Encoding: 179 8225 112
Width: 600
Flags: W
HStem: 169 47<164 274 164 274 327 437> 376 47<164 274 164 274 327 437> 376 187<164 327 164 327 274 437 274 327>
VStem: 274 53<-48 169 -48 169 216 376 423 563>
LayerCount: 2
Fore
SplineSet
274 563 m 1xf0
 327 563 l 1xb0
 327 423 l 1
 437 423 l 1
 437 376 l 1
 327 376 l 1
 327 216 l 1
 437 216 l 1
 437 169 l 1
 327 169 l 1
 327 -48 l 1
 274 -48 l 1
 274 169 l 1
 164 169 l 1
 164 216 l 1
 274 216 l 1
 274 376 l 1
 164 376 l 1
 164 423 l 1
 274 423 l 1xd0
 274 563 l 1xf0
EndSplineSet
EndChar

StartChar: periodcentered
Encoding: 180 183 113
Width: 600
Flags: MW
HStem: 235 136<282.5 318.5>
VStem: 223 154<282 323.5 282 324>
LayerCount: 2
Fore
SplineSet
300 371 m 0
 338 371 377 344 377 303 c 0
 377 261 337 235 300 235 c 0
 265 235 223 259 223 303 c 0
 223 345 263 371 300 371 c 0
EndSplineSet
EndChar

StartChar: paragraph
Encoding: 182 182 114
Width: 600
Flags: MW
HStem: -77 30<210 272 317 336 210 272 380 399 444 496> 261 30<272 272> 533 30<272 492 317 399 317 317 444 492 444 444>
VStem: 101 81<375 383 383 443 375 488.5> 272 45<-47 261 261 261 291 533 -47 533> 399 45<-47 533 -47 533>
LayerCount: 2
Fore
SplineSet
444 533 m 1
 444 -47 l 1
 496 -47 l 1
 496 -77 l 1
 380 -77 l 1
 380 -47 l 1
 399 -47 l 1
 399 533 l 1
 317 533 l 1
 317 -47 l 1
 336 -47 l 1
 336 -77 l 1
 210 -77 l 1
 210 -47 l 1
 272 -47 l 1
 272 261 l 1
 197 257 101 285 101 414 c 0
 101 563 200 563 285 563 c 2
 492 563 l 1
 492 533 l 1
 444 533 l 1
272 291 m 1
 272 533 l 1
 228 532 182 531 182 443 c 2
 182 383 l 2
 182 367 187 284 272 291 c 1
EndSplineSet
EndChar

StartChar: bullet
Encoding: 183 8226 115
Width: 600
Flags: MW
HStem: 182 200<272.5 327.5>
VStem: 200 200<254.5 309.5>
LayerCount: 2
Fore
SplineSet
300 382 m 0
 245 382 200 337 200 282 c 0
 200 227 245 182 300 182 c 0
 355 182 400 227 400 282 c 0
 400 337 355 382 300 382 c 0
EndSplineSet
EndChar

StartChar: quotesinglbase
Encoding: 184 8218 116
Width: 600
Flags: MW
HStem: -109 242<177 357 177 357>
VStem: 177 180
LayerCount: 2
Fore
SplineSet
253 133 m 1
 357 133 l 1
 248 -109 l 1
 177 -109 l 1
 253 133 l 1
EndSplineSet
EndChar

StartChar: quotedblbase
Encoding: 185 8222 117
Width: 600
Flags: W
HStem: -109 242<91 271 91 271 263 263 263 271 167 334>
VStem: 91 180 91 352<-109 133> 263 180
LayerCount: 2
Fore
SplineSet
167 133 m 1xe0
 271 133 l 1
 162 -109 l 1
 91 -109 l 1
 167 133 l 1xe0
340 133 m 1x90
 443 133 l 1
 334 -109 l 1
 263 -109 l 1
 340 133 l 1x90
EndSplineSet
EndChar

StartChar: quotedblright
Encoding: 186 8221 118
Width: 600
Flags: W
HStem: 320 243<91 271 91 271 263 263 263 271 167 334> 543 20G<167 271 271 271 340 443 443 443>
VStem: 91 180 91 352<320 563> 263 180
LayerCount: 2
Fore
SplineSet
167 563 m 1xf0
 271 563 l 1
 162 320 l 1
 91 320 l 1
 167 563 l 1xf0
340 563 m 1x88
 443 563 l 1
 334 320 l 1
 263 320 l 1
 340 563 l 1x88
EndSplineSet
EndChar

StartChar: guillemotright
Encoding: 187 187 119
Width: 600
Flags: W
HStem: 26 404<113 113 113 287> 410 20G<113 113 287 287>
VStem: 80 267<227 394> 80 441<227 394> 254 267<227 394>
LayerCount: 2
Fore
SplineSet
287 430 m 1xd8
 521 227 l 1
 287 26 l 1
 258 62 l 1
 448 227 l 1
 254 394 l 1
 287 430 l 1xd8
113 430 m 1xa0
 347 227 l 1
 113 26 l 1
 83 62 l 1
 274 227 l 1
 80 394 l 1
 113 430 l 1xa0
EndSplineSet
EndChar

StartChar: ellipsis
Encoding: 188 8230 120
Width: 600
Flags: MW
HStem: -17 136<82.5 118.5 282.5 318.5 482.5 518.5>
VStem: 23 154<30 71.5 30 72> 223 154<30 71.5 30 72> 423 154<30 71.5 30 72>
LayerCount: 2
Fore
SplineSet
300 119 m 0
 338 119 377 92 377 51 c 0
 377 9 337 -17 300 -17 c 0
 265 -17 223 7 223 51 c 0
 223 93 263 119 300 119 c 0
500 119 m 0
 538 119 577 92 577 51 c 0
 577 9 537 -17 500 -17 c 0
 465 -17 423 7 423 51 c 0
 423 93 463 119 500 119 c 0
100 119 m 0
 138 119 177 92 177 51 c 0
 177 9 137 -17 100 -17 c 0
 65 -17 23 7 23 51 c 0
 23 93 63 119 100 119 c 0
EndSplineSet
EndChar

StartChar: perthousand
Encoding: 189 8240 121
Width: 600
Flags: W
HStem: -14 47<198 235.5 198 252 458.5 496> 206 47<197.5 235.5 458 496> 347 47<104.5 141.5 104.5 158.5> 418 20G<426 426> 566 47<104 141.5>
VStem: 9 54<458.5 501 458.5 511.5> 102 54<98 141.5 98 151> 183 54<458 502> 276 54<99.5 140> 363 54<98 141 98 150> 537 54<98.5 141>
LayerCount: 2
Fore
SplineSet
216 253 m 0
 288 253 330 185 330 119 c 0
 330 54 288 -14 216 -14 c 0
 144 -14 102 55 102 119 c 0
 102 183 143 253 216 253 c 0
216 206 m 0xc280
 179 206 156 163 156 120 c 0
 156 76 180 33 216 33 c 0
 255 33 276 79 276 120 c 0
 276 160 255 206 216 206 c 0xc280
123 613 m 0x2d
 195 613 237 546 237 480 c 0
 237 413 194 347 123 347 c 0
 51 347 9 416 9 480 c 0
 9 543 50 613 123 613 c 0x2d
123 566 m 0x2d
 85 566 63 522 63 480 c 0
 63 437 86 394 123 394 c 0
 160 394 183 436 183 480 c 0
 183 524 160 566 123 566 c 0x2d
477 253 m 0xc060
 548 253 591 185 591 119 c 0
 591 53 547 -14 477 -14 c 0
 403 -14 363 57 363 119 c 0
 363 181 403 253 477 253 c 0xc060
477 206 m 0xc060
 439 206 417 162 417 120 c 0
 417 76 440 33 477 33 c 0
 515 33 537 77 537 120 c 0
 537 162 515 206 477 206 c 0xc060
426 438 m 1x1040
 446 398 l 1
 39 218 l 1
 19 258 l 1
 426 438 l 1x1040
EndSplineSet
EndChar

StartChar: questiondown
Encoding: 191 191 122
Width: 600
Flags: W
HStem: -140 49<255 335.5 255 340.5> 152 21G 327 123<310.5 347.5 310.5 348>
VStem: 120 52<0.5 67 0.5 82.5> 260 138<371 406> 301 49<194 254 157 254> 424 50<-67 -3 -105 -3>
LayerCount: 2
Fore
SplineSet
474 -3 m 1xf6
 474 -105 l 1
 404 -129 369 -140 312 -140 c 0
 185 -140 120 -60 120 24 c 0
 120 141 234 176 301 194 c 1
 301 254 l 1
 350 254 l 1
 350 157 l 2
 347 156 337 153 330 152 c 0
 263 135 172 113 172 21 c 0
 172 -20 199 -91 311 -91 c 0
 360 -91 391 -80 424 -67 c 1
 424 -3 l 1
 474 -3 l 1xf6
329 327 m 0x28
 290 327 260 354 260 388 c 0
 260 424 292 450 329 450 c 0
 366 450 398 424 398 388 c 0
 398 354 367 327 329 327 c 0x28
EndSplineSet
EndChar

StartChar: grave
Encoding: 193 96 123
Width: 600
Flags: MW
HStem: 503 115<190 374 190 322>
VStem: 190 184<503 618>
LayerCount: 2
Fore
SplineSet
190 618 m 1
 297 618 l 1
 374 503 l 1
 322 503 l 1
 190 618 l 1
EndSplineSet
EndChar

StartChar: acute
Encoding: 194 180 124
Width: 600
Flags: MW
HStem: 503 115<215 411 215 411>
VStem: 215 196<503 618>
LayerCount: 2
Fore
SplineSet
411 618 m 1
 268 503 l 1
 215 503 l 1
 304 618 l 1
 411 618 l 1
EndSplineSet
EndChar

StartChar: circumflex
Encoding: 195 710 125
Width: 600
Flags: MW
HStem: 568 53<295 295>
VStem: 171 257<526 527>
LayerCount: 2
Fore
SplineSet
259 621 m 1
 336 621 l 1
 428 527 l 1
 396 502 l 1
 295 568 l 1
 204 502 l 1
 171 526 l 1
 259 621 l 1
EndSplineSet
EndChar

StartChar: tilde
Encoding: 196 732 126
Width: 600
Flags: W
HStem: 514 106<209.5 381.5> 575 45<221 241>
VStem: 140 320<531 606>
LayerCount: 2
Fore
SplineSet
420 619 m 1xe0
 460 606 l 1
 459 605 458 601 458 599 c 0
 442 545 403 514 360 514 c 0
 338 514 319 522 289 546 c 0
 257 570 248 575 234 575 c 0
 208 575 192 549 182 523 c 0
 182 522 180 517 180 517 c 1
 140 531 l 1
 158 581 185 620 234 620 c 0
 266 620 287 604 308 586 c 0
 333 567 348 559 363 559 c 0
 399 559 413 599 420 619 c 1xe0
EndSplineSet
EndChar

StartChar: macron
Encoding: 197 175 127
Width: 600
Flags: MW
HStem: 542 50<130 470 130 470>
VStem: 130 340<542 592 542 592>
LayerCount: 2
Fore
SplineSet
130 592 m 1
 470 592 l 1
 470 542 l 1
 130 542 l 1
 130 592 l 1
EndSplineSet
EndChar

StartChar: breve
Encoding: 198 728 128
Width: 600
Flags: MW
HStem: 510 43<289 316> 604 20G<138 184 184 184.5 416 462 462 462>
VStem: 138 324<624 624>
LayerCount: 2
Fore
SplineSet
138 624 m 1
 184 624 l 2
 185 624 186 621 186 621 c 1
 220 559 278 553 300 553 c 0
 350 553 389 577 414 621 c 0
 414 622 415 624 416 624 c 2
 462 624 l 1
 423 516 332 510 300 510 c 0
 241 510 188 537 158 580 c 0
 149 593 147 601 138 624 c 1
EndSplineSet
EndChar

StartChar: dotaccent
Encoding: 199 729 129
Width: 600
Flags: MW
HStem: 513 108<264 336 264 336>
VStem: 264 72<513 621 513 621>
LayerCount: 2
Fore
SplineSet
264 513 m 1
 264 621 l 1
 336 621 l 1
 336 513 l 1
 264 513 l 1
EndSplineSet
EndChar

StartChar: dieresis
Encoding: 200 168 130
Width: 600
Flags: W
HStem: 513 108<199 271 199 271 329 401 199 329>
VStem: 199 72<513 621 513 621> 329 72<513 621 513 621>
LayerCount: 2
Fore
SplineSet
199 513 m 1
 199 621 l 1
 271 621 l 1
 271 513 l 1
 199 513 l 1
329 513 m 1xa0
 329 621 l 1
 401 621 l 1
 401 513 l 1
 329 513 l 1xa0
EndSplineSet
EndChar

StartChar: ring
Encoding: 202 730 131
Width: 600
Flags: MW
HStem: 490 38<290.5 311.5 290.5 321> 604 38<290.5 311.5>
VStem: 224 38<555.5 578 555.5 587> 338 38<555.5 576.5>
LayerCount: 2
Fore
SplineSet
300 642 m 0
 342 642 376 608 376 566 c 0
 376 524 342 490 300 490 c 0
 258 490 224 524 224 566 c 0
 224 608 258 642 300 642 c 0
301 604 m 0
 280 604 262 590 262 566 c 0
 262 545 280 528 301 528 c 0
 322 528 338 545 338 566 c 0
 338 587 322 604 301 604 c 0
EndSplineSet
EndChar

StartChar: cedilla
Encoding: 203 184 132
Width: 600
Flags: W
HStem: -145 45<289.5 316 289.5 350> -62 60<273 325> -25 23<322 322>
VStem: 276.5 47 345 47<-93 -83 -93 -77.5>
LayerCount: 2
Fore
SplineSet
325 -2 m 1xb8
 322 -25 l 1xa8
 389 -35 392 -79 392 -87 c 0
 392 -99 388 -145 312 -145 c 0
 263 -145 220 -134 202 -130 c 1
 209 -86 l 1
 230 -91 268 -100 311 -100 c 0
 321 -100 345 -100 345 -87 c 0xc8
 345 -68 312 -65 273 -62 c 1xd8
 280 -2 l 1
 325 -2 l 1xb8
EndSplineSet
EndChar

StartChar: hungarumlaut
Encoding: 205 733 133
Width: 600
Flags: MW
HStem: 504 113<180 354 180 354 306 306 306 350>
VStem: 180 300<504 617>
LayerCount: 2
Fore
SplineSet
354 617 m 1
 224 504 l 1
 180 504 l 1
 278 617 l 1
 354 617 l 1
480 617 m 1
 350 504 l 1
 306 504 l 1
 404 617 l 1
 480 617 l 1
EndSplineSet
EndChar

StartChar: ogonek
Encoding: 206 731 134
Width: 600
Flags: MW
HStem: -117 131<301 310.5>
VStem: 238 59<-52.5 -51>
LayerCount: 2
Fore
SplineSet
364 -40 m 1
 355 -93 l 2
 354 -93 353 -94 353 -95 c 0
 342 -103 325 -117 296 -117 c 0
 262 -117 238 -90 238 -59 c 0
 238 -43 244 -8 301 14 c 1
 395 14 l 1
 395 10 l 1
 370 4 358 2 344 -4 c 0
 328 -11 297 -23 297 -46 c 0
 297 -59 307 -65 316 -65 c 0
 328 -65 336 -59 347 -52 c 0
 352 -49 354 -47 364 -40 c 1
EndSplineSet
EndChar

StartChar: caron
Encoding: 207 711 135
Width: 600
Flags: W
HStem: 509 53<304 304 304 340 264 304> 607 20G<203 203> 608 20G<396 396>
VStem: 171 257<603 603>
LayerCount: 2
Fore
SplineSet
340 509 m 1xb0
 264 509 l 1
 171 603 l 1
 203 627 l 1xd0
 304 562 l 1
 396 628 l 1
 428 603 l 1
 340 509 l 1xb0
EndSplineSet
EndChar

StartChar: emdash
Encoding: 208 8212 136
Width: 600
Flags: MW
HStem: 262 55<-48 648 -48 648>
VStem: -48 696<262 317 262 317>
LayerCount: 2
Fore
SplineSet
-48 317 m 1
 648 317 l 1
 648 262 l 1
 -48 262 l 1
 -48 317 l 1
EndSplineSet
EndChar

StartChar: AE
Encoding: 225 198 137
Width: 600
Flags: W
HStem: 0 47<19 72 122 211 19 72 352 504> 184 47<196 302 196 302 179 302> 275 47<352 417 352 417> 383 12 504 59<300 302 300 300> 516 47<158 261 158 549 352 495 352 352>
VStem: 19 192<0 47 0 47> 302 50<47 184 184 184 231 275 322 504 504 504> 417 46<202 275 275 275 322 395 202 395> 499.5 49.5 507 49
LayerCount: 2
Fore
SplineSet
158 563 m 1xf7a0
 549 563 l 1
 549 383 l 1
 504 383 l 1
 495 516 l 1xf7c0
 352 516 l 1
 352 322 l 1
 417 322 l 1
 417 395 l 1
 463 395 l 1
 463 202 l 1
 417 202 l 1
 417 275 l 1
 352 275 l 1
 352 47 l 1
 504 47 l 1
 510 186 l 1
 556 186 l 1
 556 0 l 1
 302 0 l 1
 302 184 l 1
 179 184 l 1
 122 47 l 1
 211 47 l 1
 211 0 l 1
 19 0 l 1
 19 47 l 1
 72 47 l 1
 261 516 l 1
 158 516 l 1
 158 563 l 1xf7a0
302 231 m 1
 302 504 l 1
 300 504 l 1xfba0
 196 231 l 1
 302 231 l 1
EndSplineSet
EndChar

StartChar: ordfeminine
Encoding: 227 170 138
Width: 600
Flags: W
HStem: 266 36<178 422 178 422> 339 36<245.5 272.5 245.5 273.5> 346 36<384 427 384 427> 459 36<265.5 294 251 297> 544 36<279.5 311>
VStem: 173 38<403.5 428 403.5 438> 346 38<346 500 374 500 423 454 454 454 490 497 497 500 382 513.5>
LayerCount: 2
Fore
SplineSet
205 521 m 1xbe
 191 555 l 1
 238 574 263 580 293 580 c 0
 352 580 384 553 384 500 c 2
 384 382 l 1
 427 382 l 1
 427 346 l 1
 346 346 l 1xbe
 346 374 l 1
 312 348 289 339 258 339 c 0xde
 211 339 173 372 173 414 c 0
 173 462 218 495 284 495 c 0
 304 495 317 494 346 490 c 1
 346 497 l 2
 346 530 330 544 292 544 c 0
 267 544 242 537 205 521 c 1xbe
346 423 m 1xde
 346 454 l 1
 318 458 305 459 289 459 c 0
 242 459 211 442 211 414 c 0
 211 393 233 375 258 375 c 0
 287 375 319 393 346 423 c 1xde
178 302 m 1
 422 302 l 1
 422 266 l 1
 178 266 l 1
 178 302 l 1
EndSplineSet
EndChar

StartChar: Lslash
Encoding: 232 321 139
Width: 600
Flags: W
HStem: 0 47<59 159 209 492 59 159> 239 21G<59 59> 244 21G<159 159> 410 20G<400 400> 516 47<59 159 59 332 209 209 209 332>
VStem: 159 50<47 244 244 244 321 516> 499 48.5
LayerCount: 2
Fore
SplineSet
209 321 m 1xbe
 400 430 l 1
 423 390 l 1
 209 266 l 1
 209 47 l 1
 492 47 l 1
 506 249 l 1
 553 249 l 1
 542 0 l 1
 59 0 l 1
 59 47 l 1
 159 47 l 1
 159 244 l 1
 80 198 l 1xbe
 59 239 l 1
 159 298 l 1xde
 159 516 l 1
 59 516 l 1
 59 563 l 1
 332 563 l 1
 332 516 l 1
 209 516 l 1
 209 321 l 1xbe
EndSplineSet
EndChar

StartChar: Oslash
Encoding: 233 216 140
Width: 600
Flags: W
HStem: -23 21G<98 98> -17 21G -17 50<284.5 361.5 266 382> 530 50<235.5 316.5> 547 20G<502 502>
VStem: 43 54<264 345.5 264 362.5> 503 54<212 288 200 309.5>
LayerCount: 2
Fore
SplineSet
148 37 m 1x36
 98 -23 l 1x96
 64 4 l 1
 114 69 l 1
 79 115 43 176 43 280 c 0
 43 445 142 580 301 580 c 0
 391 580 437 540 463 518 c 1x56
 502 567 l 1
 537 541 l 1
 493 485 l 1x2e
 557 408 557 297 557 279 c 0
 557 121 460 -17 304 -17 c 0
 265 -17 206 -11 148 37 c 1x36
459 441 m 1
 177 78 l 1
 195 63 232 33 300 33 c 0x36
 423 33 503 144 503 280 c 0
 503 339 489 392 459 441 c 1
148 112 m 1
 431 477 l 1
 392 522 334 530 299 530 c 0
 172 530 97 408 97 283 c 0
 97 245 107 161 148 112 c 1
EndSplineSet
EndChar

StartChar: OE
Encoding: 234 338 141
Width: 600
Flags: W
HStem: 0 47<164 302 258 302 352 498> 275 47<352 417 352 417> 383 12 516 47<209 537 279 302 352 484 352 352>
VStem: 16 54<231 343 231 357> 302 50<47 275 322 516> 417 46<202 275 275 275 322 395 202 395> 488.5 48.5 501 49
LayerCount: 2
Fore
SplineSet
279 563 m 2xfe80
 537 563 l 1
 537 383 l 1
 493 383 l 1
 484 516 l 1xff
 352 516 l 1
 352 322 l 1
 417 322 l 1
 417 395 l 1
 463 395 l 1
 463 202 l 1
 417 202 l 1
 417 275 l 1
 352 275 l 1
 352 47 l 1
 498 47 l 1
 504 185 l 1
 550 185 l 1
 550 0 l 1
 242 0 l 2
 86 0 16 161 16 277 c 0
 16 437 121 563 279 563 c 2xfe80
302 47 m 1
 302 516 l 1
 276 516 l 2
 142 516 70 406 70 280 c 0
 70 182 123 47 258 47 c 2
 302 47 l 1
EndSplineSet
EndChar

StartChar: ordmasculine
Encoding: 235 186 142
Width: 600
Flags: MW
HStem: 266 36<178 422 178 422> 339 36<274 326 274 337.5> 544 36<274 326>
VStem: 172 40<435 484.5 435 494.5> 388 40<435 484.5>
LayerCount: 2
Fore
SplineSet
172 459 m 0
 172 530 225 580 300 580 c 0
 375 580 428 530 428 459 c 0
 428 389 375 339 300 339 c 0
 225 339 172 389 172 459 c 0
212 460 m 0
 212 410 248 375 300 375 c 0
 352 375 388 410 388 460 c 0
 388 509 352 544 300 544 c 0
 248 544 212 509 212 460 c 0
178 302 m 1
 422 302 l 1
 422 266 l 1
 178 266 l 1
 178 302 l 1
EndSplineSet
EndChar

StartChar: ae
Encoding: 241 230 143
Width: 600
Flags: W
HStem: -15 48<131 174> -14 48<428 443.5> 203 47<320 513 320 563 320 513> 218 48<149 204 139 205.5> 402 48<179.5 228 407 433>
VStem: 33 50<96.5 134 96.5 150> 270 50<203 203 203 209 203 209> 513 50<203 250>
LayerCount: 2
Fore
SplineSet
563 203 m 1x6f
 320 203 l 1
 322 146 326 111 352 76 c 0
 382 35 419 34 437 34 c 0
 477 34 517 45 550 56 c 1
 568 13 l 1
 496 -12 452 -14 435 -14 c 0x6f
 355 -14 319 41 306 60 c 1
 244 -2 191 -15 157 -15 c 0
 77 -15 33 50 33 116 c 0
 33 184 85 266 193 266 c 0
 215 266 233 262 270 257 c 1x9f
 270 292 l 2
 270 361 259 402 197 402 c 0
 162 402 133 395 77 375 c 1
 63 419 l 1
 118 440 157 450 198 450 c 0
 270 450 293 415 306 375 c 1
 327 403 362 450 425 450 c 0
 441 450 575 447 563 203 c 1x6f
270 89 m 1x9f
 270 209 l 1
 236 216 217 218 194 218 c 0
 104 218 83 152 83 116 c 0
 83 77 106 33 156 33 c 0
 205 33 249 71 270 89 c 1x9f
320 250 m 1x6f
 513 250 l 1
 511 348 478 402 424 402 c 0
 390 402 365 379 351 362 c 0
 322 326 321 293 320 250 c 1x6f
EndSplineSet
EndChar

StartChar: dotlessi
Encoding: 245 305 144
Width: 600
Flags: MW
HStem: 0 47<101 277 327 500 101 277> 383 47<130 277 130 327>
VStem: 277 50<47 383 383 383>
LayerCount: 2
Fore
SplineSet
130 430 m 1
 327 430 l 1
 327 47 l 1
 500 47 l 1
 500 0 l 1
 101 0 l 1
 101 47 l 1
 277 47 l 1
 277 383 l 1
 130 383 l 1
 130 430 l 1
EndSplineSet
EndChar

StartChar: lslash
Encoding: 248 322 145
Width: 600
Flags: MW
HStem: 0 47<101 275 325 499 101 275> 239 21G<116 116> 410 20G<461 461> 557 54
VStem: 275 50<47 277 277 277 352 563 563 563>
LayerCount: 2
Fore
SplineSet
325 352 m 1
 461 430 l 1
 484 390 l 1
 325 298 l 1
 325 47 l 1
 499 47 l 1
 499 0 l 1
 101 0 l 1
 101 47 l 1
 275 47 l 1
 275 277 l 1
 139 198 l 1
 116 239 l 1
 275 331 l 1
 275 563 l 1
 112 551 l 1
 107 597 l 1
 325 611 l 1
 325 352 l 1
EndSplineSet
EndChar

StartChar: oslash
Encoding: 249 248 146
Width: 600
Flags: W
HStem: -14 50<295.5 364 265.5 381> 400 50<235.5 323 218 331> 435 20G<501 501>
VStem: 52 54<205 263> 494 54<172 233 157.5 239.5>
LayerCount: 2
Fore
SplineSet
145 32 m 1xd8
 99 -14 l 1
 60 23 l 1
 106 69 l 1
 60 124 52 188 52 219 c 0
 52 335 136 450 300 450 c 0
 346 450 410 439 452 405 c 1xd8
 501 455 l 1
 539 417 l 1
 493 371 l 1xb8
 541 315 548 248 548 218 c 0
 548 97 460 -14 302 -14 c 0
 289 -14 210 -14 145 32 c 1xd8
454 332 m 1
 184 68 l 1
 208 53 231 36 300 36 c 0
 428 36 494 126 494 218 c 0
 494 261 481 299 454 332 c 1
144 105 m 1
 415 369 l 1
 383 385 362 400 300 400 c 0
 171 400 106 308 106 218 c 0
 106 192 113 144 144 105 c 1
EndSplineSet
EndChar

StartChar: oe
Encoding: 250 339 147
Width: 600
Flags: W
HStem: -15 48<123 210.5 425 446> 205 44<320 514 320 562 320 514> 402 48<414.5 455.5> 403 48<135 199.5>
VStem: 10 54<179.5 246.5 163 261> 270 50<205 205 205 249 205 295.5> 514 50<249 287>
LayerCount: 2
Fore
SplineSet
562 205 m 1xde
 320 205 l 1
 317 66 391 33 435 33 c 0
 478 33 524 47 550 55 c 1
 568 12 l 1
 498 -12 455 -15 437 -15 c 0
 413 -15 339 -9 300 78 c 1
 289 54 258 -15 163 -15 c 0
 9 -15 10 162 10 197 c 0
 10 325 54 451 176 451 c 0xde
 256 451 292 388 300 368 c 1
 331 423 380 450 424 450 c 0xee
 527 450 564 326 564 251 c 0
 564 235 563 214 562 205 c 1xde
270 211 m 0
 270 380 223 403 176 403 c 0
 94 403 64 293 64 200 c 0
 64 126 84 33 162 33 c 0
 271 33 270 175 270 211 c 0
320 249 m 1
 514 249 l 1
 514 325 487 402 424 402 c 0xee
 405 402 322 385 320 249 c 1
EndSplineSet
EndChar

StartChar: germandbls
Encoding: 251 223 148
Width: 600
Flags: W
HStem: -7 50<321.5 372 321.5 402.5> 0 47<65 141 65 191 65 141> 326 46<257 257> 575 50<275.5 331.5>
VStem: 141 50<47 443 0 451 0 505.5> 393 52<452.5 507.5> 459 54<120.5 216.5>
LayerCount: 2
Fore
SplineSet
65 47 m 1x7a
 141 47 l 1
 141 451 l 2
 141 560 218 625 303 625 c 0
 391 625 445 559 445 482 c 0x7e
 445 423 409 374 362 355 c 1
 400 342 513 306 513 161 c 0
 513 73 456 -7 349 -7 c 0
 284 -7 250 15 234 26 c 1
 234 78 l 1
 258 64 295 43 348 43 c 0
 396 43 459 75 459 166 c 0xba
 459 267 389 321 257 326 c 1
 257 372 l 1
 283 374 393 381 393 481 c 0x7e
 393 534 362 575 301 575 c 0
 250 575 191 545 191 443 c 2
 191 0 l 1
 65 0 l 1
 65 47 l 1x7a
EndSplineSet
EndChar

StartChar: copyright
Encoding: 256 169 149
Width: 600
Flags: MW
HStem: -1 38<231 369 231 380> 118 31<275.5 328> 432 29<275 328.5 254.5 333.5> 542 38<231 369.5>
VStem: 10 38<219.5 359.5 219.5 371> 139 51<255 331 255 334> 402 28<342 439> 552 38<219.5 359>
LayerCount: 2
Fore
SplineSet
430 439 m 1
 430 342 l 1
 402 342 l 1
 400 371 399 391 392 402 c 0
 382 419 351 432 316 432 c 0
 234 432 190 368 190 294 c 0
 190 216 238 149 313 149 c 0
 377 149 401 194 414 220 c 1
 438 210 l 1
 415 148 357 118 299 118 c 0
 201 118 139 197 139 290 c 0
 139 378 197 461 312 461 c 0
 345 461 396 451 430 439 c 1
300 580 m 0
 460 580 590 451 590 290 c 0
 590 129 460 -1 300 -1 c 0
 141 -1 10 129 10 290 c 0
 10 452 142 580 300 580 c 0
300 542 m 0
 162 542 48 430 48 289 c 0
 48 150 162 37 300 37 c 0
 438 37 552 150 552 289 c 0
 552 429 439 542 300 542 c 0
EndSplineSet
EndChar

StartChar: approxequalalt
Encoding: 257 -1 150
Width: 600
Flags: W
HStem: 188 57<87 513 87 513> 330 57<385.5 399 385.5 426> 388 57<187.5 217.5> 425 20G<176 222.5>
VStem: 86 429<345 426>
LayerCount: 2
Fore
SplineSet
513 245 m 1xa8
 513 188 l 1
 87 188 l 1
 87 245 l 1
 513 245 l 1xa8
481 464 m 1xc8
 515 426 l 1
 498 397 460 330 392 330 c 0xd8
 378 330 369 330 298 359 c 0
 234 385 227 388 208 388 c 0
 167 388 146 352 119 306 c 1
 86 345 l 1
 86 345 88 348 88 349 c 0
 112 389 145 445 207 445 c 0xa8
 238 445 262 435 313 414 c 0
 366 392 379 387 392 387 c 0
 406 387 442 393 476 455 c 0
 476 456 480 462 481 464 c 1xc8
EndSplineSet
EndChar

StartChar: twosuperior
Encoding: 258 178 151
Width: 600
Flags: W
HStem: 248 40<228 367 228 406> 581 40<270.5 309.5>
VStem: 179 41<531 531 531 566 531 566> 364 43<490.5 529> 367 39<288 345 248 345>
LayerCount: 2
Fore
SplineSet
367 345 m 1xe8
 406 345 l 1
 406 248 l 1xe8
 167 248 l 1
 167 287 l 1
 176 295 l 2
 203 319 262 372 288 396 c 0
 356 458 364 472 364 509 c 0
 364 549 330 581 289 581 c 0
 252 581 221 558 220 531 c 2
 221 519 l 1
 179 519 l 1
 179 566 l 1
 208 602 247 621 290 621 c 0
 355 621 407 571 407 508 c 0xf0
 407 458 385 432 297 351 c 2
 228 288 l 1
 367 288 l 1
 367 345 l 1xe8
EndSplineSet
EndChar

StartChar: rightangle
Encoding: 259 8735 152
Width: 600
Flags: MW
HStem: 0 50<131 510 131 510> 409 20G<81 131 131 131>
VStem: 81 50<50 429 50 429 50 429>
LayerCount: 2
Fore
SplineSet
510 0 m 1
 81 0 l 1
 81 429 l 1
 131 429 l 1
 131 50 l 1
 510 50 l 1
 510 0 l 1
EndSplineSet
EndChar

StartChar: productdot
Encoding: 260 -1 153
Width: 600
Flags: MW
HStem: 235 136<282.5 318.5>
VStem: 223 154<282 323.5 282 324>
LayerCount: 2
Fore
SplineSet
300 371 m 0
 338 371 377 344 377 303 c 0
 377 261 337 235 300 235 c 0
 265 235 223 259 223 303 c 0
 223 345 263 371 300 371 c 0
EndSplineSet
EndChar

StartChar: alpha
Encoding: 261 945 154
Width: 600
Flags: W
HStem: -15 49<196.5 273 196.5 279.5> 0 47<494 560 494 560 450 560> 402 49<196.5 283.5> 428 20G<516 565 565 565>
VStem: 41 53<167 273.5 167 283.5> 450 110<0 47>
LayerCount: 2
Fore
SplineSet
494 47 m 2x68
 560 47 l 1
 560 0 l 1
 450 0 l 1
 446 25 445 35 439 64 c 0x6c
 437 72 429 116 427 124 c 1
 382 61 329 -15 230 -15 c 0
 119 -15 41 97 41 220 c 0
 41 347 120 451 234 451 c 0xac
 361 451 424 328 444 258 c 1
 490 346 507 412 516 448 c 1
 565 448 l 1
 565 447 564 441 563 439 c 0x58
 553 392 539 334 475 205 c 0
 473 202 466 187 464 184 c 0
 465 182 468 172 468 169 c 0
 472 155 481 119 483 107 c 2
 492 57 l 2
 492 55 493 50 494 47 c 2x68
410 192 m 1
 397 277 333 402 234 402 c 0
 159 402 94 327 94 220 c 0
 94 114 157 34 236 34 c 0xa8
 310 34 368 118 410 192 c 1
EndSplineSet
EndChar

StartChar: Sigma
Encoding: 262 931 155
Width: 600
Flags: W
HStem: 0 47<139 432 139 484> 516 47<145 423 145 145>
VStem: 86 53<47 47 47 52 47 52> 427.5 51.5 435 49
LayerCount: 2
Fore
SplineSet
86 563 m 1xe8
 479 563 l 1
 479 380 l 1
 432 380 l 1
 423 516 l 1xf0
 145 516 l 1
 325 298 l 1
 139 47 l 1
 432 47 l 1
 438 184 l 1
 484 184 l 1
 484 0 l 1
 86 0 l 1
 86 52 l 1
 264 298 l 1
 86 511 l 1
 86 563 l 1xe8
EndSplineSet
EndChar

StartChar: Tbar
Encoding: 263 358 156
Width: 600
Flags: MW
HStem: 0 47<154 275 325 448 154 275> 307 47<135 275 135 275 325 465> 516 47<105 275 105 105 325 325 325 495>
VStem: 51.5 47 275 50<47 307 47 307 354 516> 502 46.5
LayerCount: 2
Fore
SplineSet
325 354 m 1
 465 354 l 1
 465 307 l 1
 325 307 l 1
 325 47 l 1
 448 47 l 1
 448 0 l 1
 154 0 l 1
 154 47 l 1
 275 47 l 1
 275 307 l 1
 135 307 l 1
 135 354 l 1
 275 354 l 1
 275 516 l 1
 105 516 l 1
 92 321 l 1
 43 327 l 1
 60 563 l 1
 540 563 l 1
 557 327 l 1
 509 321 l 1
 495 516 l 1
 325 516 l 1
 325 354 l 1
EndSplineSet
EndChar

StartChar: SS270000
Encoding: 264 8993 157
Width: 600
Flags: MW
HStem: -245 110<163.5 187.5 159.5 228.5>
VStem: 258 84<-104 -28 -28 841>
LayerCount: 2
Fore
SplineSet
258 841 m 1
 342 841 l 1
 342 -28 l 2
 342 -184 261 -245 196 -245 c 0
 131 -245 123 -201 123 -186 c 0
 123 -153 148 -135 171 -135 c 0
 204 -135 214 -151 225 -167 c 0
 226 -169 234 -182 241 -182 c 0
 258 -182 258 -163 258 -104 c 2
 258 841 l 1
EndSplineSet
EndChar

StartChar: Scedilla
Encoding: 265 350 158
Width: 600
Flags: W
HStem: -145 45<295.5 321.5 295.5 355.5> -62 95<279 279> -25 21G<327 327> -20 21G<99 144 99 99> -16 49<284 284 328 328> 530 50<256 334 241 372> 554 20G<462 507 507 507>
VStem: 99 54<366.5 441 366.5 453.5> 281.5 46 351 47<-93 -83 -93 -77.5> 459 54<120 181.5 120 191.5> 462 36
LayerCount: 2
Fore
SplineSet
328 -16 m 1x8de0
 327 -25 l 1xa560
 395 -35 398 -79 398 -87 c 0
 398 -99 394 -145 317 -145 c 0
 268 -145 225 -134 207 -130 c 1
 214 -86 l 1
 238 -92 274 -100 317 -100 c 0
 326 -100 351 -100 351 -87 c 0xc560
 351 -68 318 -65 279 -62 c 1xc5e0
 284 -16 l 1
 261 -14 226 -7 195 12 c 0
 190 15 168 33 163 33 c 0
 159 33 155 28 153 25 c 0x8de0
 150 16 149 13 144 -20 c 1
 99 -20 l 1
 108 23 108 65 108 69 c 0x9560
 108 90 102 147 99 175 c 1
 144 175 l 1
 154 125 174 33 302 33 c 0
 406 33 459 84 459 148 c 0x8d60
 459 235 372 247 320 252 c 0
 242 260 99 275 99 408 c 0
 99 499 184 580 298 580 c 0
 370 580 408 550 422 539 c 0
 438 527 441 525 445 525 c 0
 452 525 454 534 456 538 c 0x8d50
 457 542 462 571 462 574 c 1
 507 574 l 1
 500 544 498 527 498 502 c 0x8b50
 498 480 500 440 507 383 c 1
 462 375 l 1x8d50
 456 416 440 530 304 530 c 0
 208 530 153 470 153 412 c 0
 153 321 256 310 305 305 c 0
 380 297 416 292 451 269 c 0
 486 246 513 210 513 153 c 0
 513 87 473 -2 328 -16 c 1x8de0
EndSplineSet
EndChar

StartChar: brokenbar
Encoding: 266 166 159
Width: 600
Flags: MW
HStem: -185 858<274 327 274 327>
VStem: 274 53<-185 188 -185 188 300 673>
LayerCount: 2
Fore
SplineSet
327 673 m 1
 327 300 l 1
 274 300 l 1
 274 673 l 1
 327 673 l 1
327 188 m 1
 327 -185 l 1
 274 -185 l 1
 274 188 l 1
 327 188 l 1
EndSplineSet
EndChar

StartChar: SM680000
Encoding: 267 8976 160
Width: 600
Flags: MW
HStem: 386 52<133 510 133 133>
VStem: 81 52<169 386 169 438>
LayerCount: 2
Fore
SplineSet
510 438 m 1
 510 386 l 1
 133 386 l 1
 133 169 l 1
 81 169 l 1
 81 438 l 1
 510 438 l 1
EndSplineSet
EndChar

StartChar: arrowright
Encoding: 268 8594 161
Width: 600
Flags: MW
HStem: 262 50<26 436 26 436>
VStem: 26 556<280.5 291 280.5 312 280.5 312>
LayerCount: 2
Fore
SplineSet
26 262 m 1
 26 312 l 1
 436 312 l 1
 399 367 396 395 396 396 c 0
 396 399 399 415 417 415 c 0
 426 415 433 407 451 388 c 0
 495 341 555 309 563 305 c 0
 572 301 582 297 582 285 c 0
 582 276 573 272 558 264 c 0
 522 248 475 213 448 182 c 0
 430 161 427 158 417 158 c 0
 402 158 396 170 396 177 c 0
 396 198 426 247 436 262 c 1
 26 262 l 1
EndSplineSet
EndChar

StartChar: approxequal
Encoding: 269 8776 162
Width: 600
Flags: W
HStem: 139 21G<119 119> 163 57<385.5 399 385.5 426> 221 57<187.5 217.5> 330 57<385.5 399 385.5 426> 388 57<187.5 217.5> 425 20G<176 222.5>
VStem: 86 429<178 259 259 345>
LayerCount: 2
Fore
SplineSet
481 464 m 1xba
 515 426 l 1
 498 397 460 330 392 330 c 0x56
 378 330 369 330 298 359 c 0
 234 385 227 388 208 388 c 0
 167 388 146 352 119 306 c 1
 86 345 l 1
 86 345 88 348 88 349 c 0
 112 389 145 445 207 445 c 0xaa
 238 445 262 435 313 414 c 0
 366 392 379 387 392 387 c 0
 406 387 442 393 476 455 c 0
 476 456 480 462 481 464 c 1xba
481 297 m 1
 515 259 l 1
 498 230 460 163 392 163 c 0x4a
 378 163 369 163 298 192 c 0
 234 218 227 221 208 221 c 0
 167 221 146 185 119 139 c 1
 86 178 l 1
 86 178 88 181 88 182 c 0
 112 222 145 278 207 278 c 0xaa
 238 278 262 268 313 247 c 0
 366 225 379 220 392 220 c 0
 406 220 442 226 476 288 c 0
 476 289 480 295 481 297 c 1
EndSplineSet
EndChar

StartChar: club
Encoding: 270 9827 163
Width: 600
Flags: MW
HStem: 0 16<111 111 107 111> 234 21G<293 295 293 293 307 307> 543 20G<263 334.5>
VStem: 295 10<232 232 232 234 232 234>
LayerCount: 2
Fore
SplineSet
495 0 m 1
 107 0 l 1
 111 16 l 1
 117 17 l 1
 197 35 217 44 246 78 c 0
 277 114 295 164 295 212 c 2
 295 234 l 1
 293 234 l 1
 260 163 208 125 145 125 c 0
 74 125 18 181 18 253 c 0
 18 321 66 377 128 379 c 0
 157 377 166 374 201 356 c 1
 203 358 l 1
 178 398 172 412 172 439 c 0
 172 509 227 563 299 563 c 0
 370 563 426 509 426 441 c 0
 426 411 417 387 395 358 c 1
 397 356 l 1
 411 364 l 2
 438 377 449 380 469 380 c 0
 532 380 582 324 582 255 c 0
 582 183 527 125 457 125 c 0
 415 125 368 149 338 184 c 0
 327 196 320 207 307 234 c 1
 305 232 l 1
 306 171 314 137 336 103 c 0
 368 54 404 33 482 18 c 2
 491 16 l 1
 495 0 l 1
EndSplineSet
EndChar

StartChar: SS010000
Encoding: 271 9787 164
Width: 600
Flags: W
HStem: 0 110<268 329.5 268 377.5> 403 160<222 224.5 222 403> 543 20G<222 377.5>
VStem: 18 99<314 314 314 359.5> 255 94<349 372 348.5 372.5> 483 99<314 316 314 314>
LayerCount: 2
Fore
SplineSet
300 563 m 0xbc
 455 563 582 437 582 282 c 0
 582 126 455 0 300 0 c 0
 145 0 18 126 18 282 c 0
 18 437 144 563 300 563 c 0xbc
213 403 m 0xdc
 189 403 170 384 170 361 c 0
 170 337 189 318 213 318 c 0
 236 318 255 337 255 361 c 0
 255 384 236 403 213 403 c 0xdc
391 403 m 0
 368 403 349 384 349 360 c 0
 349 337 368 318 391 318 c 0
 415 318 434 337 434 360 c 0
 434 384 415 403 391 403 c 0
483 316 m 1
 483 314 l 1
 481 316 l 1
 475 277 467 261 447 238 c 0
 410 195 363 175 300 175 c 0
 238 175 191 195 154 238 c 0
 134 261 126 277 119 316 c 1
 117 314 l 1
 122 249 131 219 154 184 c 0
 186 135 236 110 300 110 c 0
 359 110 406 131 439 172 c 0
 468 209 478 244 483 316 c 1
EndSplineSet
EndChar

StartChar: SM490000
Encoding: 272 -1 165
Width: 600
Flags: W
HStem: 0 21G<71 71 531 531> 72 64<263.5 334 263.5 347.5> 533 64<264.5 335> 592 20G<21 21 579 579>
VStem: 83 64<307.5 364 307.5 382.5> 453 64<334 334>
LayerCount: 2
Fore
SplineSet
21 612 m 1xdc
 71 670 l 1
 156 616 217 597 300 597 c 0
 385 597 443 615 531 670 c 1xec
 579 612 l 1
 536 517 516 430 517 334 c 0
 518 234 538 143 579 59 c 1
 531 0 l 1
 457 51 390 72 305 72 c 0
 218 72 148 51 71 0 c 1
 21 59 l 1
 62 142 83 234 83 334 c 0
 83 431 63 518 21 612 c 1xdc
100 588 m 1
 114 535 l 1
 139 465 147 394 147 334 c 0
 147 281 137 200 115 135 c 2
 100 81 l 1
 177 122 229 136 298 136 c 0
 370 136 426 121 499 81 c 1
 484 135 l 2
 466 199 453 281 453 334 c 0
 453 394 458 464 483 535 c 2
 501 586 l 1
 499 588 l 1
 444 551 372 533 298 533 c 0
 231 533 168 550 100 588 c 1
EndSplineSet
EndChar

StartChar: arrowup
Encoding: 273 8593 166
Width: 600
Flags: MW
HStem: 0 21G<275 325 275 275> 568 20G<296 306.5>
VStem: 275 50<0 442>
LayerCount: 2
Fore
SplineSet
325 0 m 1
 275 0 l 1
 275 442 l 1
 220 405 192 402 191 402 c 0
 188 402 172 405 172 423 c 0
 172 432 180 439 199 457 c 0
 246 501 278 561 282 569 c 0
 286 578 290 588 302 588 c 0
 311 588 315 579 323 564 c 0
 339 528 374 481 405 454 c 0
 426 436 429 433 429 423 c 0
 429 408 417 402 410 402 c 0
 389 402 340 432 325 442 c 1
 325 0 l 1
EndSplineSet
EndChar

StartChar: SF020000
Encoding: 274 9492 167
Width: 600
Flags: MW
HStem: 216 72<336 600 336 600>
VStem: 264 72<288 288 288 792>
LayerCount: 2
Fore
SplineSet
336 288 m 1
 600 288 l 1
 600 216 l 1
 264 216 l 1
 264 792 l 1
 336 792 l 1
 336 288 l 1
EndSplineSet
EndChar

StartChar: SF610000
Encoding: 275 9608 168
Width: 600
Flags: MW
HStem: -288 1080<0 600 0 600>
VStem: 0 600<-288 792 -288 792>
LayerCount: 2
Fore
SplineSet
0 -288 m 1
 0 792 l 1
 600 792 l 1
 600 -288 l 1
 0 -288 l 1
EndSplineSet
EndChar

StartChar: commasuperior
Encoding: 276 -1 169
Width: 600
Flags: MW
HStem: 199 156<263 273 210 349>
VStem: 210 139
LayerCount: 2
Fore
SplineSet
263 355 m 1
 349 355 l 1
 273 199 l 1
 210 199 l 1
 263 355 l 1
EndSplineSet
EndChar

StartChar: zeroslash
Encoding: 277 -1 170
Width: 600
Flags: MW
HStem: -12 45<289.5 358 289.5 380.5> 578 45<240.5 314>
VStem: 110 53<281.5 357.5 281.5 370.5> 437 53<251.5 330.5 239 347.5>
LayerCount: 2
Fore
SplineSet
389 598 m 1
 411 655 l 1
 457 638 l 1
 428 563 l 1
 486 485 490 354 490 307 c 0
 490 171 461 -12 300 -12 c 0
 257 -12 234 0 216 10 c 1
 188 -63 l 1
 142 -45 l 1
 176 43 l 1
 113 120 110 258 110 305 c 0
 110 436 137 623 300 623 c 0
 344 623 368 609 389 598 c 1
198 101 m 1
 371 551 l 1
 370 551 370 551 369 553 c 0
 355 566 328 578 300 578 c 0
 181 578 163 411 163 304 c 0
 163 259 168 168 198 101 c 1
404 503 m 1
 234 56 l 1
 256 38 279 33 300 33 c 0
 416 33 437 190 437 313 c 0
 437 382 430 418 406 503 c 1
 404 503 l 1
EndSplineSet
EndChar

StartChar: Tcedilla
Encoding: 278 354 171
Width: 600
Flags: W
HStem: -145 45<279.5 306 279.5 340> -25 21G<312 312> 0 47<154 270 154 275 325 446 154 315> 516 47<105 275 105 105 325 325 325 495>
VStem: 51.5 46.5 275 50<47 516 47 516> 335 47<-93 -80.5 -93 -77.5> 502 46.5
LayerCount: 2
Fore
SplineSet
315 0 m 1
 312 -25 l 1xdd
 375 -34 382 -74 382 -87 c 0
 382 -99 378 -145 302 -145 c 0
 253 -145 210 -134 192 -130 c 1
 199 -86 l 1
 223 -92 258 -100 301 -100 c 0
 311 -100 335 -100 335 -87 c 0
 335 -68 302 -65 263 -62 c 1
 270 0 l 1xbf
 154 0 l 1
 154 47 l 1
 275 47 l 1
 275 516 l 1
 105 516 l 1
 91 321 l 1
 43 327 l 1
 60 563 l 1
 540 563 l 1
 557 327 l 1
 509 321 l 1
 495 516 l 1
 325 516 l 1
 325 47 l 1
 446 47 l 1
 446 0 l 1
 315 0 l 1
EndSplineSet
EndChar

StartChar: carriagereturn
Encoding: 279 8629 172
Width: 600
Flags: MW
HStem: 262 50<164 524 164 574 164 524>
VStem: 524 50<312 527 262 527>
LayerCount: 2
Fore
SplineSet
524 312 m 1
 524 527 l 1
 574 527 l 1
 574 262 l 1
 164 262 l 1
 201 207 204 179 204 178 c 0
 204 175 201 159 183 159 c 0
 174 159 167 167 149 186 c 0
 105 233 45 265 37 269 c 0
 28 273 18 277 18 289 c 0
 18 298 27 302 42 310 c 0
 78 326 125 361 152 392 c 0
 170 413 173 416 183 416 c 0
 198 416 204 404 204 397 c 0
 204 376 174 327 164 312 c 1
 524 312 l 1
EndSplineSet
EndChar

StartChar: diamond
Encoding: 280 9830 173
Width: 600
Flags: MW
HStem: -11 21G 543 20G
VStem: 90 420<276 276>
LayerCount: 2
Fore
SplineSet
100 265 m 1
 90 276 l 1
 105 294 116 308 145 344 c 0
 189 400 199 412 214 434 c 0
 249 481 274 518 299 563 c 1
 328 513 361 466 414 395 c 0
 447 353 475 316 492 297 c 0
 498 290 501 286 510 276 c 1
 495 261 482 245 458 215 c 2
 402 142 l 2
 367 96 327 37 300 -11 c 1
 288 12 273 35 248 71 c 0
 201 137 169 180 149 205 c 2
 100 265 l 1
EndSplineSet
EndChar

StartChar: SF440000
Encoding: 281 9580 174
Width: 600
Flags: MW
HStem: 144 72<0 192 0 264 408 408 408 600> 288 72<0 192 0 264 0 192 408 600>
VStem: 192 72<-288 144 144 144 360 792> 336 72<-288 144 -288 216 360 792>
LayerCount: 2
Fore
SplineSet
264 216 m 1
 264 -288 l 1
 192 -288 l 1
 192 144 l 1
 0 144 l 1
 0 216 l 1
 264 216 l 1
264 288 m 1
 0 288 l 1
 0 360 l 1
 192 360 l 1
 192 792 l 1
 264 792 l 1
 264 288 l 1
336 216 m 1
 600 216 l 1
 600 144 l 1
 408 144 l 1
 408 -288 l 1
 336 -288 l 1
 336 216 l 1
336 288 m 1
 336 792 l 1
 408 792 l 1
 408 360 l 1
 600 360 l 1
 600 288 l 1
 336 288 l 1
EndSplineSet
EndChar

StartChar: trademark
Encoding: 282 8482 175
Width: 600
Flags: MW
HStem: 269 24<55 75.5 166 181 55 75.5 256 269> 537 26<98 98 139 170 139 139>
VStem: 98 41<308 537> 208 26<486 502> 288 27<304 313 313 501> 523 42<308 501 501 501>
LayerCount: 2
Fore
SplineSet
598 563 m 1
 598 539 l 1
 581 539 565 541 565 530 c 2
 565 308 l 2
 565 295 568 295 598 293 c 1
 598 269 l 1
 488 269 l 1
 488 293 l 1
 515 294 523 294 523 308 c 2
 523 501 l 1
 521 501 l 1
 425 269 l 1
 411 269 l 1
 317 501 l 1
 315 501 l 1
 315 313 l 2
 315 295 318 294 350 293 c 1
 350 269 l 1
 256 269 l 1
 256 293 l 1
 282 293 288 295 288 303 c 2
 288 529 l 2
 288 538 273 539 261 539 c 1
 261 563 l 1
 334 563 l 1
 425 340 l 1
 523 563 l 1
 598 563 l 1
234 563 m 1
 232 535 l 1
 234 502 l 1
 234 486 l 1
 208 486 l 1
 207 520 206 537 170 537 c 2
 139 537 l 1
 139 302 l 2
 139 296 139 293 166 293 c 2
 181 293 l 1
 181 269 l 1
 55 269 l 1
 55 293 l 1
 96 293 98 294 98 308 c 2
 98 537 l 1
 35 538 33 532 28 486 c 1
 2 486 l 1
 5 507 7 522 7 543 c 2
 7 563 l 1
 234 563 l 1
EndSplineSet
EndChar

StartChar: sigma
Encoding: 283 963 176
Width: 600
Flags: W
HStem: -15 50<251 348 251 367.5> 400 50<249 592 376 592> 407 43
VStem: 69 54<166.5 258> 477 54<165 255 154.5 268.5>
LayerCount: 2
Fore
SplineSet
592 450 m 1xd8
 592 400 l 1xd8
 410 414 l 1
 408 412 l 1xb8
 490 369 531 298 531 212 c 0
 531 97 434 -15 301 -15 c 0
 163 -15 69 102 69 219 c 0
 69 297 111 369 169 409 c 0
 230 451 321 450 376 450 c 2
 592 450 l 1xd8
301 400 m 0
 197 400 123 316 123 216 c 0
 123 117 201 35 301 35 c 0
 395 35 477 114 477 216 c 0
 477 321 396 400 301 400 c 0
EndSplineSet
EndChar

StartChar: Kcedilla
Encoding: 284 310 177
Width: 600
Flags: W
HStem: -145 45<313.5 340 313.5 374> -62 62<60 297> -25 25<346 346> 0 47<60 144 194 279 60 144 496 588> 516 47<60 144 60 279 194 279 194 194 364 446 514 514 514 559>
VStem: 144 50<47 205 271 516> 300.5 47 364 195<516 563 516 563> 369 47<-93 -83 -93 -77.5>
LayerCount: 2
Fore
SplineSet
60 563 m 1x9d
 279 563 l 1
 279 516 l 1
 194 516 l 1
 194 271 l 1
 446 516 l 1
 364 516 l 1
 364 563 l 1
 559 563 l 1
 559 516 l 1
 514 516 l 1
 297 305 l 1
 349 279 417 228 496 47 c 1
 588 47 l 1
 588 0 l 1
 460 0 l 1
 440 55 408 111 395 135 c 0
 356 201 321 242 263 271 c 1
 194 205 l 1
 194 47 l 1
 279 47 l 1
 279 0 l 1
 60 0 l 1
 60 47 l 1
 144 47 l 1
 144 516 l 1
 60 516 l 1
 60 563 l 1x9d
349 0 m 1xaf
 346 -25 l 1xac80
 413 -35 416 -79 416 -87 c 0
 416 -99 412 -145 336 -145 c 0
 287 -145 244 -134 226 -130 c 1
 233 -86 l 1
 257 -92 292 -100 335 -100 c 0
 345 -100 369 -100 369 -87 c 0xcc80
 369 -68 336 -65 297 -62 c 1xcf
 304 0 l 1
 349 0 l 1xaf
EndSplineSet
EndChar

StartChar: tquoteright
Encoding: 285 -1 178
Width: 600
Flags: W
HStem: -14 50<269 311.5 242.5 332.5> 369 47<73 141 73 141 191 433> 369 194<73 191 73 191 141 433 141 191>
VStem: 141 50<180 369 416 563>
LayerCount: 2
Fore
SplineSet
141 563 m 1xf0
 191 563 l 1xb0
 191 416 l 1
 433 416 l 1
 433 369 l 1
 191 369 l 1
 191 180 l 2
 191 106 190 36 295 36 c 0
 328 36 371 39 488 88 c 1
 506 43 l 1
 442 14 365 -14 300 -14 c 0
 238 -14 197 10 176 31 c 0
 141 66 141 114 141 180 c 2
 141 369 l 1
 73 369 l 1
 73 416 l 1
 141 416 l 1xd0
 141 563 l 1xf0
543 563 m 1
 646 563 l 1
 537 320 l 1
 466 320 l 1
 543 563 l 1
EndSplineSet
EndChar

StartChar: aogonek
Encoding: 286 261 179
Width: 600
Flags: W
HStem: -117 52<423 467> -14 48<191 235.5 191 261> 0 47<411 550 500 500 500 550> 230 48<198.5 275.5 188 308.5> 402 48<272 350.5>
VStem: 59 54<101 132 101 154> 411 50<47 72 72 72 139 219 219 219 265 296 47 312>
LayerCount: 2
Fore
SplineSet
508 -40 m 1xbe
 499 -93 l 1
 486 -104 469 -117 440 -117 c 0
 406 -117 382 -90 382 -59 c 0
 382 -36 394 -17 417 -2 c 1
 417 0 l 1
 411 0 l 1xbe
 411 72 l 1
 370 34 302 -14 220 -14 c 0xde
 121 -14 59 58 59 127 c 0
 59 181 105 278 271 278 c 0
 280 278 350 277 411 265 c 1
 411 296 l 2
 411 328 411 402 290 402 c 0
 254 402 199 395 119 360 c 1
 100 405 l 1
 143 423 212 450 291 450 c 0
 461 450 461 335 461 296 c 2
 461 47 l 1
 550 47 l 1
 550 0 l 1
 500 0 l 1
 480 -6 441 -23 441 -46 c 0
 441 -59 451 -65 460 -65 c 0
 474 -65 477 -62 508 -40 c 1xbe
411 139 m 1
 411 219 l 1
 388 223 336 230 281 230 c 0
 116 230 113 138 113 126 c 0
 113 76 163 34 219 34 c 0xde
 252 34 325 43 411 139 c 1
EndSplineSet
EndChar

StartChar: SF280000
Encoding: 287 9563 180
Width: 600
Flags: MW
HStem: 144 72<0 264 0 336 0 264> 288 72<0 264 0 264>
VStem: 264 72<216 288 288 288 360 792 144 792>
LayerCount: 2
Fore
SplineSet
336 792 m 1
 336 144 l 1
 0 144 l 1
 0 216 l 1
 264 216 l 1
 264 288 l 1
 0 288 l 1
 0 360 l 1
 264 360 l 1
 264 792 l 1
 336 792 l 1
EndSplineSet
EndChar

StartChar: tbar
Encoding: 288 359 181
Width: 600
Flags: W
HStem: -14 50<300.5 342 276 366.5> 259 47<106 173 106 173 223 465> 369 47<106 173 106 173 223 465> 369 194<106 223 106 223 173 223 173 465>
VStem: 173 50<180 259 306 369 416 563>
LayerCount: 2
Fore
SplineSet
223 306 m 1xe8
 465 306 l 1
 465 259 l 1
 223 259 l 1
 223 180 l 2
 223 103 225 36 327 36 c 0
 357 36 397 37 520 88 c 1
 538 43 l 1
 486 19 402 -14 331 -14 c 0
 270 -14 229 10 208 31 c 0
 173 66 173 114 173 180 c 2
 173 259 l 1
 106 259 l 1
 106 306 l 1
 173 306 l 1
 173 369 l 1
 106 369 l 1
 106 416 l 1
 173 416 l 1xe8
 173 563 l 1
 223 563 l 1xd8
 223 416 l 1
 465 416 l 1
 465 369 l 1
 223 369 l 1
 223 306 l 1xe8
EndSplineSet
EndChar

StartChar: SF600000
Encoding: 289 9600 182
Width: 600
Flags: MW
HStem: 252 540<0 600 0 600>
VStem: 0 600<252 792 252 792>
LayerCount: 2
Fore
SplineSet
0 252 m 1
 0 792 l 1
 600 792 l 1
 600 252 l 1
 0 252 l 1
EndSplineSet
EndChar

StartChar: registered
Encoding: 290 174 183
Width: 600
Flags: MW
HStem: 0 38<230 370 230 380> 135 23<160 287 160 160> 285 24<246 264 246 269> 442 24<268.5 298 298 300> 542 38<231 368.5>
VStem: 10 38<221 360 221 371> 201 45<185 285 309 418 418 421> 369 45<375.5 408.5> 552 38<221 360.5>
LayerCount: 2
Fore
SplineSet
160 441 m 1
 160 466 l 1
 298 466 l 2
 319 466 414 466 414 381 c 0
 414 370 414 313 338 295 c 1
 359 280 371 254 392 206 c 0
 413 159 418 158 452 159 c 1
 452 135 l 1
 412 135 l 2
 373 135 361 164 343 211 c 0
 316 282 311 285 264 285 c 2
 246 285 l 1
 246 185 l 2
 246 168 246 166 253 162 c 0
 255 161 277 159 287 158 c 1
 287 135 l 1
 160 135 l 1
 160 158 l 1
 164 159 171 159 174 160 c 0
 198 162 201 162 201 185 c 2
 201 418 l 2
 201 434 201 436 195 438 c 0
 192 439 191 439 160 441 c 1
246 421 m 2
 246 309 l 1
 269 309 l 2
 329 309 369 326 369 378 c 0
 369 439 313 442 287 442 c 0
 250 442 246 441 246 421 c 2
300 580 m 0
 459 580 590 452 590 290 c 0
 590 131 460 0 300 0 c 0
 140 0 10 131 10 290 c 0
 10 452 142 580 300 580 c 0
300 542 m 0
 162 542 48 430 48 290 c 0
 48 152 160 38 300 38 c 0
 440 38 552 152 552 290 c 0
 552 431 437 542 300 542 c 0
EndSplineSet
EndChar

StartChar: threeeighths
Encoding: 291 8540 184
Width: 600
Flags: W
HStem: -85 38<456 498.5 456 510.5> 89 38<458.5 496.5> 241 38<116.5 155 116.5 165> 258 38<457.5 496> 424.5 36.5 428 20G 584 38<117.5 148> 593 20G<579 579>
VStem: 195 40<515.5 543> 213 40<331.5 374.5 321 376.5> 358 41<0.5 39> 365 41<177.5 214 174.5 223.5> 548 41<178 213.5> 555 41<0 39 -9 42>
LayerCount: 2
Fore
SplineSet
358 21 m 0xd664
 358 57 377 88 411 109 c 1
 380 133 365 160 365 195 c 0
 365 252 414 296 477 296 c 0
 540 296 589 251 589 195 c 0xd658
 589 161 574 132 543 109 c 1
 577 88 596 57 596 21 c 0
 596 -39 544 -85 477 -85 c 0
 410 -85 358 -39 358 21 c 0xd664
406 194 m 0xd658
 406 155 440 127 477 127 c 0
 517 127 548 155 548 194 c 0
 548 233 515 258 477 258 c 0
 438 258 406 234 406 194 c 0xd658
399 19 m 0xdaa4
 399 -18 435 -47 477 -47 c 0
 520 -47 555 -20 555 20 c 0
 555 64 516 89 477 89 c 0
 434 89 399 64 399 19 c 0xdaa4
41 549 m 1
 22 581 l 1
 70 612 96 622 129 622 c 0
 189 622 235 581 235 527 c 0xd6a4
 235 494 223 470 195 448 c 1xd664
 235 425 253 395 253 354 c 0
 253 288 201 241 129 241 c 0
 100 241 80 247 33 265 c 2
 15 272 l 1
 30 307 l 1
 75 286 102 279 131 279 c 0
 179 279 213 309 213 354 c 0
 213 399 183 427 129 425 c 2xea64
 107 424 l 1
 107 461 l 1
 142 462 155 465 169 475 c 0
 186 487 195 505 195 526 c 0
 195 560 167 584 129 584 c 0
 106 584 88 577 56 558 c 2
 41 549 l 1
550 633 m 1
 579 613 l 1xd564
 69 -90 l 1
 41 -68 l 1
 550 633 l 1
EndSplineSet
EndChar

StartChar: delta
Encoding: 292 948 185
Width: 600
Flags: W
HStem: -15 50<251.5 346.5 251.5 360.5> 368 50<275 309 275 347.5> 546 20G<185 185> 568 47<185 470 185 185>
VStem: 81 54<156 227.5> 133 52<566 568> 465 54<158.5 252>
LayerCount: 2
Fore
SplineSet
470 615 m 1xda
 470 568 l 1xda
 185 568 l 1
 185 566 l 1xe6
 375 424 l 2
 453 365 519 315 519 205 c 0
 519 83 421 -15 300 -15 c 0
 174 -15 81 88 81 203 c 0
 81 252 99 311 135 346 c 0xda
 200 409 241 418 309 418 c 1
 309 420 l 1
 185 509 l 2
 160 527 154 533 133 557 c 1
 133 615 l 1xd6
 470 615 l 1xda
300 368 m 0
 193 368 135 289 135 202 c 0
 135 110 205 35 298 35 c 0
 395 35 465 113 465 204 c 0
 465 300 395 368 300 368 c 0
EndSplineSet
EndChar

StartChar: SF420000
Encoding: 293 9568 186
Width: 600
Flags: MW
HStem: 144 72<408 600 408 408> 288 72<408 600 408 600>
VStem: 192 72<-288 792 -288 792> 336 72<-288 144 -288 216 360 792>
LayerCount: 2
Fore
SplineSet
192 -288 m 1
 192 792 l 1
 264 792 l 1
 264 -288 l 1
 192 -288 l 1
336 216 m 1
 600 216 l 1
 600 144 l 1
 408 144 l 1
 408 -288 l 1
 336 -288 l 1
 336 216 l 1
336 288 m 1
 336 792 l 1
 408 792 l 1
 408 360 l 1
 600 360 l 1
 600 288 l 1
 336 288 l 1
EndSplineSet
EndChar

StartChar: SF480000
Encoding: 294 9573 187
Width: 600
Flags: MW
HStem: 216 72<0 192 0 600 264 336 264 264 408 408 408 600>
VStem: 192 72<-288 216 -288 216> 336 72<-288 216 -288 216>
LayerCount: 2
Fore
SplineSet
336 216 m 1
 264 216 l 1
 264 -288 l 1
 192 -288 l 1
 192 216 l 1
 0 216 l 1
 0 288 l 1
 600 288 l 1
 600 216 l 1
 408 216 l 1
 408 -288 l 1
 336 -288 l 1
 336 216 l 1
EndSplineSet
EndChar

StartChar: SM570001
Encoding: 295 9688 188
Width: 600
Flags: MW
HStem: 0 140<273 327 273 539> 338 140<273 327>
VStem: 61 140<211 265.5 211 478> 399 140<211 265.5>
LayerCount: 2
Fore
SplineSet
61 0 m 1
 61 478 l 1
 539 478 l 1
 539 0 l 1
 61 0 l 1
300 338 m 0
 246 338 201 293 201 238 c 0
 201 184 246 140 300 140 c 0
 354 140 399 184 399 238 c 0
 399 293 354 338 300 338 c 0
EndSplineSet
EndChar

StartChar: SF010000
Encoding: 296 9484 189
Width: 600
Flags: MW
HStem: 216 72<336 336 336 600>
VStem: 264 72<-288 216 -288 288>
LayerCount: 2
Fore
SplineSet
336 216 m 1
 336 -288 l 1
 264 -288 l 1
 264 288 l 1
 600 288 l 1
 600 216 l 1
 336 216 l 1
EndSplineSet
EndChar

StartChar: dquoteright
Encoding: 297 -1 190
Width: 600
Flags: W
HStem: -10 50<199 253.5> 0 47<465 550 465 550> 384 50<200 272.5 188 299.5> 542 20G<581 684 684 684> 607 20G<465 465>
VStem: 22 54<162 264.5 162 279.5> 415 50<47 74 74 74 348 573 573 573>
LayerCount: 2
Fore
SplineSet
251 608 m 1x7e
 465 627 l 1
 465 47 l 1
 550 47 l 1
 550 0 l 1
 415 0 l 1x7e
 415 74 l 1
 413 74 l 1
 351 -10 263 -10 244 -10 c 0xbe
 119 -10 22 92 22 212 c 0
 22 347 134 434 242 434 c 0
 303 434 376 403 413 348 c 1
 415 348 l 1
 415 573 l 1
 254 563 l 1
 251 608 l 1x7e
413 210 m 0
 413 289 355 384 244 384 c 0
 156 384 76 316 76 213 c 0
 76 111 154 40 244 40 c 0xbe
 335 40 413 112 413 210 c 0
581 562 m 1x7e
 684 562 l 1
 576 319 l 1
 505 319 l 1
 581 562 l 1x7e
EndSplineSet
EndChar

StartChar: SS000000
Encoding: 298 9786 191
Width: 600
Flags: MW
HStem: 0 38<232.5 367.5 232.5 377.5> 110 65<269 329.5> 321 78<205 227 373.5 395> 525 38<232.5 367.5>
VStem: 18 38<214.5 349.5 214.5 359.5> 177 78<349.5 371> 345 78<348.5 370> 544 38<214.5 349.5>
LayerCount: 2
Fore
SplineSet
300 563 m 0
 455 563 582 437 582 282 c 0
 582 126 455 0 300 0 c 0
 145 0 18 126 18 282 c 0
 18 437 144 563 300 563 c 0
300 525 m 0
 165 525 56 417 56 282 c 0
 56 147 165 38 300 38 c 0
 435 38 544 147 544 282 c 0
 544 417 435 525 300 525 c 0
216 399 m 0
 238 399 255 382 255 360 c 0
 255 339 238 321 216 321 c 0
 194 321 177 339 177 360 c 0
 177 382 194 399 216 399 c 0
384 399 m 0
 406 399 423 381 423 359 c 0
 423 337 406 321 384 321 c 0
 363 321 345 338 345 359 c 0
 345 381 363 399 384 399 c 0
483 316 m 1
 478 244 467 209 438 172 c 0
 406 131 359 110 300 110 c 0
 236 110 186 135 154 184 c 0
 131 219 122 249 117 316 c 1
 126 277 134 261 154 238 c 0
 191 195 238 175 300 175 c 0
 363 175 410 195 447 238 c 0
 467 261 474 277 483 316 c 1
EndSplineSet
EndChar

StartChar: plussuperior
Encoding: 299 8314 192
Width: 600
Flags: W
HStem: 409 43<141 275 141 275 325 459> 409 164<141 325 141 325 275 459 275 325>
VStem: 275 50<288 409 288 409 452 573>
LayerCount: 2
Fore
SplineSet
275 573 m 1xe0
 325 573 l 1x60
 325 452 l 1
 459 452 l 1
 459 409 l 1
 325 409 l 1
 325 288 l 1
 275 288 l 1
 275 409 l 1
 141 409 l 1
 141 452 l 1
 275 452 l 1xa0
 275 573 l 1xe0
EndSplineSet
EndChar

StartChar: divide
Encoding: 300 247 193
Width: 600
Flags: MW
HStem: 78 90<288 311 288 311.5> 278 50<66 534 66 534> 438 90<288.5 312 288.5 313>
VStem: 255 90<110.5 136 471 496>
LayerCount: 2
Fore
SplineSet
300 528 m 0
 324 528 345 509 345 483 c 0
 345 459 326 438 300 438 c 0
 275 438 255 459 255 483 c 0
 255 510 277 528 300 528 c 0
66 328 m 1
 534 328 l 1
 534 278 l 1
 66 278 l 1
 66 328 l 1
300 168 m 0
 322 168 345 150 345 123 c 0
 345 97 323 78 300 78 c 0
 276 78 255 98 255 123 c 0
 255 149 276 168 300 168 c 0
EndSplineSet
EndChar

StartChar: uogonek
Encoding: 301 371 194
Width: 600
Flags: W
HStem: -117 52<429 472.5> -14 51<214 291.5 214 306.5> 0 47<506 556 506 506> 383 47<32 114 32 164 339 425>
VStem: 114 50<165 383 383 383> 425 50<47 55 55 55 123 383 383 383>
LayerCount: 2
Fore
SplineSet
514 -40 m 1xdc
 504 -93 l 1
 492 -104 475 -117 446 -117 c 0
 412 -117 388 -90 388 -59 c 0
 388 -28 410 -8 425 2 c 1
 425 55 l 1
 397 30 345 -14 268 -14 c 0
 142 -14 114 86 114 165 c 2
 114 383 l 1
 32 383 l 1
 32 430 l 1
 164 430 l 1
 164 165 l 2
 164 139 164 37 264 37 c 0
 319 37 371 63 425 123 c 1xdc
 425 383 l 1
 339 383 l 1
 339 430 l 1
 475 430 l 1
 475 47 l 1
 556 47 l 1
 556 0 l 1
 506 0 l 1xbc
 485 -6 447 -23 447 -46 c 0
 447 -59 457 -65 466 -65 c 0
 479 -65 483 -62 514 -40 c 1xdc
EndSplineSet
EndChar

StartChar: SF410000
Encoding: 302 9574 195
Width: 600
Flags: MW
HStem: 144 72<0 192 0 264 408 600 408 408> 288 72<0 600 0 600>
VStem: 192 72<-288 144 144 144> 336 72<-288 144>
LayerCount: 2
Fore
SplineSet
408 -288 m 1
 336 -288 l 1
 336 216 l 1
 600 216 l 1
 600 144 l 1
 408 144 l 1
 408 -288 l 1
0 216 m 1
 264 216 l 1
 264 -288 l 1
 192 -288 l 1
 192 144 l 1
 0 144 l 1
 0 216 l 1
600 288 m 1
 0 288 l 1
 0 360 l 1
 600 360 l 1
 600 288 l 1
EndSplineSet
EndChar

StartChar: SM630000
Encoding: 303 9664 196
Width: 600
Flags: MW
HStem: 83 397<560 560>
VStem: 0 560<282 282>
LayerCount: 2
Fore
SplineSet
560 83 m 1
 0 282 l 1
 560 480 l 1
 560 83 l 1
EndSplineSet
EndChar

StartChar: Aogonek
Encoding: 304 260 197
Width: 600
Flags: W
HStem: -117 52<462 506> 0 47<10 63 113 215 10 63 385 456 539 590> 186 44<187 413 187 430 169 413> 516 47<113 256 113 328>
VStem: 10 205<0 47 0 47> 385 205<0 47 0 47> 421 60<-52.5 -47.5>
LayerCount: 2
Fore
SplineSet
548 -40 m 1xfa
 538 -93 l 1
 525 -104 508 -117 479 -117 c 0
 445 -117 421 -90 421 -59 c 0
 421 -36 433 -17 456 -2 c 1
 456 0 l 1xfa
 385 0 l 1
 385 47 l 1
 487 47 l 1
 430 186 l 1
 169 186 l 1
 113 47 l 1
 215 47 l 1
 215 0 l 1
 10 0 l 1
 10 47 l 1
 63 47 l 1
 256 516 l 1
 113 516 l 1
 113 563 l 1
 328 563 l 1
 539 47 l 1
 590 47 l 1
 590 0 l 1xfc
 539 0 l 1
 519 -6 481 -23 481 -46 c 0
 481 -59 491 -65 499 -65 c 0
 513 -65 516 -62 548 -40 c 1xfa
413 230 m 1
 300 504 l 1
 187 230 l 1
 413 230 l 1
EndSplineSet
EndChar

StartChar: SF070000
Encoding: 305 9524 198
Width: 600
Flags: MW
HStem: 216 72<0 264 336 600 0 264>
VStem: 264 72<288 792>
LayerCount: 2
Fore
SplineSet
336 288 m 1
 600 288 l 1
 600 216 l 1
 0 216 l 1
 0 288 l 1
 264 288 l 1
 264 792 l 1
 336 792 l 1
 336 288 l 1
EndSplineSet
EndChar

StartChar: scedilla
Encoding: 306 351 199
Width: 600
Flags: W
HStem: -145 45<290.5 316.5 290.5 350.5> -62 97<274 274> -25 21G<322 322> -13 48<280 280> 149 21G<97 97> 393 50<237.5 299 223.5 345.5> 443 7
VStem: 99 54<281.5 338.5 281.5 353> 103 38 277 46 346 47<-93 -83 -93 -77.5> 450 54<86.5 153>
LayerCount: 2
Fore
SplineSet
324 -15 m 1xbd70
 322 -25 l 1xad30
 390 -35 393 -79 393 -87 c 0
 393 -99 389 -145 312 -145 c 0
 264 -145 220 -134 202 -130 c 1
 209 -86 l 1
 233 -92 269 -100 312 -100 c 0
 321 -100 346 -100 346 -87 c 0xcd30
 346 -68 313 -65 274 -62 c 1xcd70
 280 -13 l 1
 256 -9 233 -5 201 9 c 0
 194 12 161 29 161 29 c 1
 152 29 147 10 141 -13 c 1
 97 -13 l 1
 100 4 103 17 103 50 c 0
 103 93 99 126 97 149 c 1
 141 154 l 1x9cf0
 147 120 163 35 302 35 c 0
 342 35 450 46 450 123 c 0
 450 183 390 185 307 188 c 0
 254 190 99 196 99 317 c 0
 99 389 171 443 276 443 c 0
 322 443 356 433 380 420 c 0
 383 418 409 405 413 405 c 0x9d30
 422 405 423 409 437 450 c 1
 482 443 l 1
 478 422 473 396 473 357 c 0xab30
 473 329 476 311 478 294 c 1
 434 289 l 1
 426 328 414 393 277 393 c 0
 198 393 153 359 153 318 c 0
 153 245 242 242 359 236 c 0
 382 235 504 228 504 123 c 0
 504 50 441 -8 324 -15 c 1xbd70
EndSplineSet
EndChar

StartChar: arrowdown
Encoding: 307 8595 200
Width: 600
Flags: MW
HStem: -25 21G<293.5 304> 543 20G<275 325 325 325>
VStem: 275 50<121 563 121 563>
LayerCount: 2
Fore
SplineSet
275 563 m 1
 325 563 l 1
 325 121 l 1
 380 158 408 161 409 161 c 0
 412 161 428 158 428 140 c 0
 428 131 420 124 401 106 c 0
 354 62 322 2 318 -6 c 0
 314 -15 310 -25 298 -25 c 0
 289 -25 285 -16 277 -1 c 0
 261 35 226 82 195 109 c 0
 174 127 171 130 171 140 c 0
 171 155 183 161 190 161 c 0
 211 161 260 131 275 121 c 1
 275 563 l 1
EndSplineSet
EndChar

StartChar: thorn
Encoding: 308 254 201
Width: 600
Flags: W
HStem: -157 47<19 101 151 300 19 101> -7 50<319 370 286 381> 393 50<274 382> 575 54 600 20G<12 12>
VStem: 101 50<-110 79 359 577 577 577> 494 54<169 261.5>
LayerCount: 2
Fore
SplineSet
151 629 m 1xf6
 151 359 l 1
 153 359 l 1
 170 383 218 443 325 443 c 0
 460 443 548 334 548 219 c 0
 548 84 435 -7 327 -7 c 0
 311 -7 222 -7 153 79 c 1
 151 79 l 1
 151 -110 l 1
 300 -110 l 1
 300 -157 l 1
 19 -157 l 1
 19 -110 l 1
 101 -110 l 1
 101 577 l 1
 12 573 l 1xf6
 12 620 l 1xee
 151 629 l 1xf6
147 222 m 0
 147 104 247 43 325 43 c 0
 415 43 494 118 494 220 c 0
 494 303 438 393 326 393 c 0
 222 393 147 314 147 222 c 0
EndSplineSet
EndChar

StartChar: dbar
Encoding: 309 273 202
Width: 600
Flags: W
HStem: -10 50<230 284.5> 0 47<496 581 496 581> 384 50<231 303.5 219 330.5> 473 47<205 446 205 446 496 581> 607 20G<496 496>
VStem: 53 54<162 264.5 162 279.5> 446 50<47 74 74 74 348 473 47 473 520 573 573 573>
LayerCount: 2
Fore
SplineSet
282 608 m 1x7e
 496 627 l 1
 496 520 l 1
 581 520 l 1
 581 473 l 1
 496 473 l 1
 496 47 l 1
 581 47 l 1
 581 0 l 1
 446 0 l 1x7e
 446 74 l 1
 444 74 l 1
 382 -10 294 -10 275 -10 c 0xbe
 150 -10 53 92 53 212 c 0
 53 347 165 434 273 434 c 0
 334 434 407 403 444 348 c 1
 446 348 l 1
 446 473 l 1
 205 473 l 1
 205 520 l 1
 446 520 l 1
 446 573 l 1
 285 563 l 1
 282 608 l 1x7e
444 210 m 0
 444 289 386 384 275 384 c 0
 187 384 107 316 107 213 c 0
 107 111 185 40 275 40 c 0xbe
 366 40 444 112 444 210 c 0
EndSplineSet
EndChar

StartChar: sixsuperior
Encoding: 310 8310 203
Width: 600
Flags: W
HStem: 240 40<279.5 320 279.5 332> 423 20G<226 226> 434 40<295 321> 580 40<407 415>
VStem: 179 44 367 44<334.5 378.5>
LayerCount: 2
Fore
SplineSet
415 620 m 1xdc
 415 580 l 1
 399 580 394 580 378 581 c 0
 329 580 306 576 282 559 c 0
 251 537 236 508 224 445 c 1
 226 443 l 1xdc
 238 455 250 463 263 468 c 0
 275 473 288 474 302 474 c 0xbc
 363 474 411 422 411 356 c 0
 411 291 362 240 302 240 c 0
 228 240 179 306 179 406 c 0
 179 486 208 556 255 590 c 0
 287 613 317 620 379 621 c 0
 395 621 399 620 415 620 c 1xdc
223 376 m 1xbc
 226 320 258 280 301 280 c 0
 339 280 367 312 367 357 c 0
 367 400 339 434 303 434 c 0
 268 434 238 413 223 376 c 1xbc
EndSplineSet
EndChar

StartChar: SF470000
Encoding: 311 9572 204
Width: 600
Flags: MW
HStem: 144 72<0 264 0 600 336 600 336 336> 288 72<0 600 0 600>
VStem: 264 72<-288 144 -288 144>
LayerCount: 2
Fore
SplineSet
336 144 m 1
 336 -288 l 1
 264 -288 l 1
 264 144 l 1
 0 144 l 1
 0 216 l 1
 600 216 l 1
 600 144 l 1
 336 144 l 1
600 288 m 1
 0 288 l 1
 0 360 l 1
 600 360 l 1
 600 288 l 1
EndSplineSet
EndChar

StartChar: similar
Encoding: 312 8764 205
Width: 600
Flags: W
HStem: 254 57<386 399 384.5 426> 312 57<188 218>
VStem: 86 429<268 349>
LayerCount: 2
Fore
SplineSet
481 387 m 1
 515 349 l 1
 499 321 460 254 392 254 c 0xa0
 380 254 368 254 298 282 c 0
 234 307 228 312 208 312 c 0
 168 312 147 277 119 229 c 1
 86 268 l 1
 112 313 145 369 208 369 c 0x60
 237 369 261 359 313 337 c 0
 366 315 378 311 391 311 c 0
 407 311 442 318 476 378 c 0
 476 380 480 386 481 387 c 1
EndSplineSet
EndChar

StartChar: SS260000
Encoding: 313 8992 206
Width: 600
Flags: MW
HStem: 731 110<412 436 370.5 439>
VStem: 258 84<-245 624 624 700>
LayerCount: 2
Fore
SplineSet
342 -245 m 1
 258 -245 l 1
 258 624 l 2
 258 776 337 841 404 841 c 0
 468 841 477 798 477 782 c 0
 477 747 450 731 428 731 c 0
 396 731 386 747 375 763 c 0
 374 765 366 777 360 777 c 0
 342 777 342 760 342 700 c 2
 342 -245 l 1
EndSplineSet
EndChar

StartChar: degree
Encoding: 314 176 207
Width: 600
Flags: MW
HStem: 315 55<273 327.5 273 343> 566 55<273 327.5>
VStem: 147 55<441 495.5 441 509.5> 398 55<441 495.5>
LayerCount: 2
Fore
SplineSet
147 467 m 0
 147 552 215 621 300 621 c 0
 387 621 453 550 453 467 c 0
 453 384 386 315 300 315 c 0
 215 315 147 382 147 467 c 0
202 468 m 0
 202 414 246 370 300 370 c 0
 355 370 398 414 398 468 c 0
 398 523 355 566 300 566 c 0
 246 566 202 523 202 468 c 0
EndSplineSet
EndChar

StartChar: SF520000
Encoding: 315 9555 208
Width: 600
Flags: MW
HStem: 216 72<264 336 264 264 408 408 408 600>
VStem: 192 72<-288 216 -288 288> 336 72<-288 216 -288 216>
LayerCount: 2
Fore
SplineSet
336 216 m 1
 264 216 l 1
 264 -288 l 1
 192 -288 l 1
 192 288 l 1
 600 288 l 1
 600 216 l 1
 408 216 l 1
 408 -288 l 1
 336 -288 l 1
 336 216 l 1
EndSplineSet
EndChar

StartChar: ccedilla
Encoding: 316 231 209
Width: 600
Flags: W
HStem: -144 44<302.5 315 302.5 334.5> -13 49<286 286 330 330> 395 50<251 328.5> 418 20G<523 523>
VStem: 71 54<174.5 260.5 174.5 269> 284 46 326 45<-85 -73.5>
LayerCount: 2
Fore
SplineSet
330 -13 m 1xec
 330 -26 l 1xec
 358 -33 371 -58 371 -81 c 0
 371 -103 358 -144 311 -144 c 0
 285 -144 269 -133 253 -122 c 1
 275 -85 l 1
 296 -99 298 -100 307 -100 c 0
 323 -100 326 -88 326 -82 c 0
 326 -65 310 -65 305 -65 c 0xea
 294 -65 288 -66 282 -67 c 1
 286 -13 l 1
 182 -9 71 75 71 216 c 0
 71 322 146 445 310 445 c 0
 362 445 399 433 440 404 c 0
 443 402 460 389 461 389 c 0
 465 389 468 399 469 402 c 2
 477 443 l 1xec
 523 438 l 1
 520 418 514 381 514 346 c 0xdc
 514 327 515 306 517 280 c 1
 471 273 l 1
 461 319 456 341 430 362 c 0
 393 392 342 395 315 395 c 0
 187 395 125 304 125 217 c 0
 125 132 181 36 311 36 c 0
 381 36 450 70 523 121 c 1
 549 83 l 1
 474 28 416 -4 330 -13 c 1xec
EndSplineSet
EndChar

StartChar: SM760000
Encoding: 317 8597 210
Width: 600
Flags: MW
HStem: 587 20G<291 302>
VStem: 271 50<164 461 164 461>
LayerCount: 2
Fore
SplineSet
321 461 m 1
 321 164 l 1
 363 189 402 204 413 204 c 0
 418 204 432 200 432 183 c 0
 432 175 431 174 385 130 c 0
 364 110 331 68 313 29 c 0
 312 26 306 15 298 15 c 0
 288 15 286 19 272 46 c 0
 258 73 228 120 187 156 c 0
 170 171 168 173 168 183 c 0
 168 198 180 204 187 204 c 0
 188 204 216 202 271 164 c 1
 271 461 l 1
 224 427 190 421 187 421 c 0
 181 421 168 426 168 441 c 0
 168 450 169 452 195 475 c 0
 243 518 275 584 277 588 c 0
 281 596 285 607 297 607 c 0
 307 607 310 602 318 583 c 0
 319 581 345 527 415 467 c 0
 426 458 432 452 432 442 c 0
 432 425 419 421 414 421 c 0
 400 421 361 438 321 461 c 1
EndSplineSet
EndChar

StartChar: Uogonek
Encoding: 318 370 211
Width: 600
Flags: MW
HStem: -117 52<319 362.5> -17 50 516 47<24 96 24 248 146 146 146 248 353 455 505 505 505 577>
VStem: 96 50<234 516> 278 59<-52.5 -48> 455 50<224 516>
LayerCount: 2
Fore
SplineSet
404 -40 m 1
 395 -93 l 1
 382 -104 365 -117 336 -117 c 0
 302 -117 278 -91 278 -59 c 0
 278 -37 288 -24 294 -17 c 1
 89 -4 96 150 96 234 c 2
 96 516 l 1
 24 516 l 1
 24 563 l 1
 248 563 l 1
 248 516 l 1
 146 516 l 1
 146 234 l 2
 146 152 146 33 299 33 c 0
 455 33 455 134 455 224 c 2
 455 516 l 1
 353 516 l 1
 353 563 l 1
 577 563 l 1
 577 516 l 1
 505 516 l 1
 505 224 l 2
 505 83 483 39 390 -2 c 0
 364 -13 337 -25 337 -46 c 0
 337 -59 347 -65 356 -65 c 0
 369 -65 373 -62 404 -40 c 1
EndSplineSet
EndChar

StartChar: Ldot
Encoding: 319 319 212
Width: 600
Flags: MW
HStem: 0 47<59 159 209 492 59 159> 246 135<346.5 382.5> 516 47<59 159 59 332 209 332 209 209>
VStem: 159 50<47 516 47 516> 288 153<292.5 335> 499 48.5
LayerCount: 2
Fore
SplineSet
59 563 m 1
 332 563 l 1
 332 516 l 1
 209 516 l 1
 209 47 l 1
 492 47 l 1
 506 249 l 1
 553 249 l 1
 542 0 l 1
 59 0 l 1
 59 47 l 1
 159 47 l 1
 159 516 l 1
 59 516 l 1
 59 563 l 1
365 381 m 0
 401 381 441 356 441 314 c 0
 441 271 401 246 364 246 c 0
 328 246 288 271 288 314 c 0
 288 356 328 381 365 381 c 0
EndSplineSet
EndChar

StartChar: underscoredbl
Encoding: 320 8215 213
Width: 600
Flags: MW
HStem: -225 50<-48 648 -48 648> -125 50<-48 648 -48 648>
VStem: -48 696<-225 -175 -225 -175 -125 -75 -225 -75>
LayerCount: 2
Fore
SplineSet
648 -175 m 1
 648 -225 l 1
 -48 -225 l 1
 -48 -175 l 1
 648 -175 l 1
-48 -75 m 1
 648 -75 l 1
 648 -125 l 1
 -48 -125 l 1
 -48 -75 l 1
EndSplineSet
EndChar

StartChar: SM750002
Encoding: 321 9689 214
Width: 600
Flags: MW
HStem: 0 65<240.5 359.5 240.5 582> 429 20G<254 345.5> 499 65<240.5 359.5>
VStem: 18 65<222 342.5 222 564> 517 65<222 342.5>
LayerCount: 2
Fore
SplineSet
300 499 m 0
 181 499 83 403 83 282 c 0
 83 162 181 65 300 65 c 0
 419 65 517 162 517 282 c 0
 517 403 419 499 300 499 c 0
18 0 m 1
 18 564 l 1
 582 564 l 1
 582 0 l 1
 18 0 l 1
300 449 m 0
 391 449 467 374 467 282 c 0
 467 191 392 115 300 115 c 0
 208 115 133 192 133 282 c 0
 133 374 208 449 300 449 c 0
EndSplineSet
EndChar

StartChar: SF430000
Encoding: 322 9552 215
Width: 600
Flags: MW
HStem: 144 72<0 600 0 600> 288 72<0 600 0 600>
VStem: 0 600<144 216 144 216 288 360 144 360>
LayerCount: 2
Fore
SplineSet
600 360 m 1
 600 288 l 1
 0 288 l 1
 0 360 l 1
 600 360 l 1
600 216 m 1
 600 144 l 1
 0 144 l 1
 0 216 l 1
 600 216 l 1
EndSplineSet
EndChar

StartChar: ffl
Encoding: 323 64260 216
Width: 600
Flags: W
HStem: 0 47<2 81 2 81 131 274 324 467 517 598> 371 47<2 81 2 81 131 274 324 398> 575 50<173.5 220 408 432> 586 20G 589 20G<517 517>
VStem: 81 50<47 371 47 371 418 471> 274 50<47 371 47 371 418 471> 467 50<47 569 569 569>
LayerCount: 2
Fore
SplineSet
2 0 m 1xe7
 2 47 l 1
 81 47 l 1
 81 371 l 1
 2 371 l 1
 2 418 l 1
 81 418 l 1
 81 474 l 2
 81 518 81 625 227 625 c 0xe7
 276 625 303 615 330 606 c 1xd7
 345 612 357 616 371 620 c 0
 384 623 399 625 417 625 c 0xe7
 456 625 483 618 517 609 c 1xcf
 517 47 l 1
 598 47 l 1
 598 0 l 1
 2 0 l 1xe7
131 371 m 1
 131 47 l 1
 274 47 l 1
 274 371 l 1
 131 371 l 1
131 471 m 2
 131 418 l 1
 274 418 l 1
 274 471 l 2
 274 498 276 536 288 560 c 1
 256 575 223 575 217 575 c 0
 130 575 131 515 131 471 c 2
467 47 m 1
 467 569 l 1
 456 572 444 575 420 575 c 0
 324 575 324 528 324 471 c 2
 324 418 l 1
 398 418 l 1
 398 371 l 1
 324 371 l 1
 324 47 l 1
 467 47 l 1
EndSplineSet
Ligature2: "'liga' Standard Ligatures in Latin lookup 0 subtable" ff l
EndChar

StartChar: SF400000
Encoding: 324 9577 217
Width: 600
Flags: MW
HStem: 144 72<0 600 0 600> 288 72<0 192 0 192 0 264 408 600>
VStem: 192 72<360 792 288 792> 336 72<360 792 360 792 360 792>
LayerCount: 2
Fore
SplineSet
600 288 m 1
 336 288 l 1
 336 792 l 1
 408 792 l 1
 408 360 l 1
 600 360 l 1
 600 288 l 1
0 288 m 1
 0 360 l 1
 192 360 l 1
 192 792 l 1
 264 792 l 1
 264 288 l 1
 0 288 l 1
600 216 m 1
 600 144 l 1
 0 144 l 1
 0 216 l 1
 600 216 l 1
EndSplineSet
EndChar

StartChar: SF530000
Encoding: 325 9579 218
Width: 600
Flags: MW
HStem: 216 72<0 192 0 192 264 336 408 600>
VStem: 192 72<-288 216 -288 216 288 792> 336 72<-288 216 -288 216 288 792>
LayerCount: 2
Fore
SplineSet
264 288 m 1
 336 288 l 1
 336 792 l 1
 408 792 l 1
 408 288 l 1
 600 288 l 1
 600 216 l 1
 408 216 l 1
 408 -288 l 1
 336 -288 l 1
 336 216 l 1
 264 216 l 1
 264 -288 l 1
 192 -288 l 1
 192 216 l 1
 0 216 l 1
 0 288 l 1
 192 288 l 1
 192 792 l 1
 264 792 l 1
 264 288 l 1
EndSplineSet
EndChar

StartChar: SF370000
Encoding: 326 9567 219
Width: 600
Flags: MW
HStem: 216 72<408 600 408 600>
VStem: 192 72<-288 792 -288 792> 336 72<-288 216 288 792>
LayerCount: 2
Fore
SplineSet
336 792 m 1
 408 792 l 1
 408 288 l 1
 600 288 l 1
 600 216 l 1
 408 216 l 1
 408 -288 l 1
 336 -288 l 1
 336 792 l 1
192 -288 m 1
 192 792 l 1
 264 792 l 1
 264 -288 l 1
 192 -288 l 1
EndSplineSet
EndChar

StartChar: SF060000
Encoding: 327 9516 220
Width: 600
Flags: MW
HStem: 216 72<0 264 0 600 336 600 336 336>
VStem: 264 72<-288 216 -288 216>
LayerCount: 2
Fore
SplineSet
336 216 m 1
 336 -288 l 1
 264 -288 l 1
 264 216 l 1
 0 216 l 1
 0 288 l 1
 600 288 l 1
 600 216 l 1
 336 216 l 1
EndSplineSet
EndChar

StartChar: SM690000
Encoding: 328 9788 221
Width: 600
Flags: W
HStem: -13 161<271 329 271 271> 82 66<263 271> 253 58<6 101 6 101 500 594> 416 66<263 271 329 337> 416 160<271 329 271 337> 424 20G<179 179 421 421>
VStem: 101 66<246 253 311 320 246 323> 271 58<-13 81 -13 82 -13 82 482 576> 434 66<246 253 311 320>
LayerCount: 2
Fore
SplineSet
137 404 m 1xa7
 71 469 l 1
 113 510 l 1
 179 444 l 1xa7
 198 463 245 482 271 482 c 1xb3
 271 576 l 1
 329 576 l 1xab
 329 482 l 1xb3
 356 482 397 464 421 444 c 1
 488 510 l 1
 529 469 l 1
 463 403 l 1
 481 385 500 339 500 311 c 1
 594 311 l 1
 594 253 l 1
 500 253 l 1
 500 224 483 185 463 160 c 1
 529 94 l 1
 488 53 l 1
 421 119 l 1
 407 105 360 82 329 81 c 1x6780
 329 -13 l 1
 271 -13 l 1xa7
 271 82 l 1
 236 82 199 98 179 119 c 1
 113 53 l 1
 71 94 l 1
 138 160 l 1x67
 117 181 101 225 101 253 c 1
 6 253 l 1
 6 311 l 1
 101 311 l 1
 101 335 119 382 137 404 c 1xa7
300 416 m 0xab80
 226 416 167 357 167 283 c 0
 167 209 226 148 300 148 c 0
 374 148 434 209 434 283 c 0
 434 357 374 416 300 416 c 0xab80
EndSplineSet
EndChar

StartChar: tau
Encoding: 329 964 222
Width: 600
Flags: MW
HStem: -9 47<327 358 327 361> 383 47<184 194 194 256 306 459 306 306>
VStem: 256 50<68 76 76 383>
LayerCount: 2
Fore
SplineSet
306 383 m 1
 306 76 l 2
 306 52 313 38 341 38 c 0
 375 38 400 53 428 68 c 1
 441 21 l 1
 436 18 l 2
 411 5 385 -9 337 -9 c 0
 276 -9 256 22 256 68 c 2
 256 383 l 1
 194 383 l 2
 150 383 112 377 97 374 c 1
 97 422 l 1
 121 427 160 430 184 430 c 2
 459 430 l 1
 459 383 l 1
 306 383 l 1
EndSplineSet
EndChar

StartChar: SM700000
Encoding: 330 -1 223
Width: 600
Flags: MW
HStem: 149 179<7 593 7 593>
VStem: 7 586<149 328 149 328>
LayerCount: 2
Fore
SplineSet
7 149 m 1
 7 328 l 1
 593 328 l 1
 593 149 l 1
 7 149 l 1
EndSplineSet
EndChar

StartChar: Lcedilla
Encoding: 331 315 224
Width: 600
Flags: W
HStem: -145 45<296 322.5 296 356.5> -25 21G<328 328> 0 47<59 159 209 287 59 159 331 492 331 331> 516 47<59 159 59 332 209 209 209 332>
VStem: 159 50<47 516 47 516> 283.5 46 351 47<-93 -80.5 -93 -77.5> 499 48.5
LayerCount: 2
Fore
SplineSet
331 0 m 1
 328 -25 l 1
 391 -34 398 -74 398 -87 c 0
 398 -99 395 -145 318 -145 c 0
 269 -145 226 -134 208 -130 c 1
 215 -86 l 1
 239 -92 274 -100 318 -100 c 0
 327 -100 351 -100 351 -87 c 0xdf
 351 -68 318 -65 280 -62 c 1
 287 0 l 1
 59 0 l 1
 59 47 l 1
 159 47 l 1
 159 516 l 1
 59 516 l 1
 59 563 l 1
 332 563 l 1
 332 516 l 1
 209 516 l 1
 209 47 l 1
 492 47 l 1
 506 249 l 1
 553 249 l 1
 542 0 l 1
 331 0 l 1
EndSplineSet
EndChar

StartChar: zerodot
Encoding: 332 -1 225
Width: 600
Flags: MW
HStem: -14 45<240 359 240 381.5> 251 101<286 314> 576 45<240 359.5>
VStem: 110 53<251 356 251 368> 243 114<286 317 286 317.5> 437 53<251.5 357>
LayerCount: 2
Fore
SplineSet
300 352 m 0
 329 352 357 332 357 302 c 0
 357 270 328 251 300 251 c 0
 272 251 243 270 243 302 c 0
 243 333 272 352 300 352 c 0
300 621 m 0
 463 621 490 433 490 303 c 0
 490 172 463 -14 300 -14 c 0
 137 -14 110 174 110 303 c 0
 110 433 137 621 300 621 c 0
300 576 m 0
 180 576 163 408 163 304 c 0
 163 198 181 31 299 31 c 0
 419 31 437 199 437 304 c 0
 437 410 419 576 300 576 c 0
EndSplineSet
EndChar

StartChar: SV040000
Encoding: 333 9660 226
Width: 600
Flags: MW
HStem: 96 371<300 300>
VStem: 102 396<467 467>
LayerCount: 2
Fore
SplineSet
102 467 m 1
 498 467 l 1
 300 96 l 1
 102 467 l 1
EndSplineSet
EndChar

StartChar: SP500000
Encoding: 334 -1 227
Width: 600
Flags: MW
HStem: 0 57<75 525 75 582> 136 21G<118 118 482 482> 410 20G<118 118 482 482> 507 57<75 75 75 525>
VStem: 18 57<57 507 57 564> 525 57<57 507 507 507>
LayerCount: 2
Fore
SplineSet
265 282 m 1
 118 430 l 1
 154 464 l 1
 300 317 l 1
 446 464 l 1
 482 430 l 1
 335 282 l 1
 482 136 l 1
 446 100 l 1
 300 247 l 1
 154 100 l 1
 118 136 l 1
 265 282 l 1
18 0 m 1
 18 564 l 1
 582 564 l 1
 582 0 l 1
 18 0 l 1
75 507 m 1
 75 57 l 1
 525 57 l 1
 525 507 l 1
 75 507 l 1
EndSplineSet
EndChar

StartChar: Rcedilla
Encoding: 335 342 228
Width: 600
Flags: W
HStem: -145 45<301.5 327.5 301.5 361.5> -62 62<45 285> -25 25<333 333> 0 47<45 127 177 266 45 127 489 577> 258 47<177 249 177 270> 516 47<45 127 45 302 177 177 177 300>
VStem: 127 50<47 258 47 305 305 516> 288.5 46 357 47<-93 -83 -93 -77.5> 445 54<382.5 431.5>
LayerCount: 2
Fore
SplineSet
45 563 m 1x9ec0
 302 563 l 2
 366 563 403 560 438 536 c 0
 473 512 499 461 499 412 c 0
 499 353 462 271 346 259 c 1
 382 225 450 112 489 47 c 1
 577 47 l 1
 577 0 l 1
 452 0 l 1
 421 67 370 149 356 171 c 0
 317 232 301 258 249 258 c 2
 177 258 l 1
 177 47 l 1
 266 47 l 1
 266 0 l 1
 45 0 l 1
 45 47 l 1
 127 47 l 1
 127 516 l 1
 45 516 l 1
 45 563 l 1x9ec0
300 516 m 2
 177 516 l 1
 177 305 l 1
 270 305 l 2
 323 305 445 303 445 415 c 0
 445 448 429 481 403 499 c 0
 388 509 372 516 300 516 c 2
336 0 m 1xafc0
 333 -25 l 1xaec0
 401 -35 404 -79 404 -87 c 0
 404 -99 400 -145 323 -145 c 0
 275 -145 231 -134 213 -130 c 1
 221 -86 l 1
 244 -92 280 -100 323 -100 c 0
 332 -100 357 -100 357 -87 c 0xcec0
 357 -68 324 -65 285 -62 c 1xcfc0
 292 0 l 1
 336 0 l 1xafc0
EndSplineSet
EndChar

StartChar: SF490000
Encoding: 336 9561 229
Width: 600
Flags: MW
HStem: 216 72<264 336 408 600>
VStem: 192 72<288 792 288 792 288 792> 336 72<288 792 288 792>
LayerCount: 2
Fore
SplineSet
336 288 m 1
 336 792 l 1
 408 792 l 1
 408 288 l 1
 600 288 l 1
 600 216 l 1
 192 216 l 1
 192 792 l 1
 264 792 l 1
 264 288 l 1
 336 288 l 1
EndSplineSet
EndChar

StartChar: radical
Encoding: 337 8730 230
Width: 600
Flags: MW
HStem: 0 21G<156 204 156 156> 266 50<13 86 13 143> 725 50<418 648 418 418>
VStem: 13 635<266 775 316 775>
LayerCount: 2
Fore
SplineSet
13 316 m 1
 143 316 l 1
 190 131 l 1
 192 131 l 1
 380 775 l 1
 648 775 l 1
 648 725 l 1
 418 725 l 1
 204 0 l 1
 156 0 l 1
 86 266 l 1
 13 266 l 1
 13 316 l 1
EndSplineSet
EndChar

StartChar: SF460000
Encoding: 338 9576 231
Width: 600
Flags: MW
HStem: 216 72<0 192 264 336 408 600 0 192>
VStem: 192 72<288 792 288 792> 336 72<288 792 288 792>
LayerCount: 2
Fore
SplineSet
336 288 m 1
 336 792 l 1
 408 792 l 1
 408 288 l 1
 600 288 l 1
 600 216 l 1
 0 216 l 1
 0 288 l 1
 192 288 l 1
 192 792 l 1
 264 792 l 1
 264 288 l 1
 336 288 l 1
EndSplineSet
EndChar

StartChar: SM590000
Encoding: 339 9654 232
Width: 600
Flags: MW
HStem: 83 397<40 40>
VStem: 40 560<282 282 282 480 282 480>
LayerCount: 2
Fore
SplineSet
40 83 m 1
 40 480 l 1
 600 282 l 1
 40 83 l 1
EndSplineSet
EndChar

StartChar: SM750000
Encoding: 340 9675 233
Width: 600
Flags: MW
HStem: 65 50<254 346 254 359.5> 449 50<254 345.5>
VStem: 83 50<237 328 237 342.5> 467 50<236.5 328>
LayerCount: 2
Fore
SplineSet
300 499 m 0
 419 499 517 403 517 282 c 0
 517 162 419 65 300 65 c 0
 181 65 83 162 83 282 c 0
 83 403 181 499 300 499 c 0
300 449 m 0
 208 449 133 374 133 282 c 0
 133 192 208 115 300 115 c 0
 392 115 467 191 467 282 c 0
 467 374 391 449 300 449 c 0
EndSplineSet
EndChar

StartChar: SM770000
Encoding: 341 8616 234
Width: 600
Flags: MW
HStem: -87 50<195 408 195 408> 587 20G<291 302>
VStem: 271 50<164 461 164 461>
LayerCount: 2
Fore
SplineSet
321 461 m 1
 321 164 l 1
 363 189 402 204 413 204 c 0
 418 204 432 200 432 183 c 0
 432 175 431 174 385 130 c 0
 364 110 331 68 313 29 c 0
 312 26 306 15 298 15 c 0
 288 15 286 19 272 46 c 0
 258 73 228 120 187 156 c 0
 170 171 168 173 168 183 c 0
 168 198 180 204 187 204 c 0
 188 204 216 202 271 164 c 1
 271 461 l 1
 224 427 190 421 187 421 c 0
 181 421 168 426 168 441 c 0
 168 450 169 452 195 475 c 0
 243 518 275 584 277 588 c 0
 281 596 285 607 297 607 c 0
 307 607 310 602 318 583 c 0
 319 581 345 527 415 467 c 0
 426 458 432 452 432 442 c 0
 432 425 419 421 414 421 c 0
 400 421 361 438 321 461 c 1
195 -37 m 1
 408 -37 l 1
 408 -87 l 1
 195 -87 l 1
 195 -37 l 1
EndSplineSet
EndChar

StartChar: SF580000
Encoding: 342 9612 235
Width: 600
Flags: MW
HStem: -288 1080<0 300 0 300>
VStem: 0 300<-288 792 -288 792>
LayerCount: 2
Fore
SplineSet
0 -288 m 1
 0 792 l 1
 300 792 l 1
 300 -288 l 1
 0 -288 l 1
EndSplineSet
EndChar

StartChar: arrowboth
Encoding: 343 8596 236
Width: 600
Flags: W
HStem: 151 161<186 198.5 404.5 418> 262 50<171 432 171 432>
VStem: 22 556<281 290>
LayerCount: 2
Fore
SplineSet
432 262 m 1x60
 171 262 l 1x60
 196 220 211 181 211 170 c 0
 211 165 207 151 190 151 c 0
 182 151 181 152 137 198 c 0xa0
 117 219 75 252 36 270 c 0
 33 271 22 277 22 285 c 0
 22 295 26 297 53 311 c 0
 80 325 127 355 163 396 c 0
 178 413 180 415 190 415 c 0
 205 415 211 403 211 396 c 0
 211 395 209 367 171 312 c 1
 432 312 l 1
 398 359 392 393 392 396 c 0x60
 392 402 397 415 412 415 c 0
 421 415 423 414 446 388 c 0
 489 340 555 308 559 306 c 0
 567 302 578 298 578 286 c 0
 578 276 573 273 554 265 c 0
 552 264 498 238 438 168 c 0
 429 157 423 151 413 151 c 0
 396 151 392 164 392 169 c 0xa0
 392 183 409 222 432 262 c 1x60
EndSplineSet
EndChar

StartChar: SF240000
Encoding: 344 9553 237
Width: 600
Flags: MW
HStem: -288 1080<192 264 192 264 336 408 192 336>
VStem: 192 72<-288 792 -288 792> 336 72<-288 792>
LayerCount: 2
Fore
SplineSet
408 -288 m 1
 336 -288 l 1
 336 792 l 1
 408 792 l 1
 408 -288 l 1
192 -288 m 1
 192 792 l 1
 264 792 l 1
 264 -288 l 1
 192 -288 l 1
EndSplineSet
EndChar

StartChar: Eng
Encoding: 345 330 238
Width: 600
Flags: W
HStem: -137 50<294 370 294 370> 0 47<44 129 179 263 44 129> 516 47<44 129 44 179> 526 50<339.5 408.5>
VStem: 129 50<47 430 496 516 516 516> 476 50<21 410 410 411>
LayerCount: 2
Fore
SplineSet
44 563 m 1xec
 179 563 l 1xec
 179 496 l 1
 221 525 294 576 381 576 c 0
 487 576 526 486 526 411 c 2
 526 21 l 2
 526 -87 442 -137 370 -137 c 2
 294 -137 l 1
 294 -87 l 1
 370 -87 l 2
 458 -87 476 -9 476 21 c 2
 476 410 l 2
 476 477 443 526 374 526 c 0
 305 526 229 480 179 430 c 1xdc
 179 47 l 1
 263 47 l 1
 263 0 l 1
 44 0 l 1
 44 47 l 1
 129 47 l 1
 129 516 l 1
 44 516 l 1
 44 563 l 1xec
EndSplineSet
EndChar

StartChar: SF390000
Encoding: 346 9556 239
Width: 600
Flags: MW
HStem: 144 72<408 600 408 408> 288 72<264 264 264 600>
VStem: 192 72<-288 288 -288 360> 336 72<-288 144 -288 216>
LayerCount: 2
Fore
SplineSet
336 216 m 1
 600 216 l 1
 600 144 l 1
 408 144 l 1
 408 -288 l 1
 336 -288 l 1
 336 216 l 1
264 288 m 1
 264 -288 l 1
 192 -288 l 1
 192 360 l 1
 600 360 l 1
 600 288 l 1
 264 288 l 1
EndSplineSet
EndChar

StartChar: Theta
Encoding: 347 920 240
Width: 600
Flags: MW
HStem: -17 47<238.5 363 238.5 381> 263 47<211 389 211 389> 533 47<238.5 363>
VStem: 43 52<213.5 350 213.5 363> 164 47<196 263 310 377> 389 47<196 263 263 263 310 377 196 377> 505 52<215.5 348>
LayerCount: 2
Fore
SplineSet
164 377 m 1
 211 377 l 1
 211 310 l 1
 389 310 l 1
 389 377 l 1
 436 377 l 1
 436 196 l 1
 389 196 l 1
 389 263 l 1
 211 263 l 1
 211 196 l 1
 164 196 l 1
 164 377 l 1
43 281 m 0
 43 445 143 580 300 580 c 0
 462 580 557 440 557 281 c 0
 557 123 462 -17 300 -17 c 0
 142 -17 43 118 43 281 c 0
95 282 m 0
 95 145 177 30 300 30 c 0
 426 30 505 149 505 282 c 0
 505 414 426 533 300 533 c 0
 177 533 95 418 95 282 c 0
EndSplineSet
EndChar

StartChar: Omega
Encoding: 348 8486 241
Width: 600
Flags: W
HStem: 0 47<79 206 79 253 394 521> 533 47<248.5 351.5>
VStem: 29 53<285 384.5 235.5 396> 32 47<47 103 47 103 47 103> 206 47<47 85 85 85> 347 47<47 85 47 118 47 118> 518 53<281.5 385> 521 47<47 103 0 103>
LayerCount: 2
Fore
SplineSet
32 0 m 1xfe
 32 103 l 1
 79 103 l 1
 79 47 l 1xde
 206 47 l 1
 206 85 l 1
 165 96 139 106 108 134 c 0
 58 180 29 249 29 321 c 0
 29 471 152 580 300 580 c 0
 450 580 571 469 571 320 c 0
 571 243 538 175 492 133 c 0xee
 461 105 436 96 394 85 c 1
 394 47 l 1
 521 47 l 1
 521 103 l 1
 568 103 l 1
 568 0 l 1xed
 347 0 l 1
 347 118 l 1
 386 127 518 157 518 315 c 0
 518 455 403 533 300 533 c 0
 197 533 82 454 82 315 c 0xee
 82 156 215 126 253 118 c 1
 253 0 l 1
 32 0 l 1xfe
EndSplineSet
EndChar

StartChar: Thorn
Encoding: 349 222 242
Width: 600
Flags: MW
HStem: 0 47<71 152 202 315 71 152> 123 47<202 257 202 259> 418 47<202 257 257 300 202 257> 516 47<71 152 71 315 202 202 202 315>
VStem: 152 50<47 123 170 418 465 516> 480 54<268 320>
LayerCount: 2
Fore
SplineSet
202 47 m 1
 315 47 l 1
 315 0 l 1
 71 0 l 1
 71 47 l 1
 152 47 l 1
 152 516 l 1
 71 516 l 1
 71 563 l 1
 315 563 l 1
 315 516 l 1
 202 516 l 1
 202 465 l 1
 257 465 l 2
 380 465 418 461 460 434 c 0
 502 407 534 356 534 295 c 0
 534 235 503 177 460 153 c 0
 411 125 378 123 257 123 c 2
 202 123 l 1
 202 47 l 1
300 418 m 2
 202 418 l 1
 202 170 l 1
 259 170 l 2
 340 170 403 169 438 197 c 0
 456 211 480 244 480 292 c 0
 480 348 447 384 420 398 c 0
 396 411 371 418 300 418 c 2
EndSplineSet
EndChar

StartChar: spade
Encoding: 350 9824 243
Width: 600
Flags: MW
HStem: 0 17<122 177 119 177> 543 20G
VStem: 298 8<194 213 176 213>
LayerCount: 2
Fore
SplineSet
298 194 m 2
 298 213 l 1
 296 213 l 1
 285 186 277 174 263 161 c 0
 239 138 209 126 178 126 c 0
 123 126 78 172 78 227 c 0
 78 275 103 317 164 367 c 0
 200 396 204 400 222 420 c 0
 269 471 289 506 301 563 c 1
 318 491 344 452 423 381 c 0
 502 309 522 278 522 228 c 0
 522 170 479 126 422 126 c 0
 374 126 337 154 308 213 c 1
 306 213 l 1
 306 139 318 101 349 68 c 0
 379 36 416 21 478 17 c 1
 482 0 l 1
 119 0 l 1
 122 17 l 1
 232 17 297 82 298 194 c 2
EndSplineSet
EndChar

StartChar: sevensuperior
Encoding: 351 8311 244
Width: 600
Flags: MW
HStem: 573 40<227 383 227 227>
VStem: 186 41<520 573 520 613 520 613>
LayerCount: 2
Fore
SplineSet
186 613 m 1
 427 613 l 1
 427 579 l 1
 312 248 l 1
 266 248 l 1
 383 573 l 1
 227 573 l 1
 227 520 l 1
 186 520 l 1
 186 613 l 1
EndSplineSet
EndChar

StartChar: zerosuperior
Encoding: 352 8304 245
Width: 600
Flags: MW
HStem: 240 38<276 324 276 338> 583 38<288 324>
VStem: 183 44<381.5 452.5 381.5 492> 373 44<381 480.5>
LayerCount: 2
Fore
SplineSet
300 621 m 0
 376 621 417 554 417 430 c 0
 417 306 376 240 300 240 c 0
 224 240 183 307 183 430 c 0
 183 554 224 621 300 621 c 0
300 583 m 0
 276 583 254 567 244 542 c 0
 232 513 227 474 227 431 c 0
 227 332 252 278 300 278 c 0
 348 278 373 331 373 431 c 0
 373 530 348 583 300 583 c 0
EndSplineSet
EndChar

StartChar: onehalf
Encoding: 353 189 246
Width: 600
Flags: W
HStem: -77 38<415 556 415 590> 249 38<31 108 146 222 31 108> 257 38<458.5 498> 593 20G<585 585> 602 20G<123 146 146 146>
VStem: 108 38<287 575 575 575> 361 54<-39 -39 -39 -38 -39 -38> 372 37<206.5 221 206.5 241 206.5 241> 552 39<167.5 204.5> 556 34<-39 18 -77 18>
LayerCount: 2
Fore
SplineSet
19 579 m 1xce40
 123 622 l 1
 146 622 l 1
 146 287 l 1
 222 287 l 1
 222 249 l 1
 31 249 l 1
 31 287 l 1
 108 287 l 1
 108 575 l 1
 35 545 l 1
 19 579 l 1xce40
556 633 m 1
 585 613 l 1xd640
 75 -90 l 1
 47 -68 l 1
 556 633 l 1
556 18 m 1
 590 18 l 1
 590 -77 l 1
 361 -77 l 1
 361 -38 l 2
 364 -36 365 -35 370 -31 c 0
 375 -27 385 -17 418 13 c 0xce40
 465 57 488 79 506 97 c 0
 543 134 552 152 552 183 c 0
 552 226 520 257 476 257 c 0
 441 257 409 234 409 208 c 0
 409 205 410 203 410 196 c 1
 372 196 l 1
 372 241 l 1
 401 277 437 295 478 295 c 0
 543 295 591 247 591 183 c 0
 591 135 567 99 496 34 c 2xad80
 434 -21 l 1
 415 -39 l 1
 556 -39 l 1
 556 18 l 1
EndSplineSet
EndChar

StartChar: IJ
Encoding: 354 306 247
Width: 600
Flags: W
HStem: -17 50<395.5 422.5 390.5 453.5> 0 47<47 134 184 272 47 134> 516 47<47 134 47 272 184 272 184 184 357 455 505 505 505 569>
VStem: 134 50<47 516 47 516> 285.5 48.5 455 50<204 516>
LayerCount: 2
Fore
SplineSet
47 563 m 1x7c
 272 563 l 1
 272 516 l 1
 184 516 l 1
 184 47 l 1
 272 47 l 1
 272 0 l 1
 47 0 l 1
 47 47 l 1
 134 47 l 1
 134 516 l 1
 47 516 l 1
 47 563 l 1x7c
357 563 m 1
 569 563 l 1
 569 516 l 1
 505 516 l 1
 505 204 l 2
 505 107 505 -17 402 -17 c 0
 389 -17 330 -17 288 47 c 1
 283 215 l 1
 334 215 l 1
 334 166 l 1
 338 75 339 65 360 47 c 0
 371 37 384 33 397 33 c 0xbc
 448 33 455 86 455 204 c 2
 455 516 l 1
 357 516 l 1
 357 563 l 1
EndSplineSet
EndChar

StartChar: SF450000
Encoding: 355 9575 248
Width: 600
Flags: MW
HStem: 144 72<0 600 0 600> 288 72<0 264 336 600 0 264>
VStem: 264 72<360 792>
LayerCount: 2
Fore
SplineSet
336 360 m 1
 600 360 l 1
 600 288 l 1
 0 288 l 1
 0 360 l 1
 264 360 l 1
 264 792 l 1
 336 792 l 1
 336 360 l 1
600 144 m 1
 0 144 l 1
 0 216 l 1
 600 216 l 1
 600 144 l 1
EndSplineSet
EndChar

StartChar: SM790000
Encoding: 356 8962 249
Width: 600
Flags: MW
HStem: 0 53<126 474 126 527> 547 20G<300 300>
VStem: 73 53<53 290 53 312 53 312> 474 53<53 290 290 290>
LayerCount: 2
Fore
SplineSet
73 0 m 1
 73 312 l 1
 300 567 l 1
 527 312 l 1
 527 0 l 1
 73 0 l 1
126 290 m 1
 126 53 l 1
 474 53 l 1
 474 290 l 1
 300 485 l 1
 126 290 l 1
EndSplineSet
EndChar

StartChar: SF090000
Encoding: 357 9508 250
Width: 600
Flags: MW
HStem: 216 72<0 264 0 264>
VStem: 264 72<-288 216 216 216 288 792>
LayerCount: 2
Fore
SplineSet
336 -288 m 1
 264 -288 l 1
 264 216 l 1
 0 216 l 1
 0 288 l 1
 264 288 l 1
 264 792 l 1
 336 792 l 1
 336 -288 l 1
EndSplineSet
EndChar

StartChar: eth
Encoding: 358 240 251
Width: 600
Flags: MW
HStem: -14 47<237.5 364 237.5 369.5> 403 47<238 317 229.5 363.5> 594 20G<293 293>
VStem: 52 54<170.5 266 170.5 291> 494 54<172 264.5>
LayerCount: 2
Fore
SplineSet
265 568 m 1
 213 486 l 1
 170 516 l 1
 220 592 l 1
 170 615 148 625 109 637 c 1
 126 686 l 1
 176 670 199 661 248 637 c 1
 289 704 l 1
 332 676 l 1
 293 614 l 1
 354 577 548 459 548 227 c 0
 548 72 439 -14 300 -14 c 0
 135 -14 52 101 52 218 c 0
 52 364 168 450 291 450 c 0
 343 450 399 437 428 423 c 1
 430 425 l 1
 393 473 360 512 265 568 c 1
106 218 m 0
 106 123 175 33 300 33 c 0
 428 33 494 126 494 218 c 0
 494 311 427 403 300 403 c 0
 176 403 106 314 106 218 c 0
EndSplineSet
EndChar

StartChar: eng
Encoding: 359 331 252
Width: 600
Flags: W
HStem: -139 50<263 330 263 330> 0 47<34 116 166 250 34 116> 383 47<34 116 34 166> 395 50<306.5 365.5>
VStem: 116 50<47 315 374 383 383 383> 437 50<21 276 276 282>
LayerCount: 2
Fore
SplineSet
166 315 m 1xfc
 166 47 l 1
 250 47 l 1
 250 0 l 1
 34 0 l 1
 34 47 l 1
 116 47 l 1
 116 383 l 1
 34 383 l 1
 34 430 l 1
 166 430 l 1xec
 166 374 l 1
 210 405 265 445 338 445 c 0
 430 445 487 376 487 282 c 2
 487 21 l 2
 487 -89 403 -139 330 -139 c 2
 263 -139 l 1
 263 -89 l 1
 330 -89 l 2
 407 -89 437 -23 437 21 c 2
 437 276 l 2
 437 356 391 395 340 395 c 0
 273 395 218 353 166 315 c 1xfc
EndSplineSet
EndChar

StartChar: arrowleft
Encoding: 360 8592 253
Width: 600
Flags: MW
HStem: 262 50<164 574 164 574>
VStem: 18 556<283 293.5>
LayerCount: 2
Fore
SplineSet
574 312 m 1
 574 262 l 1
 164 262 l 1
 201 207 204 179 204 178 c 0
 204 175 201 159 183 159 c 0
 174 159 167 167 149 186 c 0
 105 233 45 265 37 269 c 0
 28 273 18 277 18 289 c 0
 18 298 27 302 42 310 c 0
 78 326 125 361 152 392 c 0
 170 413 173 416 183 416 c 0
 198 416 204 404 204 397 c 0
 204 376 174 327 164 312 c 1
 574 312 l 1
EndSplineSet
EndChar

StartChar: rcedilla
Encoding: 361 343 254
Width: 600
Flags: W
HStem: -145 45<311 337.5 311 371.5> -25 21G<343 343> 0 47<75 199 249 302 75 199 346 439 346 346> 383 47<83 199 83 249> 394 50<408.5 467.5>
VStem: 199 50<47 266 330 383 383 383> 298.5 46 367 46<-93 -83 -93 -77.5>
LayerCount: 2
Fore
SplineSet
346 0 m 1xbf
 343 -25 l 1
 411 -35 413 -79 413 -87 c 0
 413 -99 410 -145 333 -145 c 0
 284 -145 241 -134 223 -130 c 1
 230 -86 l 1
 254 -92 289 -100 333 -100 c 0
 342 -100 367 -100 367 -87 c 0xd5
 367 -68 333 -65 295 -62 c 1
 302 0 l 1
 75 0 l 1
 75 47 l 1
 199 47 l 1
 199 383 l 1
 83 383 l 1
 83 430 l 1
 249 430 l 1xb7
 249 330 l 1
 294 375 361 444 456 444 c 0
 519 444 546 415 568 389 c 1
 515 350 l 1
 500 373 487 394 448 394 c 0
 362 394 283 304 249 266 c 1
 249 47 l 1
 439 47 l 1
 439 0 l 1
 346 0 l 1xbf
EndSplineSet
EndChar

StartChar: plusminus
Encoding: 362 177 255
Width: 600
Flags: MW
HStem: 31 50<66 534 66 534> 134 21G<275 325 275 275> 330 50<66 275 66 275 325 534> 556 20G<275 325 325 325>
VStem: 275 50<134 330 134 330 380 576>
LayerCount: 2
Fore
SplineSet
275 576 m 1
 325 576 l 1
 325 380 l 1
 534 380 l 1
 534 330 l 1
 325 330 l 1
 325 134 l 1
 275 134 l 1
 275 330 l 1
 66 330 l 1
 66 380 l 1
 275 380 l 1
 275 576 l 1
66 81 m 1
 534 81 l 1
 534 31 l 1
 66 31 l 1
 66 81 l 1
EndSplineSet
EndChar

StartChar: Gamma
Encoding: 363 915 256
Width: 600
Flags: MW
HStem: 0 47<58 142 192 278 58 142> 516 47<58 142 58 532 192 480 192 192>
VStem: 142 50<47 516 47 516> 485 49
LayerCount: 2
Fore
SplineSet
58 563 m 1
 532 563 l 1
 536 380 l 1
 490 380 l 1
 480 516 l 1
 192 516 l 1
 192 47 l 1
 278 47 l 1
 278 0 l 1
 58 0 l 1
 58 47 l 1
 142 47 l 1
 142 516 l 1
 58 516 l 1
 58 563 l 1
EndSplineSet
EndChar

StartChar: underscorebroken
Encoding: 364 -1 257
Width: 600
Flags: MW
HStem: -125 50<46 554 46 554>
VStem: 46 508<-125 -75 -125 -75>
LayerCount: 2
Fore
SplineSet
46 -75 m 1
 554 -75 l 1
 554 -125 l 1
 46 -125 l 1
 46 -75 l 1
EndSplineSet
EndChar

StartChar: SF150000
Encoding: 365 9618 258
Width: 600
Flags: W
HStem: -267 100<101 199 0 100 301 399 501 600> -167 100<0 99 0 99 101 199 201 299 301 399 401 499 501 600> -67 100<0 99 0 99 101 199 0 101 201 299 301 399 401 499 501 600> 33 100<0 99 0 99 101 199 201 299 301 399 401 499 501 600> 133 100<0 99 0 99 101 199 0 101 201 299 301 399 401 499 501 600> 233 100<0 99 0 99 101 199 201 299 301 399 401 499 501 600> 333 100<0 99 0 99 101 199 0 101 201 299 301 399 401 499 501 600> 433 100<0 99 0 99 101 199 201 299 301 399 401 499 501 600> 533 100<0 99 0 99 101 199 0 101 201 299 301 399 401 499 501 600> 633 100<0 99 0 100 0 199 0 199 201 201 201 299 401 401 401 499>
VStem: 0 100<-166 -68 34 132 234 332 434 532 634 733> 100 100<-267 -168 -267 -168 -166 -68 -267 -166 -66 32 34 132 134 232 234 332 334 432 434 532 534 632 634 733> 200 100<-267 -168 -267 -168 -166 -68 -66 32 34 132 134 232 234 332 334 432 434 532 534 632 634 733> 300 100<-267 -168 -267 -168 -166 -68 -267 -166 -66 32 34 132 134 232 234 332 334 432 434 532 534 632 634 733> 400 100<-267 -168 -267 -168 -166 -68 -66 32 34 132 134 232 234 332 334 432 434 532 534 632 634 733> 500 100<-267 -168 -168 -168 -267 -68 -267 -166 -66 32 32 32 134 232 232 232 334 432 432 432 534 632 632 632>
LayerCount: 2
Fore
SplineSet
0 733 m 1xaa69
 100 733 l 1
 100 634 l 1
 99 633 l 1
 0 633 l 1
 0 733 l 1xaa69
200 733 m 1
 300 733 l 1
 300 634 l 1
 299 633 l 1
 201 633 l 1
 200 634 l 1
 200 733 l 1
400 733 m 1x0042
 500 733 l 1
 500 634 l 1
 499 633 l 1
 401 633 l 1
 400 634 l 1
 400 733 l 1x0042
100 632 m 1x0095
 101 633 l 1
 199 633 l 1
 200 632 l 1
 200 534 l 1
 199 533 l 1
 101 533 l 1
 100 534 l 1
 100 632 l 1x0095
300 632 m 1
 301 633 l 1
 399 633 l 1
 400 632 l 1
 400 534 l 1
 399 533 l 1
 301 533 l 1
 300 534 l 1
 300 632 l 1
501 633 m 1
 600 633 l 1
 600 533 l 1
 501 533 l 1
 500 534 l 1
 500 632 l 1
 501 633 l 1
0 533 m 1x012a
 99 533 l 1
 100 532 l 1
 100 434 l 1
 99 433 l 1
 0 433 l 1
 0 533 l 1x012a
200 532 m 1
 201 533 l 1
 299 533 l 1
 300 532 l 1
 300 434 l 1
 299 433 l 1
 201 433 l 1
 200 434 l 1
 200 532 l 1
400 532 m 1
 401 533 l 1
 499 533 l 1
 500 532 l 1
 500 434 l 1
 499 433 l 1
 401 433 l 1
 400 434 l 1
 400 532 l 1
100 432 m 1x0215
 101 433 l 1
 199 433 l 1
 200 432 l 1
 200 334 l 1
 199 333 l 1
 101 333 l 1
 100 334 l 1
 100 432 l 1x0215
300 432 m 1
 301 433 l 1
 399 433 l 1
 400 432 l 1
 400 334 l 1
 399 333 l 1
 301 333 l 1
 300 334 l 1
 300 432 l 1
501 433 m 1
 600 433 l 1
 600 333 l 1
 501 333 l 1
 500 334 l 1
 500 432 l 1
 501 433 l 1
0 333 m 1x042a
 99 333 l 1
 100 332 l 1
 100 234 l 1
 99 233 l 1
 0 233 l 1
 0 333 l 1x042a
200 332 m 1
 201 333 l 1
 299 333 l 1
 300 332 l 1
 300 234 l 1
 299 233 l 1
 201 233 l 1
 200 234 l 1
 200 332 l 1
400 332 m 1
 401 333 l 1
 499 333 l 1
 500 332 l 1
 500 234 l 1
 499 233 l 1
 401 233 l 1
 400 234 l 1
 400 332 l 1
100 232 m 1x0815
 101 233 l 1
 199 233 l 1
 200 232 l 1
 200 134 l 1
 199 133 l 1
 101 133 l 1
 100 134 l 1
 100 232 l 1x0815
300 232 m 1
 301 233 l 1
 399 233 l 1
 400 232 l 1
 400 134 l 1
 399 133 l 1
 301 133 l 1
 300 134 l 1
 300 232 l 1
501 233 m 1
 600 233 l 1
 600 133 l 1
 501 133 l 1
 500 134 l 1
 500 232 l 1
 501 233 l 1
0 133 m 1x102a
 99 133 l 1
 100 132 l 1
 100 34 l 1
 99 33 l 1
 0 33 l 1
 0 133 l 1x102a
200 132 m 1
 201 133 l 1
 299 133 l 1
 300 132 l 1
 300 34 l 1
 299 33 l 1
 201 33 l 1
 200 34 l 1
 200 132 l 1
400 132 m 1
 401 133 l 1
 499 133 l 1
 500 132 l 1
 500 34 l 1
 499 33 l 1
 401 33 l 1
 400 34 l 1
 400 132 l 1
100 32 m 1x2015
 101 33 l 1
 199 33 l 1
 200 32 l 1
 200 -66 l 1
 199 -67 l 1
 101 -67 l 1
 100 -66 l 1
 100 32 l 1x2015
300 32 m 1
 301 33 l 1
 399 33 l 1
 400 32 l 1
 400 -66 l 1
 399 -67 l 1
 301 -67 l 1
 300 -66 l 1
 300 32 l 1
501 33 m 1
 600 33 l 1
 600 -67 l 1
 501 -67 l 1
 500 -66 l 1
 500 32 l 1
 501 33 l 1
0 -67 m 1x402a
 99 -67 l 1
 100 -68 l 1
 100 -166 l 1
 99 -167 l 1
 0 -167 l 1
 0 -67 l 1x402a
200 -68 m 1
 201 -67 l 1
 299 -67 l 1
 300 -68 l 1
 300 -166 l 1
 299 -167 l 1
 201 -167 l 1
 200 -166 l 1
 200 -68 l 1
400 -68 m 1
 401 -67 l 1
 499 -67 l 1
 500 -68 l 1
 500 -166 l 1
 499 -167 l 1
 401 -167 l 1
 400 -166 l 1
 400 -68 l 1
101 -167 m 1x8015
 199 -167 l 1
 200 -168 l 1
 200 -267 l 1
 100 -267 l 1
 100 -168 l 1
 101 -167 l 1x8015
301 -167 m 1
 399 -167 l 1
 400 -168 l 1
 400 -267 l 1
 300 -267 l 1
 300 -168 l 1
 301 -167 l 1
501 -167 m 1
 600 -167 l 1
 600 -267 l 1
 500 -267 l 1
 500 -168 l 1
 501 -167 l 1
EndSplineSet
EndChar

StartChar: SF080000
Encoding: 366 9500 259
Width: 600
Flags: MW
HStem: 216 72<336 600 336 600>
VStem: 264 72<-288 216 288 792>
LayerCount: 2
Fore
SplineSet
264 -288 m 1
 264 792 l 1
 336 792 l 1
 336 288 l 1
 600 288 l 1
 600 216 l 1
 336 216 l 1
 336 -288 l 1
 264 -288 l 1
EndSplineSet
EndChar

StartChar: foursuperior
Encoding: 367 8308 260
Width: 600
Flags: W
HStem: 248 38<240 318 358 411 240 318> 333 40<208 318 208 318 358 411> 559 62<316 318 316 316> 601 20G<309 358 358 358>
VStem: 318 40<286 333 286 333 373 559 559 559>
LayerCount: 2
Fore
SplineSet
358 621 m 1xd8
 358 373 l 1
 411 373 l 1
 411 333 l 1
 358 333 l 1
 358 286 l 1
 411 286 l 1
 411 248 l 1
 240 248 l 1
 240 286 l 1
 318 286 l 1
 318 333 l 1
 162 333 l 1
 162 374 l 1
 309 621 l 1
 358 621 l 1xd8
318 373 m 1
 318 559 l 1
 316 559 l 1xe8
 208 373 l 1
 318 373 l 1
EndSplineSet
EndChar

StartChar: SF380000
Encoding: 368 9562 261
Width: 600
Flags: MW
HStem: 144 72<264 600 264 600> 288 72<408 600 408 600>
VStem: 192 72<216 216 216 792> 336 72<360 792 360 792 360 792>
LayerCount: 2
Fore
SplineSet
336 288 m 1
 336 792 l 1
 408 792 l 1
 408 360 l 1
 600 360 l 1
 600 288 l 1
 336 288 l 1
264 216 m 1
 600 216 l 1
 600 144 l 1
 192 144 l 1
 192 792 l 1
 264 792 l 1
 264 216 l 1
EndSplineSet
EndChar

StartChar: Iogonek
Encoding: 369 302 262
Width: 600
Flags: W
HStem: -117 52<292 336> 0 47<100 275 100 286 100 275 369 369 369 500> 516 47<100 275 100 500 325 325 325 500>
VStem: 251 59<-52.5 -47.5> 275 50<47 516 47 516>
LayerCount: 2
Fore
SplineSet
378 -40 m 1xf8
 368 -93 l 1
 355 -104 338 -117 309 -117 c 0
 275 -117 251 -90 251 -59 c 0
 251 -36 263 -17 286 -2 c 1
 286 0 l 1xf0
 100 0 l 1
 100 47 l 1
 275 47 l 1
 275 516 l 1
 100 516 l 1
 100 563 l 1
 500 563 l 1
 500 516 l 1
 325 516 l 1
 325 47 l 1x68
 500 47 l 1
 500 0 l 1
 369 0 l 1
 349 -6 310 -23 310 -46 c 0
 310 -59 321 -65 329 -65 c 0
 343 -65 346 -62 378 -40 c 1xf8
EndSplineSet
EndChar

StartChar: SF500000
Encoding: 370 9560 263
Width: 600
Flags: MW
HStem: 144 72<336 600 336 600> 288 72<336 600 336 600>
VStem: 264 72<216 288 360 792>
LayerCount: 2
Fore
SplineSet
264 792 m 1
 336 792 l 1
 336 360 l 1
 600 360 l 1
 600 288 l 1
 336 288 l 1
 336 216 l 1
 600 216 l 1
 600 144 l 1
 264 144 l 1
 264 792 l 1
EndSplineSet
EndChar

StartChar: female
Encoding: 371 9792 264
Width: 600
Flags: MW
HStem: 163 47<154 276 154 276 326 448> 275 50<274 276 274 339> 513 50<274 326>
VStem: 156 50<393 445 393 457.5> 276 50<38 163 38 163 210 275> 394 50<393 445>
LayerCount: 2
Fore
SplineSet
326 275 m 1
 326 210 l 1
 448 210 l 1
 448 163 l 1
 326 163 l 1
 326 38 l 1
 276 38 l 1
 276 163 l 1
 154 163 l 1
 154 210 l 1
 276 210 l 1
 276 275 l 1
 237 275 156 326 156 417 c 0
 156 498 220 563 300 563 c 0
 383 563 444 494 444 418 c 0
 444 322 352 275 326 275 c 1
300 513 m 0
 248 513 206 471 206 419 c 0
 206 367 248 325 300 325 c 0
 352 325 394 367 394 419 c 0
 394 471 352 513 300 513 c 0
EndSplineSet
EndChar

StartChar: SF040000
Encoding: 372 9496 265
Width: 600
Flags: MW
HStem: 216 72<0 264 0 336 0 264>
VStem: 264 72<288 792 216 792>
LayerCount: 2
Fore
SplineSet
264 288 m 1
 264 792 l 1
 336 792 l 1
 336 216 l 1
 0 216 l 1
 0 288 l 1
 264 288 l 1
EndSplineSet
EndChar

StartChar: eightsuperior
Encoding: 373 8312 266
Width: 600
Flags: W
HStem: 240 38<279.5 321 279.5 333.5> 414 20 414 38<281 319 281 321.5> 583 38<280 320>
VStem: 181 43<326.5 364 326.5 364> 188 43<502.5 537.5 501 548.5> 369 43<503 537> 376 43<326.5 364>
LayerCount: 2
Fore
SplineSet
181 346 m 0xb9
 181 382 200 413 234 434 c 1
 203 458 188 485 188 520 c 0
 188 577 237 621 300 621 c 0
 363 621 412 576 412 520 c 0xd6
 412 486 397 457 366 434 c 1xd9
 400 413 419 382 419 346 c 0
 419 286 367 240 300 240 c 0
 233 240 181 286 181 346 c 0xb9
231 519 m 0xb6
 231 483 262 452 300 452 c 0
 338 452 369 483 369 519 c 0
 369 555 340 583 300 583 c 0
 260 583 231 556 231 519 c 0xb6
224 345 m 0xb9
 224 308 259 278 300 278 c 0
 342 278 376 308 376 345 c 0
 376 383 343 414 300 414 c 0
 257 414 224 383 224 345 c 0xb9
EndSplineSet
EndChar

StartChar: Eogonek
Encoding: 374 280 267
Width: 600
Flags: W
HStem: -117 52<411 455> 0 47<57 142 192 405 57 142 488 488 488 490> 274 47<192 354 192 354> 516 47<57 142 57 532 192 192 192 480>
VStem: 142 50<47 274 321 516> 354 46<202 274 274 274 321 394 202 394> 370 60<-52.5 -47.5> 485 49 492.5 48.5
LayerCount: 2
Fore
SplineSet
497 -40 m 1xfe80
 487 -93 l 1
 474 -104 457 -117 428 -117 c 0
 394 -117 370 -90 370 -59 c 0
 370 -36 382 -17 405 -2 c 1
 405 0 l 1xfa80
 57 0 l 1
 57 47 l 1
 142 47 l 1
 142 516 l 1
 57 516 l 1
 57 563 l 1
 532 563 l 1
 536 379 l 1
 490 379 l 1
 480 516 l 1
 192 516 l 1
 192 321 l 1
 354 321 l 1
 354 394 l 1
 400 394 l 1
 400 202 l 1
 354 202 l 1
 354 274 l 1x7d
 192 274 l 1
 192 47 l 1
 490 47 l 1
 495 184 l 1
 541 184 l 1
 541 0 l 1
 488 0 l 1
 468 -6 430 -23 430 -46 c 0
 430 -59 440 -65 448 -65 c 0
 462 -65 465 -62 497 -40 c 1xfe80
EndSplineSet
EndChar

StartChar: mu
Encoding: 376 181 269
Width: 600
Flags: W
HStem: -14 50<275.5 312.5 275.5 319> 0 41<479 562 420 430> 388 42<36 118 36 168 347 429>
VStem: 118 50<162.5 195 195 388 388 388> 429 50<195 388 388 388>
LayerCount: 2
Fore
SplineSet
36 430 m 1x78
 168 430 l 1
 168 195 l 2
 168 130 173 109 191 85 c 0
 216 52 257 36 294 36 c 0
 331 36 379 53 401 82 c 0xb8
 424 113 429 141 429 195 c 2
 429 388 l 1
 347 388 l 1
 347 430 l 1
 479 430 l 1
 479 41 l 1
 562 41 l 1
 562 0 l 1
 430 0 l 1
 430 53 l 1
 428 53 l 1x78
 420 41 l 2
 397 6 342 -14 296 -14 c 0
 247 -14 203 13 191 25 c 0
 179 37 179 38 167 47 c 1xb8
 167 -149 l 1
 118 -149 l 1
 118 388 l 1
 36 388 l 1
 36 430 l 1x78
EndSplineSet
EndChar

StartChar: hbar
Encoding: 377 295 270
Width: 600
Flags: MW
HStem: 0 47<38 122 172 251 38 122 356 441 491 575> 381 50<314 375> 473 47<25 122 25 122 172 400> 574 55
VStem: 122 50<47 303 362 473 520 578 578 578> 441 50<47 263 263 268 47 298.5>
LayerCount: 2
Fore
SplineSet
172 520 m 1
 400 520 l 1
 400 473 l 1
 172 473 l 1
 172 362 l 1
 216 393 270 431 343 431 c 0
 426 431 491 376 491 268 c 2
 491 47 l 1
 575 47 l 1
 575 0 l 1
 356 0 l 1
 356 47 l 1
 441 47 l 1
 441 263 l 2
 441 334 405 381 345 381 c 0
 283 381 222 344 172 303 c 1
 172 47 l 1
 251 47 l 1
 251 0 l 1
 38 0 l 1
 38 47 l 1
 122 47 l 1
 122 473 l 1
 25 473 l 1
 25 520 l 1
 122 520 l 1
 122 578 l 1
 29 570 l 1
 25 617 l 1
 172 629 l 1
 172 520 l 1
EndSplineSet
EndChar

StartChar: Gcedilla
Encoding: 378 290 271
Width: 600
Flags: W
HStem: -145 45<302.5 329 302.5 363> -62 95<286 286> -25 21G<335 335> -17 50<336 336> 200 47<331 479 331 578 530 530 530 578> 530 50<256 338 228.5 382.5> 554 20G<474 522 522 522>
VStem: 48 54<222.5 356> 289 46.5 358 47<-93 -83 -93 -77.5> 474 42 479 51<65 200 32 200>
LayerCount: 2
Fore
SplineSet
336 -17 m 1x9d90
 335 -25 l 1xadd0
 402 -35 405 -79 405 -87 c 0
 405 -99 401 -145 325 -145 c 0
 276 -145 233 -134 215 -130 c 1
 222 -86 l 1
 246 -92 281 -100 324 -100 c 0
 334 -100 358 -100 358 -87 c 0xcdd0
 358 -68 325 -65 286 -62 c 1xcd90
 292 -15 l 1
 102 3 48 166 48 279 c 0
 48 433 143 580 314 580 c 0
 362 580 401 568 439 537 c 0
 450 527 454 525 459 525 c 0x9da0
 469 525 469 530 474 574 c 1
 522 574 l 1
 519 537 516 500 516 474 c 0x9ba0
 516 441 519 407 522 383 c 1
 479 375 l 1x9da0
 472 419 453 530 312 530 c 0
 200 530 102 439 102 279 c 0
 102 142 174 33 326 33 c 0
 359 33 401 38 479 65 c 1
 479 200 l 1
 331 200 l 1
 331 247 l 1
 578 247 l 1
 578 200 l 1
 530 200 l 1
 530 32 l 1
 451 -1 391 -14 336 -17 c 1x9d90
EndSplineSet
EndChar

StartChar: SF270000
Encoding: 379 9564 272
Width: 600
Flags: MW
HStem: 216 72<0 192 264 336 0 192>
VStem: 192 72<288 792> 336 72<288 792 216 792>
LayerCount: 2
Fore
SplineSet
264 288 m 1
 336 288 l 1
 336 792 l 1
 408 792 l 1
 408 216 l 1
 0 216 l 1
 0 288 l 1
 192 288 l 1
 192 792 l 1
 264 792 l 1
 264 288 l 1
EndSplineSet
EndChar

StartChar: Lquoteright
Encoding: 380 -1 273
Width: 600
Flags: MW
HStem: 0 47<59 159 209 492 59 159> 516 47<59 159 59 332 209 332 209 209>
VStem: 159 50<47 516 47 516> 499 48.5
LayerCount: 2
Fore
SplineSet
59 563 m 1
 332 563 l 1
 332 516 l 1
 209 516 l 1
 209 47 l 1
 492 47 l 1
 506 249 l 1
 553 249 l 1
 542 0 l 1
 59 0 l 1
 59 47 l 1
 159 47 l 1
 159 516 l 1
 59 516 l 1
 59 563 l 1
450 563 m 1
 554 563 l 1
 445 320 l 1
 374 320 l 1
 450 563 l 1
EndSplineSet
EndChar

StartChar: SF540000
Encoding: 381 9578 274
Width: 600
Flags: MW
HStem: 144 72<0 264 0 264 336 600> 288 72<0 264 0 264 336 600>
VStem: 264 72<-288 144 -288 144 216 288 360 792>
LayerCount: 2
Fore
SplineSet
336 360 m 1
 600 360 l 1
 600 288 l 1
 336 288 l 1
 336 216 l 1
 600 216 l 1
 600 144 l 1
 336 144 l 1
 336 -288 l 1
 264 -288 l 1
 264 144 l 1
 0 144 l 1
 0 216 l 1
 264 216 l 1
 264 288 l 1
 0 288 l 1
 0 360 l 1
 264 360 l 1
 264 792 l 1
 336 792 l 1
 336 360 l 1
EndSplineSet
EndChar

StartChar: greaterequal
Encoding: 382 8805 275
Width: 600
Flags: MW
HStem: 33 51<71 536 71 536> 132 21G<74 74> 556 20G<74 74>
VStem: 54 492<177 357 357 531>
LayerCount: 2
Fore
SplineSet
74 576 m 1
 546 357 l 1
 74 132 l 1
 54 177 l 1
 435 356 l 1
 54 531 l 1
 74 576 l 1
71 84 m 1
 536 84 l 1
 536 33 l 1
 71 33 l 1
 71 84 l 1
EndSplineSet
EndChar

StartChar: SF510000
Encoding: 383 9554 276
Width: 600
Flags: MW
HStem: 144 72<336 600 336 600> 288 72<336 600 336 336>
VStem: 264 72<-288 144 216 288>
LayerCount: 2
Fore
SplineSet
336 216 m 1
 600 216 l 1
 600 144 l 1
 336 144 l 1
 336 -288 l 1
 264 -288 l 1
 264 360 l 1
 600 360 l 1
 600 288 l 1
 336 288 l 1
 336 216 l 1
EndSplineSet
EndChar

StartChar: Eth
Encoding: 384 208 277
Width: 600
Flags: MW
HStem: 0 47<34 113 163 280 34 113> 274 47<34 113 34 113 163 329> 516 47<34 113 34 284 163 163 163 284 284 285>
VStem: 113 50<47 274 47 274 321 516> 497 54<243 309.5 233 330>
LayerCount: 2
Fore
SplineSet
113 274 m 1
 34 274 l 1
 34 321 l 1
 113 321 l 1
 113 516 l 1
 34 516 l 1
 34 563 l 1
 284 563 l 2
 371 563 434 556 489 488 c 0
 548 415 551 327 551 292 c 0
 551 174 511 99 468 58 c 0
 407 0 318 0 280 0 c 2
 34 0 l 1
 34 47 l 1
 113 47 l 1
 113 274 l 1
329 274 m 1
 163 274 l 1
 163 47 l 1
 280 47 l 2
 314 47 382 47 430 94 c 0
 466 130 497 197 497 289 c 0
 497 371 471 422 450 451 c 0
 408 509 361 516 285 516 c 2
 163 516 l 1
 163 321 l 1
 329 321 l 1
 329 274 l 1
EndSplineSet
EndChar

StartChar: SF190000
Encoding: 385 9569 278
Width: 600
Flags: MW
HStem: 144 72<0 264 0 264> 288 72<0 264 0 264>
VStem: 264 72<-288 144 144 144 216 288 288 288 360 792>
LayerCount: 2
Fore
SplineSet
336 -288 m 1
 264 -288 l 1
 264 144 l 1
 0 144 l 1
 0 216 l 1
 264 216 l 1
 264 288 l 1
 0 288 l 1
 0 360 l 1
 264 360 l 1
 264 792 l 1
 336 792 l 1
 336 -288 l 1
EndSplineSet
EndChar

StartChar: overline
Encoding: 386 8254 279
Width: 600
Flags: MW
HStem: 725 50<46 554 46 554>
VStem: 46 508<725 775 725 775>
LayerCount: 2
Fore
SplineSet
46 775 m 1
 554 775 l 1
 554 725 l 1
 46 725 l 1
 46 775 l 1
EndSplineSet
EndChar

StartChar: heart
Encoding: 387 9829 280
Width: 600
Flags: MW
HStem: -11 21G 428 20G<300 302 302 302> 543 20G<135 200 413 463.5>
VStem: 51 498<419 477.5>
LayerCount: 2
Fore
SplineSet
185 203 m 2
 133 272 l 2
 68 357 51 394 51 444 c 0
 51 511 102 563 168 563 c 0
 232 563 275 525 300 448 c 1
 302 448 l 1
 311 483 319 499 336 518 c 0
 361 547 395 563 431 563 c 0
 496 563 549 512 549 448 c 0
 549 389 524 336 452 245 c 0
 406 187 396 174 378 148 c 0
 335 83 315 43 301 -11 c 1
 292 21 286 38 275 62 c 0
 258 97 223 153 185 203 c 2
EndSplineSet
EndChar

StartChar: SM580000
Encoding: 388 -1 281
Width: 600
Flags: MW
HStem: 67 430<240.5 359.5>
VStem: 85 430<222.5 341>
LayerCount: 2
Fore
SplineSet
300 497 m 0
 419 497 515 401 515 282 c 0
 515 163 419 67 300 67 c 0
 181 67 85 163 85 282 c 0
 85 400 181 497 300 497 c 0
EndSplineSet
EndChar

StartChar: threequarters
Encoding: 389 190 282
Width: 600
Flags: W
HStem: -77 36<437 504 542 595 437 504> 241 38<123.5 162 123.5 172> 424.5 36.5 428 20G 584 38<124.5 155> 593 20G<605 605>
VStem: 202 40<515.5 543> 220 40<331.5 374.5 321 376.5> 504 38<-41 9 -41 9 46 241 241 241>
LayerCount: 2
Fore
SplineSet
504 46 m 1xd980
 504 241 l 1
 502 241 l 1
 387 46 l 1
 504 46 l 1xd980
542 296 m 1
 542 46 l 1
 595 46 l 1
 595 9 l 1
 542 9 l 1
 542 -41 l 1
 595 -41 l 1
 595 -77 l 1
 437 -77 l 1
 437 -41 l 1
 504 -41 l 1
 504 9 l 1
 345 9 l 1
 345 49 l 1
 494 296 l 1
 542 296 l 1
48 549 m 1
 29 581 l 1
 77 612 103 622 136 622 c 0
 196 622 242 581 242 527 c 0xda80
 242 494 230 470 202 448 c 1xd980
 242 425 260 395 260 354 c 0
 260 288 208 241 136 241 c 0
 107 241 87 247 40 265 c 2
 22 272 l 1
 37 307 l 1
 82 286 109 279 138 279 c 0
 186 279 220 309 220 354 c 0
 220 399 190 427 136 425 c 2xe980
 114 424 l 1
 114 461 l 1
 149 462 162 465 176 475 c 0
 193 487 202 505 202 526 c 0
 202 560 174 584 136 584 c 0xea80
 113 584 95 577 63 558 c 2
 48 549 l 1
577 633 m 1
 605 613 l 1xd580
 95 -90 l 1
 67 -68 l 1
 577 633 l 1
EndSplineSet
EndChar

StartChar: SF230000
Encoding: 390 9571 283
Width: 600
Flags: MW
HStem: 144 72<0 192 0 264> 288 72<0 192 0 264 0 192>
VStem: 192 72<-288 144 144 144 360 792> 336 72<-288 792 -288 792>
LayerCount: 2
Fore
SplineSet
336 -288 m 1
 336 792 l 1
 408 792 l 1
 408 -288 l 1
 336 -288 l 1
192 144 m 1
 0 144 l 1
 0 216 l 1
 264 216 l 1
 264 -288 l 1
 192 -288 l 1
 192 144 l 1
264 288 m 1
 0 288 l 1
 0 360 l 1
 192 360 l 1
 192 792 l 1
 264 792 l 1
 264 288 l 1
EndSplineSet
EndChar

StartChar: SF110000
Encoding: 391 9474 284
Width: 600
Flags: MW
HStem: -288 1080<264 336 264 336>
VStem: 264 72<-288 792 -288 792>
LayerCount: 2
Fore
SplineSet
264 -288 m 1
 264 792 l 1
 336 792 l 1
 336 -288 l 1
 264 -288 l 1
EndSplineSet
EndChar

StartChar: fivesuperior
Encoding: 392 8309 285
Width: 600
Flags: MW
HStem: 240 40<272 312.5 270.5 326> 445 40<284 315> 573 40<231 399 231 231>
VStem: 192 39<470 573 470 613> 373 43<337 386.5>
LayerCount: 2
Fore
SplineSet
192 613 m 1
 399 613 l 1
 399 573 l 1
 231 573 l 1
 231 470 l 1
 256 480 273 485 295 485 c 0
 374 485 416 429 416 364 c 0
 416 290 364 240 288 240 c 0
 256 240 221 251 188 262 c 2
 170 268 l 1
 185 306 l 1
 225 288 255 280 286 280 c 0
 339 280 373 312 373 362 c 0
 373 411 339 445 291 445 c 0
 264 445 242 436 214 415 c 1
 192 427 l 1
 192 613 l 1
EndSplineSet
EndChar

StartChar: minussuperior
Encoding: 393 8315 286
Width: 600
Flags: MW
HStem: 409 43<141 459 141 459>
VStem: 141 318<409 452 409 452>
LayerCount: 2
Fore
SplineSet
459 452 m 1
 459 409 l 1
 141 409 l 1
 141 452 l 1
 459 452 l 1
EndSplineSet
EndChar

StartChar: ncedilla
Encoding: 394 326 287
Width: 600
Flags: W
HStem: -145 45<289.5 316 289.5 350> -62 62<34 273> -25 25<322 322> 0 47<34 116 166 250 34 116 351 437 487 567> 383 47<34 116 34 166> 395 50<322.5 368.5>
VStem: 116 50<47 315 374 383 383 383> 276.5 47 345 47<-93 -83 -93 -77.5> 437 50<47 276 276 280 47 312.5>
LayerCount: 2
Fore
SplineSet
34 430 m 1x9a40
 166 430 l 1xab40
 166 374 l 1
 210 405 265 445 338 445 c 0
 429 445 487 377 487 280 c 2
 487 47 l 1
 567 47 l 1
 567 0 l 1
 351 0 l 1
 351 47 l 1
 437 47 l 1
 437 276 l 2
 437 349 398 395 339 395 c 0
 306 395 256 386 166 315 c 1x96c0
 166 47 l 1
 250 47 l 1
 250 0 l 1
 34 0 l 1
 34 47 l 1
 116 47 l 1
 116 383 l 1
 34 383 l 1
 34 430 l 1x9a40
325 0 m 1
 322 -25 l 1xaac0
 389 -35 392 -79 392 -87 c 0
 392 -99 388 -145 312 -145 c 0
 263 -145 220 -134 202 -130 c 1
 209 -86 l 1
 233 -92 268 -100 311 -100 c 0
 321 -100 345 -100 345 -87 c 0xcac0
 345 -68 312 -65 273 -62 c 1xcb40
 280 0 l 1
 325 0 l 1
EndSplineSet
EndChar

StartChar: onequarter
Encoding: 395 188 288
Width: 600
Flags: W
HStem: -77 36<430 497 535 588 430 497> 241 55<495 497 495 495> 249 38<38 115 153 229 38 115> 593 20G<598 598> 602 20G<129 153 153 153>
VStem: 115 38<287 575 575 575> 497 38<-41 9 -41 9 46 241 241 241>
LayerCount: 2
Fore
SplineSet
535 296 m 1xee
 535 46 l 1
 588 46 l 1
 588 9 l 1
 535 9 l 1
 535 -41 l 1
 588 -41 l 1
 588 -77 l 1
 430 -77 l 1
 430 -41 l 1
 497 -41 l 1
 497 9 l 1
 338 9 l 1
 338 49 l 1
 487 296 l 1
 535 296 l 1xee
497 46 m 1
 497 241 l 1
 495 241 l 1
 380 46 l 1
 497 46 l 1
26 579 m 1
 129 622 l 1
 153 622 l 1
 153 287 l 1
 229 287 l 1
 229 249 l 1
 38 249 l 1
 38 287 l 1
 115 287 l 1xae
 115 575 l 1
 42 545 l 1
 26 579 l 1
570 633 m 1
 598 613 l 1xb6
 88 -90 l 1
 60 -68 l 1
 570 633 l 1
EndSplineSet
EndChar

StartChar: phi
Encoding: 396 966 289
Width: 600
Flags: W
HStem: -15 47<298 376> -10 21G<248 248> 398 47<333.5 401.5> 415 20G<216 216>
VStem: 52 54<198.5 234 198.5 242.5> 248 50<-156 -15 -156 -10 -156 -10 39 251> 494 54<187.5 266.5>
LayerCount: 2
Fore
SplineSet
216 435 m 1xfe
 216 386 l 1
 195 377 171 367 148 337 c 0x9e
 119 299 106 252 106 216 c 0
 106 181 122 71 248 39 c 1
 248 251 l 2
 248 315 247 445 366 445 c 0
 466 445 548 335 548 218 c 0
 548 98 460 -19 298 -15 c 1xae
 298 -156 l 1
 248 -156 l 1
 248 -10 l 1
 84 19 52 154 52 217 c 0
 52 268 74 388 207 431 c 0
 208 432 215 434 216 435 c 1xfe
298 251 m 2
 298 32 l 1
 454 32 494 154 494 221 c 0
 494 312 436 398 367 398 c 0xae
 300 398 298 323 298 251 c 2
EndSplineSet
EndChar

StartChar: highcomman
Encoding: 397 -1 290
Width: 600
Flags: W
HStem: 0 47<40 122 172 256 40 122 357 443 493 573> 383 47<40 122 40 172> 394 51<328.5 374.5> 550 130<41 65 0 137>
VStem: 122 50<47 315 374 383 383 383> 443 50<47 276 276 280 47 312.5>
LayerCount: 2
Fore
SplineSet
40 430 m 1xdc
 172 430 l 1xdc
 172 374 l 1
 216 405 271 445 344 445 c 0
 435 445 493 377 493 280 c 2
 493 47 l 1
 573 47 l 1
 573 0 l 1
 357 0 l 1
 357 47 l 1
 443 47 l 1
 443 276 l 2
 443 349 404 394 345 394 c 0
 312 394 262 386 172 315 c 1xbc
 172 47 l 1
 256 47 l 1
 256 0 l 1
 40 0 l 1
 40 47 l 1
 122 47 l 1
 122 383 l 1
 40 383 l 1
 40 430 l 1xdc
41 680 m 1
 137 680 l 1
 65 550 l 1
 0 550 l 1
 41 680 l 1
EndSplineSet
EndChar

StartChar: yuan
Encoding: 398 -1 291
Width: 600
Flags: MW
HStem: 0 47<160 279 327 446 160 279> 187 47<132 279 132 279 327 471> 546 47<32 93 32 229 153 153 153 229 374 450 508 508 508 568>
VStem: 32 197<546 593 546 593> 279 48<47 187 47 187 234 304> 374 194<546 593 546 593>
LayerCount: 2
Fore
SplineSet
327 187 m 1
 327 47 l 1
 446 47 l 1
 446 0 l 1
 160 0 l 1
 160 47 l 1
 279 47 l 1
 279 187 l 1
 132 187 l 1
 132 234 l 1
 279 234 l 1
 279 304 l 1
 93 546 l 1
 32 546 l 1
 32 593 l 1
 229 593 l 1
 229 546 l 1
 153 546 l 1
 303 351 l 1
 450 546 l 1
 374 546 l 1
 374 593 l 1
 568 593 l 1
 568 546 l 1
 508 546 l 1
 327 304 l 1
 327 234 l 1
 471 234 l 1
 471 187 l 1
 327 187 l 1
EndSplineSet
EndChar

StartChar: oneeighth
Encoding: 399 8539 292
Width: 600
Flags: W
HStem: -85 38<456 498.5 456 510.5> 89 38<458.5 496.5> 249 38<28 105 144 219 28 105> 258 38<457.5 496> 593 20G<579 579> 602 20G<120 144 144 144>
VStem: 105 39<287 575 575 575> 358 41<0.5 39> 365 41<177.5 214 174.5 223.5> 548 41<178 213.5> 555 41<0 39 -9 42>
LayerCount: 2
Fore
SplineSet
358 21 m 0xe720
 358 57 377 88 411 109 c 1
 380 133 365 160 365 195 c 0
 365 252 414 296 477 296 c 0
 540 296 589 251 589 195 c 0xd6c0
 589 161 574 132 543 109 c 1
 577 88 596 57 596 21 c 0
 596 -39 544 -85 477 -85 c 0
 410 -85 358 -39 358 21 c 0xe720
406 194 m 0xd6c0
 406 155 440 127 477 127 c 0
 517 127 548 155 548 194 c 0
 548 233 515 258 477 258 c 0
 438 258 406 234 406 194 c 0xd6c0
399 19 m 0xe720
 399 -18 435 -47 477 -47 c 0
 520 -47 555 -20 555 20 c 0
 555 64 516 89 477 89 c 0
 434 89 399 64 399 19 c 0xe720
17 579 m 1
 120 622 l 1
 144 622 l 1
 144 287 l 1
 219 287 l 1
 219 249 l 1
 28 249 l 1
 28 287 l 1
 105 287 l 1
 105 575 l 1
 32 545 l 1
 17 579 l 1
550 633 m 1
 579 613 l 1xeb20
 69 -90 l 1
 41 -68 l 1
 550 633 l 1
EndSplineSet
EndChar

StartChar: tcedilla
Encoding: 400 355 293
Width: 600
Flags: W
HStem: -145 45<312 338.5 312 372.5> -62 98<296 296> -25 21G<344 344> -14 50<274.5 345> 369 47<105 173 105 173 223 465> 369 194<105 223 105 223 173 223 173 465>
VStem: 173 50<180 181 181 369 416 563> 299 45.5 367 47<-93 -83 -93 -77.5>
LayerCount: 2
Fore
SplineSet
345 -14 m 1x9b80
 344 -25 l 1xaa80
 412 -35 414 -79 414 -87 c 0
 414 -99 411 -145 334 -145 c 0
 285 -145 242 -134 224 -130 c 1
 231 -86 l 1
 255 -92 290 -100 334 -100 c 0
 343 -100 367 -100 367 -87 c 0xca80
 367 -68 334 -65 296 -62 c 1xcb80
 302 -12 l 1
 174 7 173 92 173 180 c 2
 173 369 l 1
 105 369 l 1
 105 416 l 1
 173 416 l 1x9a80
 173 563 l 1
 223 563 l 1x9680
 223 416 l 1
 465 416 l 1
 465 369 l 1
 223 369 l 1
 223 181 l 2
 223 107 222 36 327 36 c 0
 360 36 403 39 520 88 c 1
 538 43 l 1
 482 17 408 -10 345 -14 c 1x9b80
EndSplineSet
EndChar

StartChar: musicalnotedbl
Encoding: 401 9835 294
Width: 600
Flags: W
HStem: -20 21G<75 130> -20 152<117.5 130> 24 153<415 428.5> 330 21G<479 479> 549 20G<529 529>
VStem: 182 50<127 262 338 413> 479 50<171 330 330 330 405 481 481 481>
LayerCount: 2
Fore
SplineSet
479 171 m 1xbe
 479 330 l 1
 232 262 l 1
 232 116 l 2
 232 13 154 -20 106 -20 c 0
 44 -20 43 19 43 34 c 0
 43 83 88 132 147 132 c 0
 159 132 169 130 182 127 c 1x5e
 182 479 l 1
 529 569 l 1
 529 161 l 2
 529 59 453 24 404 24 c 0
 373 24 341 37 341 78 c 0
 341 127 385 177 445 177 c 0
 457 177 467 175 479 171 c 1xbe
232 413 m 1
 232 338 l 1
 479 405 l 1
 479 481 l 1
 232 413 l 1
EndSplineSet
EndChar

StartChar: SF220000
Encoding: 402 9557 295
Width: 600
Flags: MW
HStem: 144 72<0 264 0 264> 288 72<0 264 0 336>
VStem: 264 72<-288 144 144 144 216 288 288 288>
LayerCount: 2
Fore
SplineSet
0 216 m 1
 264 216 l 1
 264 288 l 1
 0 288 l 1
 0 360 l 1
 336 360 l 1
 336 -288 l 1
 264 -288 l 1
 264 144 l 1
 0 144 l 1
 0 216 l 1
EndSplineSet
EndChar

StartChar: SM600000
Encoding: 403 9650 296
Width: 600
Flags: MW
HStem: 95 371<102 300 300 300 300 498>
VStem: 102 396<95 95>
LayerCount: 2
Fore
SplineSet
102 95 m 1
 300 466 l 1
 498 95 l 1
 102 95 l 1
EndSplineSet
EndChar

StartChar: multiply
Encoding: 404 215 297
Width: 600
Flags: MW
HStem: 433 20G<118 118 482 482>
VStem: 118 364<160 160 160 453>
LayerCount: 2
Fore
SplineSet
265 306 m 1
 118 453 l 1
 154 488 l 1
 300 342 l 1
 446 488 l 1
 482 453 l 1
 335 306 l 1
 482 160 l 1
 446 124 l 1
 300 271 l 1
 154 124 l 1
 118 160 l 1
 265 306 l 1
EndSplineSet
EndChar

StartChar: Phi
Encoding: 405 934 298
Width: 600
Flags: MW
HStem: 0 47<190 274 324 409 190 274> 89 46<274 274> 430 44<274 274> 516 47<190 274 190 409 324 409 324 324>
VStem: 43 53<238.5 325.5> 274 50<47 89 47 89 135 430 474 516> 504 53<240.5 324 240.5 353.5>
LayerCount: 2
Fore
SplineSet
409 563 m 1
 409 516 l 1
 324 516 l 1
 324 474 l 1
 505 471 557 366 557 282 c 0
 557 199 507 92 324 89 c 1
 324 47 l 1
 409 47 l 1
 409 0 l 1
 190 0 l 1
 190 47 l 1
 274 47 l 1
 274 89 l 1
 97 92 43 196 43 281 c 0
 43 370 99 471 274 474 c 1
 274 516 l 1
 190 516 l 1
 190 563 l 1
 409 563 l 1
324 430 m 1
 324 135 l 1
 367 136 504 141 504 283 c 0
 504 424 368 429 324 430 c 1
274 135 m 1
 274 430 l 1
 230 429 96 424 96 283 c 0
 96 141 231 136 274 135 c 1
EndSplineSet
EndChar

StartChar: pi
Encoding: 406 960 299
Width: 600
Flags: MW
HStem: 0 47<46 128 178 250 46 128 350 422 472 555> 383 47<46 128 46 555 178 422 178 178 472 555 472 472>
VStem: 128 50<47 383 47 383> 422 50<47 383 47 383>
LayerCount: 2
Fore
SplineSet
555 430 m 1
 555 383 l 1
 472 383 l 1
 472 47 l 1
 555 47 l 1
 555 0 l 1
 350 0 l 1
 350 47 l 1
 422 47 l 1
 422 383 l 1
 178 383 l 1
 178 47 l 1
 250 47 l 1
 250 0 l 1
 46 0 l 1
 46 47 l 1
 128 47 l 1
 128 383 l 1
 46 383 l 1
 46 430 l 1
 555 430 l 1
EndSplineSet
EndChar

StartChar: SF360000
Encoding: 407 9566 300
Width: 600
Flags: MW
HStem: 144 72<336 600 336 600> 288 72<336 600 336 600>
VStem: 264 72<-288 144 216 288 360 792>
LayerCount: 2
Fore
SplineSet
264 -288 m 1
 264 792 l 1
 336 792 l 1
 336 360 l 1
 600 360 l 1
 600 288 l 1
 336 288 l 1
 336 216 l 1
 600 216 l 1
 600 144 l 1
 336 144 l 1
 336 -288 l 1
 264 -288 l 1
EndSplineSet
EndChar

StartChar: periodsuperior
Encoding: 408 -1 301
Width: 600
Flags: MW
HStem: 254 92<287 313.5>
VStem: 242 116<285.5 314 285.5 314.5>
LayerCount: 2
Fore
SplineSet
300 346 m 0
 330 346 358 328 358 300 c 0
 358 271 327 254 300 254 c 0
 274 254 242 269 242 300 c 0
 242 329 271 346 300 346 c 0
EndSplineSet
EndChar

StartChar: SF250000
Encoding: 409 9559 302
Width: 600
Flags: MW
HStem: 144 72<0 192 0 264> 288 72<0 336 0 408>
VStem: 192 72<-288 144 144 144> 336 72<-288 288 288 288>
LayerCount: 2
Fore
SplineSet
192 144 m 1
 0 144 l 1
 0 216 l 1
 264 216 l 1
 264 -288 l 1
 192 -288 l 1
 192 144 l 1
336 -288 m 1
 336 288 l 1
 0 288 l 1
 0 360 l 1
 408 360 l 1
 408 -288 l 1
 336 -288 l 1
EndSplineSet
EndChar

StartChar: SF200000
Encoding: 410 9570 303
Width: 600
Flags: MW
HStem: 216 72<0 192 0 192>
VStem: 192 72<-288 216 216 216 288 792 -288 792> 336 72<-288 792>
LayerCount: 2
Fore
SplineSet
264 792 m 1
 264 -288 l 1
 192 -288 l 1
 192 216 l 1
 0 216 l 1
 0 288 l 1
 192 288 l 1
 192 792 l 1
 264 792 l 1
408 -288 m 1
 336 -288 l 1
 336 792 l 1
 408 792 l 1
 408 -288 l 1
EndSplineSet
EndChar

StartChar: kcedilla
Encoding: 411 311 304
Width: 600
Flags: W
HStem: -145 45<267 293.5 267 327.5> -62 62 -25 25<299 299> 0 47<52 135 52 185 52 135 355 419 479 563> 383 47<316 372 316 525 447 447 447 525> 573 56
VStem: 135 50<47 183 239 577 577 577> 254.5 46 316 209<383 430 383 430> 323 47<-93 -83 -93 -77.5> 355 208<0 47 0 47>
LayerCount: 2
Fore
SplineSet
36 616 m 1x9e20
 185 629 l 1
 185 239 l 1
 372 381 l 1
 372 383 l 1
 316 383 l 1
 316 430 l 1
 525 430 l 1
 525 383 l 1
 447 383 l 1x9e80
 279 254 l 1
 360 181 443 93 479 47 c 1
 563 47 l 1
 563 0 l 1
 355 0 l 1
 355 47 l 1
 419 47 l 1
 378 96 338 136 241 226 c 1
 185 183 l 1
 185 0 l 1
 52 0 l 1
 52 47 l 1
 135 47 l 1
 135 577 l 1
 40 569 l 1
 36 616 l 1x9e20
302 0 m 1xaf20
 299 -25 l 1xae40
 367 -35 370 -79 370 -87 c 0
 370 -99 366 -145 289 -145 c 0
 240 -145 197 -134 179 -130 c 1
 186 -86 l 1
 210 -92 245 -100 289 -100 c 0
 298 -100 323 -100 323 -87 c 0xce40
 323 -68 289 -65 251 -62 c 1xcf20
 258 0 l 1
 302 0 l 1xaf20
EndSplineSet
EndChar

StartChar: Ccedilla
Encoding: 412 199 305
Width: 600
Flags: W
HStem: -145 45<322.5 348 322.5 382> -62 37 -17 50<311 311 354 354> 530 50<280.5 342.5 256 398.5> 554 20G<492 529 529 529>
VStem: 64 54<229 372 224.5 375> 308 46 377 47<-92.5 -77.5> 492 37<574 574>
LayerCount: 2
Fore
SplineSet
354 -17 m 1xb680
 354 -25 l 1xf680
 380 -25 424 -47 424 -87 c 0
 424 -98 420 -145 344 -145 c 0
 295 -145 252 -134 234 -130 c 1
 241 -86 l 1
 267 -92 300 -100 345 -100 c 0
 351 -100 377 -100 377 -87 c 0xf780
 377 -68 344 -65 305 -62 c 1xf680
 311 -17 l 1
 121 2 64 170 64 288 c 0
 64 462 180 580 332 580 c 0
 353 580 399 578 442 551 c 0
 448 547 471 526 477 526 c 0xb680
 486 526 490 556 492 574 c 1
 529 574 l 1xae80
 526 492 532 436 539 383 c 1
 492 375 l 1
 485 420 467 530 330 530 c 0
 231 530 118 455 118 289 c 0
 118 160 181 33 334 33 c 0
 446 33 527 105 561 135 c 1
 594 99 l 1
 528 36 445 -9 354 -17 c 1xb680
EndSplineSet
EndChar

StartChar: fiveeighths
Encoding: 413 8541 306
Width: 600
Flags: W
HStem: -85 38<456 498.5 456 510.5> 89 38<458.5 496.5> 241 38<114 156 112.5 168.5> 258 38<457.5 496> 447 38<126.5 158.5> 576 38<70 242 70 70>
VStem: 34 36<469 576 469 614> 219 41<337.5 387.5> 358 41<0.5 39> 365 41<177.5 214 174.5 223.5> 548 41<178 213.5> 555 41<0 39 -9 42>
LayerCount: 2
Fore
SplineSet
358 21 m 0xef90
 358 57 377 88 411 109 c 1
 380 133 365 160 365 195 c 0
 365 252 414 296 477 296 c 0
 540 296 589 251 589 195 c 0xdf60
 589 161 574 132 543 109 c 1
 577 88 596 57 596 21 c 0
 596 -39 544 -85 477 -85 c 0
 410 -85 358 -39 358 21 c 0xef90
406 194 m 0xdf60
 406 155 440 127 477 127 c 0
 517 127 548 155 548 194 c 0
 548 233 515 258 477 258 c 0
 438 258 406 234 406 194 c 0xdf60
399 19 m 0xef90
 399 -18 435 -47 477 -47 c 0
 520 -47 555 -20 555 20 c 0
 555 64 516 89 477 89 c 0
 434 89 399 64 399 19 c 0xef90
34 614 m 1
 242 614 l 1
 242 576 l 1
 70 576 l 1
 70 469 l 1
 97 480 115 485 138 485 c 0
 208 485 260 434 260 364 c 0
 260 292 207 241 130 241 c 0
 98 241 73 246 28 263 c 2
 12 269 l 1
 26 305 l 1
 67 287 97 279 128 279 c 0
 184 279 219 312 219 363 c 0
 219 412 183 447 134 447 c 0
 106 447 82 439 54 418 c 1
 34 429 l 1
 34 614 l 1
550 633 m 1
 579 613 l 1
 69 -90 l 1
 41 -68 l 1
 550 633 l 1
EndSplineSet
EndChar

StartChar: SF570000
Encoding: 414 9604 307
Width: 600
Flags: MW
HStem: -288 540<0 600 0 600>
VStem: 0 600<-288 252 -288 252>
LayerCount: 2
Fore
SplineSet
0 -288 m 1
 0 252 l 1
 600 252 l 1
 600 -288 l 1
 0 -288 l 1
EndSplineSet
EndChar

StartChar: minus
Encoding: 415 8722 308
Width: 600
Flags: MW
HStem: 278 50<66 534 66 534>
VStem: 66 468<278 328 278 328>
LayerCount: 2
Fore
SplineSet
534 328 m 1
 534 278 l 1
 66 278 l 1
 66 328 l 1
 534 328 l 1
EndSplineSet
EndChar

StartChar: SF590000
Encoding: 416 9616 309
Width: 600
Flags: MW
HStem: -288 1080<300 600 300 600>
VStem: 300 300<-288 792 -288 792>
LayerCount: 2
Fore
SplineSet
300 -288 m 1
 300 792 l 1
 600 792 l 1
 600 -288 l 1
 300 -288 l 1
EndSplineSet
EndChar

StartChar: ff
Encoding: 417 64256 310
Width: 600
Flags: W
HStem: 0 47<1 159 209 385 435 594 1 159> 371 47<55 159 55 159 209 385 435 580> 575 50<254.5 321.5 511 520.5> 587 20G 596 20G<600 600>
VStem: 159 50<47 371 47 371 418 474> 385 50<47 371 47 371 418 474>
LayerCount: 2
Fore
SplineSet
600 616 m 1xee
 593 566 l 1
 543 575 530 575 511 575 c 0
 433 575 435 525 435 474 c 2
 435 418 l 1
 580 418 l 1
 580 371 l 1
 435 371 l 1
 435 47 l 1
 594 47 l 1
 594 0 l 1
 1 0 l 1
 1 47 l 1
 159 47 l 1
 159 371 l 1
 55 371 l 1
 55 418 l 1
 159 418 l 1
 159 474 l 2
 159 525 159 625 313 625 c 0xe6
 366 625 405 615 439 607 c 1xd6
 456 614 467 619 479 621 c 0
 491 624 503 625 519 625 c 0xe6
 547 625 560 623 600 616 c 1xee
385 418 m 1
 385 474 l 2
 385 488 385 537 397 563 c 1
 380 567 341 575 302 575 c 0
 207 575 209 519 209 474 c 2
 209 418 l 1
 385 418 l 1
209 371 m 1
 209 47 l 1
 385 47 l 1
 385 371 l 1
 209 371 l 1
EndSplineSet
Ligature2: "'liga' Standard Ligatures in Latin lookup 0 subtable" f f
EndChar

StartChar: ninesuperior
Encoding: 418 8313 311
Width: 600
Flags: MW
HStem: 240 41<194 251.5> 386 41<260 293> 580 41<260 300.5>
VStem: 170 44<483 527 483 537.5> 358 44
LayerCount: 2
Fore
SplineSet
165 241 m 1
 168 282 l 1
 202 281 l 2
 301 281 336 311 357 416 c 1
 355 418 l 1
 329 395 307 386 279 386 c 0
 218 386 170 439 170 505 c 0
 170 570 218 621 279 621 c 0
 353 621 402 555 402 455 c 0
 402 375 373 305 325 271 c 0
 294 249 264 241 202 240 c 0
 186 240 181 240 165 241 c 1
358 485 m 1
 355 540 322 580 279 580 c 0
 241 580 214 549 214 505 c 0
 214 461 242 427 278 427 c 0
 313 427 342 448 358 485 c 1
EndSplineSet
EndChar

StartChar: Ncedilla
Encoding: 419 325 312
Width: 600
Flags: W
HStem: -145 45<299.5 325.5 299.5 359.5> -62 62<28 283> -25 25<331 331> -13 55<462 480 462 526 437 480> 0 47<28 106 152 265 28 106> 516 47<28 106 28 199 152 169 152 152 368 480 526 526 526 591>
VStem: 106 46<47 516 47 516> 286.5 46 355 47<-93 -83 -93 -77.5> 480 46<42 516 -13 516>
LayerCount: 2
Fore
SplineSet
28 563 m 1x8e40
 199 563 l 1
 462 42 l 1
 480 42 l 1
 480 516 l 1
 368 516 l 1
 368 563 l 1
 591 563 l 1
 591 516 l 1
 526 516 l 1
 526 -13 l 1
 437 -13 l 1x9640
 169 516 l 1
 152 516 l 1
 152 47 l 1
 265 47 l 1
 265 0 l 1
 28 0 l 1
 28 47 l 1
 106 47 l 1
 106 516 l 1
 28 516 l 1
 28 563 l 1x8e40
334 0 m 1xa740
 331 -25 l 1xa6c0
 399 -35 402 -79 402 -87 c 0
 402 -99 398 -145 321 -145 c 0
 273 -145 229 -134 211 -130 c 1
 219 -86 l 1
 242 -92 278 -100 321 -100 c 0
 330 -100 355 -100 355 -87 c 0xc6c0
 355 -68 322 -65 283 -62 c 1xc740
 290 0 l 1
 334 0 l 1xa740
EndSplineSet
EndChar

StartChar: seveneighths
Encoding: 420 8542 313
Width: 600
Flags: W
HStem: -85 38<456 498.5 456 510.5> 89 38<458.5 496.5> 258 38<457.5 496> 576 38<51 215 51 51>
VStem: 13 38<523 576 523 614> 215 40<576 614> 358 41<0.5 39> 365 41<177.5 214 174.5 223.5> 548 41<178 213.5> 555 41<0 39 -9 42>
LayerCount: 2
Fore
SplineSet
358 21 m 0xfe40
 358 57 377 88 411 109 c 1
 380 133 365 160 365 195 c 0
 365 252 414 296 477 296 c 0
 540 296 589 251 589 195 c 0xfd80
 589 161 574 132 543 109 c 1
 577 88 596 57 596 21 c 0
 596 -39 544 -85 477 -85 c 0
 410 -85 358 -39 358 21 c 0xfe40
406 194 m 0xfd80
 406 155 440 127 477 127 c 0
 517 127 548 155 548 194 c 0
 548 233 515 258 477 258 c 0
 438 258 406 234 406 194 c 0xfd80
399 19 m 0xfe40
 399 -18 435 -47 477 -47 c 0
 520 -47 555 -20 555 20 c 0
 555 64 516 89 477 89 c 0
 434 89 399 64 399 19 c 0xfe40
13 614 m 1
 255 614 l 1
 255 581 l 1
 138 249 l 1
 95 249 l 1
 215 576 l 1
 51 576 l 1
 51 523 l 1
 13 523 l 1
 13 614 l 1
530 633 m 1
 559 613 l 1
 49 -90 l 1
 21 -68 l 1
 530 633 l 1
EndSplineSet
EndChar

StartChar: equivalence
Encoding: 421 8801 314
Width: 600
Flags: MW
HStem: 97 50<64 536 64 536> 278 50<64 536 64 536> 459 50<64 536 64 536>
VStem: 64 472<97 147 97 147 278 328 97 328 459 509 97 509>
LayerCount: 2
Fore
SplineSet
64 509 m 1
 536 509 l 1
 536 459 l 1
 64 459 l 1
 64 509 l 1
64 328 m 1
 536 328 l 1
 536 278 l 1
 64 278 l 1
 64 328 l 1
64 147 m 1
 536 147 l 1
 536 97 l 1
 64 97 l 1
 64 147 l 1
EndSplineSet
EndChar

StartChar: iogonek
Encoding: 422 303 315
Width: 600
Flags: W
HStem: -117 52<292 336> 0 47<101 277 101 286 101 277 369 369 369 500> 383 47<130 277 130 327> 537 119<254 327 254 327>
VStem: 251 59<-52.5 -47.5> 277 50<47 383 383 383>
LayerCount: 2
Fore
SplineSet
378 -40 m 1xfc
 368 -93 l 1
 355 -104 338 -117 309 -117 c 0
 275 -117 251 -90 251 -59 c 0
 251 -36 263 -17 286 -2 c 1
 286 0 l 1xf8
 101 0 l 1
 101 47 l 1
 277 47 l 1
 277 383 l 1
 130 383 l 1
 130 430 l 1
 327 430 l 1
 327 47 l 1x74
 500 47 l 1
 500 0 l 1
 369 0 l 1
 349 -6 310 -23 310 -46 c 0
 310 -59 321 -65 329 -65 c 0
 343 -65 346 -62 378 -40 c 1xfc
254 537 m 1x74
 254 656 l 1
 327 656 l 1
 327 537 l 1
 254 537 l 1x74
EndSplineSet
EndChar

StartChar: SF210000
Encoding: 423 9558 316
Width: 600
Flags: MW
HStem: 216 72<0 192 0 408 264 336 264 264>
VStem: 192 72<-288 216 -288 216> 336 72<-288 216 216 216>
LayerCount: 2
Fore
SplineSet
264 216 m 1
 264 -288 l 1
 192 -288 l 1
 192 216 l 1
 0 216 l 1
 0 288 l 1
 408 288 l 1
 408 -288 l 1
 336 -288 l 1
 336 216 l 1
 264 216 l 1
EndSplineSet
EndChar

StartChar: ohm
Encoding: 424 8486 317
Width: 600
Flags: W
HStem: 0 47<32 204 74 204 74 253 396 526> 530 50<246.5 354>
VStem: 29 54<280 377.5 232 385.5> 32 42<47 113 47 113 47 113> 204 49<47 85 85 85> 347 49<47 85 47 118 47 118> 517 54<276.5 376.5> 526 42<47 113 0 113>
LayerCount: 2
Fore
SplineSet
32 0 m 1xfe
 32 113 l 1
 74 113 l 1
 74 47 l 1xde
 204 47 l 1
 204 85 l 1
 164 96 138 105 107 132 c 0
 55 178 29 246 29 314 c 0
 29 457 142 580 300 580 c 0
 458 580 571 457 571 315 c 0
 571 238 538 171 492 131 c 0xee
 462 105 437 96 396 85 c 1
 396 47 l 1
 526 47 l 1
 526 113 l 1
 568 113 l 1
 568 0 l 1xed
 347 0 l 1
 347 118 l 1
 390 127 517 154 517 309 c 0
 517 444 408 530 300 530 c 0
 193 530 83 445 83 310 c 0xee
 83 154 212 127 253 118 c 1
 253 0 l 1
 32 0 l 1xfe
EndSplineSet
EndChar

StartChar: Hbar
Encoding: 425 294 318
Width: 600
Flags: MW
HStem: 0 47<39 114 164 239 39 114 361 436 486 562> 267 47<164 436 164 436> 398 47<39 114 39 114 164 436 486 562> 516 47<39 114 39 239 164 164 164 239 361 436 486 486 486 562>
VStem: 114 50<47 267 47 314 314 398 445 516> 436 50<47 267 267 267 314 398 47 398 445 516>
LayerCount: 2
Fore
SplineSet
164 445 m 1
 436 445 l 1
 436 516 l 1
 361 516 l 1
 361 563 l 1
 562 563 l 1
 562 516 l 1
 486 516 l 1
 486 445 l 1
 562 445 l 1
 562 398 l 1
 486 398 l 1
 486 47 l 1
 562 47 l 1
 562 0 l 1
 361 0 l 1
 361 47 l 1
 436 47 l 1
 436 267 l 1
 164 267 l 1
 164 47 l 1
 239 47 l 1
 239 0 l 1
 39 0 l 1
 39 47 l 1
 114 47 l 1
 114 398 l 1
 39 398 l 1
 39 445 l 1
 114 445 l 1
 114 516 l 1
 39 516 l 1
 39 563 l 1
 239 563 l 1
 239 516 l 1
 164 516 l 1
 164 445 l 1
436 398 m 1
 164 398 l 1
 164 314 l 1
 436 314 l 1
 436 398 l 1
EndSplineSet
EndChar

StartChar: SF030000
Encoding: 426 9488 319
Width: 600
Flags: MW
HStem: 216 72<0 336 0 264>
VStem: 264 72<-288 216 216 216>
LayerCount: 2
Fore
SplineSet
0 216 m 1
 0 288 l 1
 336 288 l 1
 336 -288 l 1
 264 -288 l 1
 264 216 l 1
 0 216 l 1
EndSplineSet
EndChar

StartChar: eogonek
Encoding: 427 281 320
Width: 600
Flags: MW
HStem: -117 52<328 372> -14 48 201 47<128 484 128 536 128 484> 397 48<245 371>
VStem: 74 54<201 201 201 248 201 276> 287 60<-52.5 -47> 484 54<248 248>
LayerCount: 2
Fore
SplineSet
414 -40 m 1
 404 -93 l 1
 391 -104 374 -117 345 -117 c 0
 311 -117 287 -90 287 -59 c 0
 287 -35 299 -22 306 -14 c 1
 140 -8 74 108 74 214 c 0
 74 338 164 445 311 445 c 0
 462 445 538 338 538 246 c 0
 538 230 536 208 536 201 c 1
 128 201 l 1
 131 149 163 34 317 34 c 0
 401 34 494 80 536 101 c 1
 559 57 l 1
 480 13 404 -5 384 -8 c 1
 369 -16 347 -28 347 -46 c 0
 347 -59 357 -65 365 -65 c 0
 379 -65 382 -62 414 -40 c 1
128 248 m 1
 484 248 l 1
 483 313 431 397 311 397 c 0
 179 397 135 293 128 248 c 1
EndSplineSet
EndChar

StartChar: micro
Encoding: 428 181 321
Width: 600
Flags: W
HStem: -15 50<276 301> 0 47<479 562 479 562> 383 47<36 118 36 168 347 429>
VStem: 118 50<-156 62 163.5 194 194 383 383 383> 429 50<47 69 69 69 194 383 383 383>
LayerCount: 2
Fore
SplineSet
36 430 m 1x78
 168 430 l 1
 168 194 l 2
 168 133 174 109 196 81 c 0
 220 51 257 35 295 35 c 0xb8
 336 35 429 50 429 194 c 2
 429 383 l 1
 347 383 l 1
 347 430 l 1
 479 430 l 1
 479 47 l 1
 562 47 l 1
 562 0 l 1
 429 0 l 1x78
 429 69 l 1
 427 69 l 1
 378 -15 309 -15 293 -15 c 0
 232 -15 190 25 170 62 c 1
 168 62 l 1xb8
 168 -156 l 1
 118 -156 l 1
 118 383 l 1
 36 383 l 1
 36 430 l 1x78
EndSplineSet
EndChar

StartChar: epsilon
Encoding: 429 949 322
Width: 600
Flags: W
HStem: -15 49<253.5 331> 201 48<349 349> 402 48<260.5 322.5 245.5 355.5>
VStem: 121 54<97.5 126.5 97.5 143> 140 54<321.5 354 321.5 366.5> 433 42
LayerCount: 2
Fore
SplineSet
440 457 m 1xf4
 481 457 l 1
 479 436 475 395 475 358 c 0
 475 335 477 323 481 299 c 1
 433 291 l 1
 426 342 416 402 295 402 c 0
 226 402 194 372 194 336 c 0
 194 307 214 284 239 270 c 0xec
 271 252 317 250 349 249 c 1
 349 201 l 1
 197 204 175 138 175 115 c 0
 175 80 206 34 301 34 c 0
 364 34 403 51 432 66 c 0
 433 66 438 69 440 70 c 1
 452 20 l 1
 446 18 446 18 437 14 c 0
 402 1 361 -15 301 -15 c 0
 181 -15 121 42 121 110 c 0xf4
 121 176 174 216 229 226 c 1
 229 228 l 1
 170 244 140 293 140 336 c 0xec
 140 397 199 450 292 450 c 0
 353 450 400 429 422 409 c 0
 423 408 425 406 426 406 c 0
 432 406 434 416 440 457 c 1xf4
EndSplineSet
EndChar

StartChar: Pts
Encoding: 430 8359 323
Width: 600
Flags: W
HStem: -7 46<492 508.5 475 518> 0 47<3 72 120 200 3 72> 88 46<500 500> 143 21G<541 541> 148 21G<584 584> 178 44<187 220 187 220 265 376> 185 44<477.5 497 466.5 510> 300 47<120 177 120 178> 516 47<3 72 3 220 120 120 120 220>
VStem: 72 48<47 300 47 347 347 516> 220 45<98 178 222 274> 397 46<149.5 168.5 149.5 181> 401 38<-6 28> 401 52<416.5 444> 541 40<143 191> 550 47<56.5 76>
LayerCount: 2
Fore
SplineSet
3 563 m 1x55f2
 220 563 l 2
 279 563 350 561 399 525 c 0
 430 502 453 467 453 428 c 0
 453 386 427 357 409 341 c 0x95e6
 361 300 287 300 177 300 c 2
 120 300 l 1
 120 47 l 1
 200 47 l 1
 200 0 l 1
 3 0 l 1
 3 47 l 1
 72 47 l 1
 72 516 l 1
 3 516 l 1
 3 563 l 1x55f2
220 516 m 2
 120 516 l 1
 120 347 l 1
 178 347 l 2
 268 347 332 348 367 373 c 0
 381 383 401 403 401 430 c 0
 401 458 381 478 361 491 c 0
 326 513 284 516 220 516 c 2
220 274 m 1
 265 274 l 1
 265 222 l 1
 376 222 l 1
 376 178 l 1
 265 178 l 1
 265 98 l 2
 265 65 265 40 295 40 c 0
 311 40 322 45 342 53 c 0
 351 56 364 62 368 63 c 1
 381 19 l 1
 338 0 307 -7 289 -7 c 0
 220 -7 220 70 220 98 c 2
 220 178 l 1
 187 178 l 1
 187 222 l 1
 220 222 l 1
 220 274 l 1
541 234 m 2x73f2
 584 227 l 1
 582 211 581 197 581 185 c 0
 581 173 583 158 584 148 c 1x4bf2
 541 143 l 1x53f2
 539 158 535 185 485 185 c 0
 470 185 443 177 443 160 c 0
 443 139 474 136 501 134 c 0x73f2
 503 134 516 133 518 132 c 0
 539 130 597 126 597 68 c 0
 597 16 539 -7 497 -7 c 0
 487 -7 467 -5 439 5 c 1
 439 -6 l 1
 397 -6 l 1
 399 6 401 16 401 25 c 0
 401 31 400 52 397 81 c 1
 439 86 l 1
 446 61 452 39 498 39 c 0
 519 39 550 46 550 67 c 0xb5e9
 550 85 533 86 500 88 c 0
 473 90 397 94 397 159 c 0
 397 203 444 229 489 229 c 0
 505 229 528 225 541 222 c 1
 540 224 538 226 538 228 c 0
 538 229 540 232 541 234 c 2x73f2
EndSplineSet
EndChar

StartChar: SF100000
Encoding: 431 9472 324
Width: 600
Flags: MW
HStem: 216 72<0 600 0 600>
VStem: 0 600<216 288 216 288>
LayerCount: 2
Fore
SplineSet
0 216 m 1
 0 288 l 1
 600 288 l 1
 600 216 l 1
 0 216 l 1
EndSplineSet
EndChar

StartChar: SF050000
Encoding: 432 9532 325
Width: 600
Flags: MW
HStem: 216 72<0 264 0 264 336 600>
VStem: 264 72<-288 216 -288 216 288 792>
LayerCount: 2
Fore
SplineSet
336 288 m 1
 600 288 l 1
 600 216 l 1
 336 216 l 1
 336 -288 l 1
 264 -288 l 1
 264 216 l 1
 0 216 l 1
 0 288 l 1
 264 288 l 1
 264 792 l 1
 336 792 l 1
 336 288 l 1
EndSplineSet
EndChar

StartChar: infinity
Encoding: 433 8734 326
Width: 600
Flags: MW
HStem: 189 50<414.5 466.5 414.5 474> 367 50<152 170 408.5 448.5>
VStem: 52 50<278.5 327.5 278.5 340.5> 498 50<299 326>
LayerCount: 2
Fore
SplineSet
300 342 m 1
 325 373 371 417 433 417 c 0
 494 417 548 378 548 304 c 0
 548 245 510 189 438 189 c 0
 374 189 332 232 300 266 c 1
 278 239 236 190 163 190 c 0
 109 190 52 227 52 302 c 0
 52 379 112 417 167 417 c 0
 242 417 299 343 300 342 c 1
333 304 m 1
 361 274 392 239 437 239 c 0
 496 239 498 294 498 304 c 0
 498 348 462 367 435 367 c 0
 382 367 345 319 333 304 c 1
268 304 m 1
 259 317 254 321 208 354 c 0
 193 365 174 367 166 367 c 0
 138 367 102 352 102 303 c 0
 102 254 139 240 160 240 c 0
 210 240 246 280 268 304 c 1
EndSplineSet
EndChar

StartChar: lessequal
Encoding: 434 8804 327
Width: 600
Flags: MW
HStem: 33 51<64 529 64 529> 132 21G<526 526> 556 20G<526 526>
VStem: 54 492<177 357>
LayerCount: 2
Fore
SplineSet
526 576 m 1
 546 531 l 1
 165 356 l 1
 546 177 l 1
 526 132 l 1
 54 357 l 1
 526 576 l 1
529 84 m 1
 529 33 l 1
 64 33 l 1
 64 84 l 1
 529 84 l 1
EndSplineSet
EndChar

StartChar: liter
Encoding: 435 -1 328
Width: 600
Flags: MW
HStem: -12 55<268.5 282.5 268.5 290> 148 21G<151 160> 571 50<392.5 405.5>
VStem: 186 76<51 69.5 51 79> 418 45<525 549>
LayerCount: 2
Fore
SplineSet
296 243 m 1
 291 221 262 85 262 54 c 0
 262 48 265 43 272 43 c 0
 293 43 309 73 312 78 c 0
 326 101 329 109 343 109 c 0
 360 109 362 94 362 90 c 0
 362 70 323 -12 257 -12 c 0
 226 -12 186 8 186 63 c 0
 186 95 191 122 199 173 c 1
 169 150 165 148 155 148 c 0
 147 148 136 157 136 167 c 0
 136 177 140 180 171 206 c 0
 176 210 193 225 212 243 c 1
 262 475 317 621 404 621 c 0
 449 621 463 580 463 544 c 0
 463 506 451 460 432 419 c 0
 405 361 400 358 296 243 c 1
313 323 m 1
 330 344 l 2
 367 384 418 473 418 541 c 0
 418 557 412 571 399 571 c 0
 386 571 378 558 375 555 c 0
 355 524 337 447 311 325 c 1
 313 323 l 1
EndSplineSet
EndChar

StartChar: logicalnot
Encoding: 436 172 329
Width: 600
Flags: MW
HStem: 388 50<90 469 90 519>
VStem: 469 50<169 388 388 388>
LayerCount: 2
Fore
SplineSet
90 438 m 1
 519 438 l 1
 519 169 l 1
 469 169 l 1
 469 388 l 1
 90 388 l 1
 90 438 l 1
EndSplineSet
EndChar

StartChar: SF140000
Encoding: 437 9617 330
Width: 600
Flags: MW
HStem: -167 100<0 100 0 100 200 300 400 500> 33 100<0 100 0 100 200 300 400 500> 233 100<0 100 0 100 200 300 400 500> 433 100<0 100 0 100 200 300 400 500> 633 100<0 100 0 100 200 300 400 500>
VStem: 0 100<-167 -67 -167 -67 33 133 233 333 433 533 633 733> 200 100<-167 -67 -167 -67 33 133 233 333 433 533 633 733> 400 100<-167 -67 -167 -67 33 133 233 333 433 533 633 733>
LayerCount: 2
Fore
SplineSet
500 533 m 1
 500 433 l 1
 400 433 l 1
 400 533 l 1
 500 533 l 1
300 533 m 1
 300 433 l 1
 200 433 l 1
 200 533 l 1
 300 533 l 1
500 333 m 1
 500 233 l 1
 400 233 l 1
 400 333 l 1
 500 333 l 1
300 333 m 1
 300 233 l 1
 200 233 l 1
 200 333 l 1
 300 333 l 1
500 133 m 1
 500 33 l 1
 400 33 l 1
 400 133 l 1
 500 133 l 1
300 133 m 1
 300 33 l 1
 200 33 l 1
 200 133 l 1
 300 133 l 1
500 -67 m 1
 500 -167 l 1
 400 -167 l 1
 400 -67 l 1
 500 -67 l 1
300 -67 m 1
 300 -167 l 1
 200 -167 l 1
 200 -67 l 1
 300 -67 l 1
100 533 m 1
 100 433 l 1
 0 433 l 1
 0 533 l 1
 100 533 l 1
100 333 m 1
 100 233 l 1
 0 233 l 1
 0 333 l 1
 100 333 l 1
100 133 m 1
 100 33 l 1
 0 33 l 1
 0 133 l 1
 100 133 l 1
100 -67 m 1
 100 -167 l 1
 0 -167 l 1
 0 -67 l 1
 100 -67 l 1
100 733 m 1
 100 633 l 1
 0 633 l 1
 0 733 l 1
 100 733 l 1
300 733 m 1
 300 633 l 1
 200 633 l 1
 200 733 l 1
 300 733 l 1
500 733 m 1
 500 633 l 1
 400 633 l 1
 400 733 l 1
 500 733 l 1
EndSplineSet
EndChar

StartChar: nsuperior
Encoding: 438 8319 331
Width: 600
Flags: W
HStem: 263 47<112 168 217 273 112 168 325 386 435 488> 524 46<112 168 112 216> 531 49<302.5 358>
VStem: 168 49<310 483 310 524 310 524> 386 49<310 466 310 480.5>
LayerCount: 2
Fore
SplineSet
112 570 m 1xd8
 216 570 l 1xd8
 216 539 l 1
 238 555 273 580 328 580 c 0
 435 580 435 498 435 466 c 2
 435 310 l 1
 488 310 l 1
 488 263 l 1
 325 263 l 1
 325 310 l 1
 386 310 l 1
 386 466 l 2
 386 495 386 531 330 531 c 0
 275 531 241 502 217 483 c 1xb8
 217 310 l 1
 273 310 l 1
 273 263 l 1
 112 263 l 1
 112 310 l 1
 168 310 l 1
 168 524 l 1
 112 524 l 1
 112 570 l 1xd8
EndSplineSet
EndChar

StartChar: intersection
Encoding: 439 8745 332
Width: 600
Flags: MW
HStem: 0 21G<81 131 81 81 469 469 469 519> 530 50<274.5 324.5>
VStem: 81 50<0 250 250 253> 469 50<0 250 0 253 0 301.5>
LayerCount: 2
Fore
SplineSet
131 0 m 1
 81 0 l 1
 81 250 l 2
 81 368 81 428 115 480 c 0
 158 546 231 580 300 580 c 0
 385 580 451 532 485 480 c 0
 519 429 519 372 519 250 c 2
 519 0 l 1
 469 0 l 1
 469 253 l 2
 469 350 469 413 441 456 c 0
 408 507 349 530 300 530 c 0
 249 530 192 505 159 456 c 0
 130 413 131 351 131 253 c 2
 131 0 l 1
EndSplineSet
EndChar

StartChar: SF160000
Encoding: 440 9619 333
Width: 600
Flags: MW
HStem: -267 100<0 100 200 300 400 500 0 100> -67 100<0 100 0 100 200 300 400 500> 133 100<0 100 0 100 200 300 400 500> 333 100<0 100 0 100 200 300 400 500> 533 100<0 100 0 100 200 300 400 500>
VStem: 100 100<-167 -67 -167 -67 33 133 233 333 433 533 633 733> 300 100<-167 -67 -167 -67 33 133 233 333 433 533 633 733> 500 100<-167 -67 -67 -67 33 133 133 133 233 333 333 333 433 533 533 533 633 733>
LayerCount: 2
Fore
SplineSet
600 -267 m 1
 0 -267 l 1
 0 -167 l 1
 100 -167 l 1
 100 -67 l 1
 0 -67 l 1
 0 33 l 1
 100 33 l 1
 100 133 l 1
 0 133 l 1
 0 233 l 1
 100 233 l 1
 100 333 l 1
 0 333 l 1
 0 433 l 1
 100 433 l 1
 100 533 l 1
 0 533 l 1
 0 633 l 1
 100 633 l 1
 100 733 l 1
 200 733 l 1
 200 633 l 1
 300 633 l 1
 300 733 l 1
 400 733 l 1
 400 633 l 1
 500 633 l 1
 500 733 l 1
 600 733 l 1
 600 -267 l 1
500 233 m 1
 500 333 l 1
 400 333 l 1
 400 233 l 1
 500 233 l 1
300 233 m 1
 300 333 l 1
 200 333 l 1
 200 233 l 1
 300 233 l 1
500 33 m 1
 500 133 l 1
 400 133 l 1
 400 33 l 1
 500 33 l 1
300 33 m 1
 300 133 l 1
 200 133 l 1
 200 33 l 1
 300 33 l 1
500 433 m 1
 500 533 l 1
 400 533 l 1
 400 433 l 1
 500 433 l 1
300 433 m 1
 300 533 l 1
 200 533 l 1
 200 433 l 1
 300 433 l 1
500 -167 m 1
 500 -67 l 1
 400 -67 l 1
 400 -167 l 1
 500 -167 l 1
300 -167 m 1
 300 -67 l 1
 200 -67 l 1
 200 -167 l 1
 300 -167 l 1
EndSplineSet
EndChar

StartChar: SF260000
Encoding: 441 9565 334
Width: 600
Flags: MW
HStem: 144 72<0 336 0 408 0 336> 288 72<0 192 0 264 0 192>
VStem: 192 72<360 792> 336 72<216 792 144 792>
LayerCount: 2
Fore
SplineSet
264 288 m 1
 0 288 l 1
 0 360 l 1
 192 360 l 1
 192 792 l 1
 264 792 l 1
 264 288 l 1
336 216 m 1
 336 792 l 1
 408 792 l 1
 408 144 l 1
 0 144 l 1
 0 216 l 1
 336 216 l 1
EndSplineSet
EndChar

StartChar: notequal
Encoding: 442 8800 335
Width: 600
Flags: MW
HStem: 193 57<87 211 87 240 305 513 87 276> 352 57<87 291 87 319 385 513 87 356>
VStem: 87 426<193 250 193 250 352 409 193 409>
LayerCount: 2
Fore
SplineSet
356 352 m 1
 305 250 l 1
 513 250 l 1
 513 193 l 1
 276 193 l 1
 214 71 l 1
 160 92 l 1
 211 193 l 1
 87 193 l 1
 87 250 l 1
 240 250 l 1
 291 352 l 1
 87 352 l 1
 87 409 l 1
 319 409 l 1
 384 539 l 1
 440 518 l 1
 385 409 l 1
 513 409 l 1
 513 352 l 1
 356 352 l 1
EndSplineSet
EndChar

StartChar: filledbox
Encoding: 443 9632 336
Width: 600
Flags: MW
HStem: 141 198<201 399 201 399>
VStem: 201 198<141 339 141 339>
LayerCount: 2
Fore
SplineSet
201 141 m 1
 201 339 l 1
 399 339 l 1
 399 141 l 1
 201 141 l 1
EndSplineSet
EndChar

